<?xml version="1.0" encoding="UTF-8" standalone="no"?>
<!-- Created with Inkscape (http://www.inkscape.org/) -->

<svg
   xmlns:dc="http://purl.org/dc/elements/1.1/"
   xmlns:cc="http://creativecommons.org/ns#"
   xmlns:rdf="http://www.w3.org/1999/02/22-rdf-syntax-ns#"
   xmlns:svg="http://www.w3.org/2000/svg"
   xmlns="http://www.w3.org/2000/svg"
   xmlns:sodipodi="http://sodipodi.sourceforge.net/DTD/sodipodi-0.dtd"
   xmlns:inkscape="http://www.inkscape.org/namespaces/inkscape"
   width="210mm"
   height="297mm"
   viewBox="0 0 210 297"
   version="1.1"
   id="svg8"
   inkscape:version="0.92.4 (5da689c313, 2019-01-14)"
   sodipodi:docname="gearLogo.svg">
  <defs
     id="defs2" />
  <sodipodi:namedview
     id="base"
     pagecolor="#5f5f5f"
     bordercolor="#666666"
     borderopacity="1.0"
     inkscape:pageopacity="0"
     inkscape:pageshadow="2"
     inkscape:zoom="0.12374369"
     inkscape:cx="1887.8577"
     inkscape:cy="760.77118"
     inkscape:document-units="px"
     inkscape:current-layer="layer1"
     showgrid="false"
     showborder="false"
     inkscape:window-width="1920"
     inkscape:window-height="1017"
     inkscape:window-x="-8"
     inkscape:window-y="208"
     inkscape:window-maximized="1"
     inkscape:snap-nodes="false" />
  <metadata
     id="metadata5">
    <rdf:RDF>
      <cc:Work
         rdf:about="">
        <dc:format>image/svg+xml</dc:format>
        <dc:type
           rdf:resource="http://purl.org/dc/dcmitype/StillImage" />
        <dc:title></dc:title>
      </cc:Work>
    </rdf:RDF>
  </metadata>
  <g
     inkscape:label="Layer 1"
     inkscape:groupmode="layer"
     id="layer1">
    <path
       style="fill:none;stroke:#000000;stroke-width:6.41511631"
       d="M -175.46289 28.380859 L -206.85938 29.716797 L -224.12305 76.027344 L -227.57227 106.19531 L -225.64648 121.05664 L -230.9082 122.04297 A 445.34076 445.34076 0 0 0 -268.31641 129.05859 L -275.05664 130.32227 L -278.64648 115.77344 L -292.79297 88.904297 L -325.66211 51.996094 L -355.41016 62.125 L -358.92969 111.42188 L -353.73828 141.3418 L -347.70312 155.05664 L -353.19531 157.85352 A 445.34076 445.34076 0 0 0 -387.3125 175.22656 L -392.50195 177.86914 L -400.04492 164.91992 L -421.1875 143.12305 L -463.125 116.97266 L -488.8125 135.07031 L -478.30078 183.36328 L -464.89258 210.60742 L -455.23828 222.06836 L -454.95312 222.05664 A 445.34076 445.34076 0 0 0 -613.91211 562.81445 A 445.34076 445.34076 0 0 0 -425.21484 926.12695 L -425.24609 926.12891 L -433.89062 938.36914 L -444.93359 966.6543 L -451.30078 1015.666 L -424.16602 1031.5156 L -384.60547 1001.8926 L -365.39258 978.375 L -358.97852 964.83398 L -354.625 966.60156 A 445.34076 445.34076 0 0 0 -318.35156 981.33594 L -312.40234 983.75195 L -317.24805 997.93164 L -319.87695 1028.1836 L -312.17773 1077.0039 L -281.67578 1084.5645 L -252.06445 1044.9961 L -240.25391 1017.0195 L -237.91602 1002.2188 L -231.09375 1002.9043 A 445.34076 445.34076 0 0 0 -194.91602 1006.543 L -187.89648 1007.25 L -188.55078 1022.2188 L -182.54883 1051.9863 L -161.4082 1096.6602 L -130.01172 1095.3223 L -112.74609 1049.0137 L -109.29688 1018.8438 L -111.22461 1003.9824 L -105.55664 1002.9199 A 445.34076 445.34076 0 0 0 -70.185547 996.28711 L -61.8125 994.7168 L -58.224609 1009.2656 L -44.078125 1036.1367 L -11.208984 1073.043 L 18.539062 1062.9141 L 22.058594 1013.6172 L 16.867188 983.69727 L 10.833984 969.98242 L 18.259766 966.20117 A 445.34076 445.34076 0 0 0 47.947266 951.08594 L 55.632812 947.17188 L 63.173828 960.11914 L 84.318359 981.91602 L 126.25391 1008.0684 L 151.94336 989.96875 L 141.43164 941.67773 L 128.02148 914.43164 L 118.36719 902.9707 L 117.78711 902.99609 A 445.34076 445.34076 0 0 0 276.76953 562.51953 L 276.76953 561.92969 A 445.34076 445.34076 0 0 0 88.072266 198.92578 L 88.375 198.91211 L 97.019531 186.67188 L 108.06445 158.38477 L 114.42969 109.37305 L 87.294922 93.525391 L 47.734375 123.14844 L 28.521484 146.66406 L 22.107422 160.20703 L 15.945312 157.70312 A 445.34076 445.34076 0 0 0 -16.113281 144.68164 L -24.46875 141.28711 L -19.621094 127.10938 L -16.994141 96.855469 L -24.693359 48.037109 L -55.193359 40.474609 L -84.806641 80.042969 L -96.615234 108.01953 L -98.955078 122.82031 L -106.66211 122.04492 A 445.34076 445.34076 0 0 0 -141.77148 118.51562 L -148.97461 117.79102 L -148.31836 102.82031 L -154.32227 73.052734 L -175.46289 28.380859 z "
       transform="scale(0.26458333)"
       id="path1034" />
    <path
       style="fill:none;stroke:#000000;stroke-width:2.52461195"
       d="m 165.53199,148.9724 v 6.04439 l -17.91872,7.564 -11.80459,1.86152 -5.8752,-0.50829 -2.81551,19.58252 5.78035,1.16754 10.80203,5.11177 15.0618,12.30601 -3.48411,11.86575 -19.32394,2.20942 -11.85078,-1.53967 -5.494,-2.14291 -8.21857,17.9961 5.21728,2.74872 8.92429,7.94797 10.98476,16.05091 -6.68597,10.40356 -19.16364,-3.32428 -10.937046,-4.81605 -4.667675,-3.60396 -12.955722,14.95168 4.23152,4.10728 6.323568,10.14031 6.017754,18.49542 -9.346234,8.09855 -17.450786,-8.58859 -9.137076,-7.70229 -3.463306,-4.77311 -16.643356,10.69611 2.90301,5.13303 3.210542,11.5111 0.563256,19.4417 -11.249258,5.13734 -14.324211,-13.15726 -6.597038,-9.96453 -1.978214,-5.55537 -18.982634,5.57377 1.3392938,5.74302 -0.1625928,11.94935 -4.9369485,18.81281 -12.2408455,1.75987 -10.037254,-16.65975 -3.522467,-11.41948 -0.332914,-5.88771 h -9.753344"
       id="path1032"
       inkscape:connector-curvature="0" />
    <path
       style="fill:none;stroke:#000000;stroke-width:2.52461195"
       d="m -254.73436,149.66283 -1e-5,-7.01284 17.91872,-7.564 11.80459,-1.86152 5.8752,0.50829 2.8155,-19.58252 -5.78035,-1.16754 -10.80202,-5.11177 -15.06181,-12.306004 3.48411,-11.865761 19.32395,-2.209412 11.85077,1.53967 5.49401,2.142906 8.21858,-17.9961 -5.21729,-2.748721 -8.9243,-7.947971 -10.98476,-16.050903 6.68597,-10.403565 19.16365,3.324284 10.93705,4.816052 4.66767,3.603953 12.95572,-14.951683 -4.23152,-4.107286 -6.32357,-10.140305 -6.01776,-18.4954266 9.34624,-8.0985414 17.4508,8.5886121 9.13706,7.7022682 3.46331,4.7731168 16.64336,-10.6961193 -2.90301,-5.1330329 -3.21054,-11.5110859 -0.56326,-19.441691 11.24925,-5.137327 14.32422,13.157245 6.59704,9.964544 1.97821,5.555355 18.982637,-5.57377 -1.339294,-5.743044 0.162593,-11.949343 4.936947,-18.812789 12.240846,-1.759896 10.037254,16.659767 3.522467,11.419484 0.332913,5.887697 h 8.784896"
       id="path986"
       inkscape:connector-curvature="0" />
    <path
       style="fill:none;stroke:#000000;stroke-width:4;stroke-miterlimit:4;stroke-dasharray:none"
       d="M -111.77734 191.19336 L -130.87305 220.16797 L -137.97656 240.26953 L -138.99414 250.74023 L -136.60547 252.98438 A 311.22474 311.22474 0 0 0 -168.57227 251.29492 A 311.22474 311.22474 0 0 0 -479.79688 562.51953 A 311.22474 311.22474 0 0 0 -475.50391 613.46875 L -477.86914 611.24609 L -488.25781 612.91016 L -507.88281 621.24219 L -535.62109 642.0918 L -530.26562 663.49609 L -495.97852 668.83008 L -474.74219 666.93945 L -464.79492 663.51758 L -451.44336 696.19141 L -460.94141 700.71289 L -477.42383 714.23828 L -498.16406 742.05664 L -486.99805 761.08594 L -452.5957 756.54297 L -432.75195 748.74805 L -424.16992 742.66016 L -402.1543 770.24805 L -409.99414 777.26367 L -422 794.88477 L -434.0625 827.41992 L -417.98633 842.53125 L -386.25781 828.48047 L -369.41406 815.41016 L -362.89648 807.15234 L -334 827.41992 L -339.54492 836.36133 L -346.09961 856.64844 L -348.50781 891.26562 L -328.82422 901.23633 L -302.33984 878.81641 L -289.86133 861.5293 L -285.93359 851.76953 L -252.49805 863.07617 L -255.29883 873.2168 L -255.87305 894.5293 L -248.42969 928.42188 L -226.73633 932.44141 L -207.64062 903.46875 L -200.53711 883.36719 L -199.51953 872.89648 L -200.39258 872.07617 A 311.22474 311.22474 0 0 0 -168.57227 873.74414 A 311.22474 311.22474 0 0 0 142.65234 562.51953 A 311.22474 311.22474 0 0 0 138.3457 511.44141 L 139.35547 512.39062 L 149.74414 510.72656 L 169.36914 502.39258 L 197.10742 481.54492 L 191.75195 460.14062 L 157.46484 454.80664 L 136.22852 456.69531 L 126.28125 460.11914 L 112.92969 427.44531 L 122.42773 422.92188 L 138.91016 409.39844 L 159.65039 381.58008 L 148.48438 362.55078 L 114.08203 367.09375 L 94.238281 374.88867 L 85.65625 380.97656 L 63.642578 353.38867 L 71.480469 346.37109 L 83.486328 328.75195 L 95.548828 296.2168 L 79.472656 281.10547 L 47.744141 295.1543 L 30.900391 308.22656 L 24.382812 316.48438 L -4.5136719 296.21484 L 1.03125 287.27539 L 7.5859375 266.98633 L 9.9941406 232.37109 L -9.6894531 222.40039 L -36.173828 244.82031 L -48.652344 262.10742 L -52.580078 271.86719 L -86.015625 260.56055 L -83.214844 250.41992 L -82.640625 229.10742 L -90.083984 195.21484 L -111.77734 191.19336 z "
       transform="scale(0.26458333)"
       id="path988" />
    <path
       style="fill:none;stroke:#000000;stroke-width:1.9708823"
       d="m 457.61453,227.56579 9.56575,1.30452 7.74109,-13.06218 2.68532,-8.93414 0.22623,-4.59828 15.44457,-0.11228 0.29292,4.59453 2.81495,8.89468 7.92964,12.94842 9.54573,-1.44274 3.74759,-14.71452 0.0593,-9.3288 -1.07817,-4.47604 14.78722,-4.45839 1.57573,4.32586 5.20628,7.74103 11.25675,10.19027 8.75249,-4.07399 -0.54971,-15.174 -2.57147,-8.96805 -2.29494,-3.99071 12.93197,-8.44384 2.73046,3.70617 7.17672,5.96138 13.67143,6.60595 7.25009,-6.37526 -4.80224,-14.4039 -4.99398,-7.8803 -3.32667,-3.18269 11.70991,-13.34904 C 549.10537,125.15496 504.86763,89.422826 483.82686,43.085483 473.04268,18.548284 473.10716,-2.8150924 484.00558,-16.306585 l 0.0547,-0.0672 c 20.10177,-24.743679 71.91658,-17.748879 122.66212,16.55889505 l 2.43221,-1.30426735 6.92181,-6.2551713 8.48433,-12.5918074 -5.27811,-8.084035 -14.94141,2.703618 -8.51058,3.821719 -3.62338,2.839561 -10.19863,-11.598584 3.28046,-3.230478 4.87892,-7.951488 4.59312,-14.47236 -7.34188,-6.269237 -13.57408,6.803317 -7.08975,6.064208 -2.67638,3.745995 -13.05329,-8.255568 2.23761,-4.023486 2.44099,-9.004504 0.32971,-15.180122 -8.81064,-3.9469 -11.10773,10.352311 -5.09388,7.815885 -1.51294,4.348273 -14.85006,-4.243693 1.01307,-4.491119 -0.19435,-9.32711 -3.96096,-14.658489 -9.56576,-1.30452 -7.74108,13.062194 -2.68496,8.934781 -0.22676,4.598123 -15.44441,0.111788 -0.29294,-4.594537 -2.81443,-8.894526 -7.93012,-12.948562 -9.54589,1.443239 -3.74744,14.714021 -0.0593,9.3288 1.07814,4.476027 -14.78719,4.4584 -1.57588,-4.325354 -5.20614,-7.741541 -11.25676,-10.190266 -8.75261,4.074486 0.54982,15.173497 2.57147,8.968056 2.29497,3.990717 -12.93199,8.443831 -2.73044,-3.70616 -7.17672,-5.961381 -13.67143,-6.605958 -7.25012,6.375258 4.80213,14.404402 4.22903,6.673339 c 20.1388,7.646146 40.87284,19.851974 59.74108,35.1686873 26.145,21.2241897 46.88069,46.9295757 57.64755,71.4632617 10.76685,24.533686 10.68329,45.886897 -0.2326,59.364307 -22.73063,28.06478 -85.29089,15.00561 -139.74899,-29.17195 -3.69449,-3.01255 -7.2981,-6.129349 -10.79369,-9.335603 l -2.05926,0.431608 -8.40373,4.051641 -11.68801,9.691494 2.78676,9.24349 15.09758,1.61535 9.24299,-1.26913 4.27643,-1.70381 6.51767,14.00196 -4.05708,2.17549 -6.92181,6.25517 -8.48444,12.59231 5.27822,8.08353 14.94144,-2.70361 8.51043,-3.82122 3.62353,-2.84006 10.1986,11.59858 -3.28043,3.23048 -4.87892,7.95149 -4.59327,14.47285 7.34203,6.26875 13.57457,-6.80317 7.08923,-6.06436 2.67641,-3.74599 13.05313,8.25606 -2.23708,4.02363 -2.44136,9.00387 -0.32971,15.18012 8.81064,3.9469 11.10824,-10.35216 5.09334,-7.81605 1.51282,-4.34777 14.85006,4.2437 -1.01294,4.49062 0.19488,9.32726 z"
       id="path1165"
       inkscape:connector-curvature="0"
       sodipodi:nodetypes="cccccccccccccccccccccccccccccccccccccccccccccccccccccccccccccccccccccccccccccccccccccccccscccccccccccccccccccccccccccccccccccccc" />
    <path
       inkscape:connector-curvature="0"
       id="circle1018"
       d="m 256.93388,-65.857086 a 22.588644,22.588644 0 0 1 -22.58864,22.588644 22.588644,22.588644 0 0 1 -22.58864,-22.588644 22.588644,22.588644 0 0 1 22.58864,-22.588643 22.588644,22.588644 0 0 1 22.58864,22.588643 z"
       style="fill:none;stroke:#000000;stroke-width:2.25886416" />
    <g
       id="g1143"
       transform="translate(-1.53283,0.89593594)" />
  </g>
</svg>
