<?xml version="1.0" encoding="UTF-8" standalone="no"?>
<!-- Created with Inkscape (http://www.inkscape.org/) -->

<svg
   xmlns:dc="http://purl.org/dc/elements/1.1/"
   xmlns:cc="http://creativecommons.org/ns#"
   xmlns:rdf="http://www.w3.org/1999/02/22-rdf-syntax-ns#"
   xmlns:svg="http://www.w3.org/2000/svg"
   xmlns="http://www.w3.org/2000/svg"
   xmlns:xlink="http://www.w3.org/1999/xlink"
   xmlns:sodipodi="http://sodipodi.sourceforge.net/DTD/sodipodi-0.dtd"
   xmlns:inkscape="http://www.inkscape.org/namespaces/inkscape"
   width="210mm"
   height="297mm"
   viewBox="0 0 210 297"
   version="1.1"
   id="svg5941"
   inkscape:version="0.92.4 (5da689c313, 2019-01-14)"
   sodipodi:docname="logov2.5.svg">
  <defs
     id="defs5935">
    <linearGradient
       gradientTransform="matrix(0.10595624,0,0,0.11598324,-1595.8036,116.85064)"
       inkscape:collect="always"
       xlink:href="#linearGradient2574"
       id="linearGradient1483-2-8-1-5-5-7-1-7-4-8"
       x1="15768"
       y1="488.51968"
       x2="16294.004"
       y2="30.640341"
       gradientUnits="userSpaceOnUse" />
    <linearGradient
       inkscape:collect="always"
       id="linearGradient2574">
      <stop
         style="stop-color:#ffffff;stop-opacity:1"
         offset="0"
         id="stop2570" />
      <stop
         style="stop-color:#9daaba;stop-opacity:1"
         offset="1"
         id="stop2572" />
    </linearGradient>
    <linearGradient
       gradientTransform="matrix(0.51516893,0,0,0.56392098,-2099.2116,150.40716)"
       inkscape:collect="always"
       xlink:href="#linearGradient2568"
       id="linearGradient1507-1-3-81-2-8-0-0-7-2-4"
       x1="4438.6924"
       y1="-10.653473"
       x2="4276.3301"
       y2="-50.784817"
       gradientUnits="userSpaceOnUse" />
    <linearGradient
       inkscape:collect="always"
       id="linearGradient2568">
      <stop
         style="stop-color:#000000;stop-opacity:1"
         offset="0"
         id="stop2564" />
      <stop
         style="stop-color:#5e9cf9;stop-opacity:0.98823529"
         offset="1"
         id="stop2566" />
    </linearGradient>
    <radialGradient
       inkscape:collect="always"
       xlink:href="#linearGradient3982"
       id="radialGradient5891"
       cx="121.39886"
       cy="215.80211"
       fx="121.39886"
       fy="215.80211"
       r="60.330433"
       gradientTransform="matrix(1.2749762,-1.3624929,1.4807239,1.3856129,-328.04711,38.072392)"
       gradientUnits="userSpaceOnUse" />
    <linearGradient
       inkscape:collect="always"
       id="linearGradient3982">
      <stop
         style="stop-color:#000000;stop-opacity:1"
         offset="0"
         id="stop3978" />
      <stop
         style="stop-color:#a8a8a8;stop-opacity:1"
         offset="1"
         id="stop3980" />
    </linearGradient>
    <radialGradient
       inkscape:collect="always"
       xlink:href="#linearGradient3656"
       id="radialGradient5893"
       cx="86.315742"
       cy="195.16467"
       fx="86.315742"
       fy="195.16467"
       r="60.330482"
       gradientTransform="matrix(2.2339674,1.0918023,-0.8304976,1.6993045,70.176828,-293.68159)"
       gradientUnits="userSpaceOnUse" />
    <linearGradient
       id="linearGradient3656"
       inkscape:collect="always">
      <stop
         id="stop3652"
         offset="0"
         style="stop-color:#000000;stop-opacity:1;" />
      <stop
         id="stop3654"
         offset="1"
         style="stop-color:#939393;stop-opacity:1" />
    </linearGradient>
    <linearGradient
       gradientTransform="matrix(-0.51037667,0.07010464,-0.07673886,-0.55867524,2256.5745,-162.35838)"
       inkscape:collect="always"
       xlink:href="#linearGradient2568"
       id="linearGradient1491-8-5-5-0-0-2-7-3-2-5-5"
       x1="4108.4053"
       y1="-78.807915"
       x2="4495.46"
       y2="-128.91109"
       gradientUnits="userSpaceOnUse" />
    <linearGradient
       gradientTransform="matrix(0.51037667,-0.07010464,0.07673886,0.55867524,-2054.1996,435.93293)"
       inkscape:collect="always"
       xlink:href="#linearGradient2568"
       id="linearGradient1491-8-5-5-0-0-2-7-3-2-6"
       x1="4144.7954"
       y1="-82.776527"
       x2="4429.751"
       y2="-148.6944"
       gradientUnits="userSpaceOnUse" />
  </defs>
  <sodipodi:namedview
     id="base"
     pagecolor="#ffffff"
     bordercolor="#666666"
     borderopacity="1.0"
     inkscape:pageopacity="0.0"
     inkscape:pageshadow="2"
     inkscape:zoom="0.35"
     inkscape:cx="-64.285714"
     inkscape:cy="560"
     inkscape:document-units="mm"
     inkscape:current-layer="layer1"
     showgrid="false"
     showborder="false"
     inkscape:window-width="1920"
     inkscape:window-height="1017"
     inkscape:window-x="-8"
     inkscape:window-y="208"
     inkscape:window-maximized="1" />
  <metadata
     id="metadata5938">
    <rdf:RDF>
      <cc:Work
         rdf:about="">
        <dc:format>image/svg+xml</dc:format>
        <dc:type
           rdf:resource="http://purl.org/dc/dcmitype/StillImage" />
        <dc:title></dc:title>
      </cc:Work>
    </rdf:RDF>
  </metadata>
  <g
     inkscape:label="Layer 1"
     inkscape:groupmode="layer"
     id="layer1">
    <path
       inkscape:connector-curvature="0"
       style="font-style:normal;font-variant:normal;font-weight:normal;font-stretch:normal;font-size:292.40866089px;line-height:1.25;font-family:'Trebuchet MS';-inkscape-font-specification:'Trebuchet MS';letter-spacing:0px;word-spacing:0px;fill:url(#linearGradient1491-8-5-5-0-0-2-7-3-2-6);fill-opacity:1;stroke:#8a8484;stroke-width:0.52916664;stroke-miterlimit:4;stroke-dasharray:none;stroke-opacity:1"
       d="m 83.933047,64.167636 c -6.665809,5.09677 -11.08388,13.870142 -12.68168,21.860169 -0.627769,3.560601 -0.269071,9.206461 -0.2633,14.867045 3.447161,-22.432654 19.489976,-28.062904 45.798033,-27.782624 10.30572,0.1098 16.63276,0.81516 26.75301,1.87919 l 9.78966,-18.033129 c -6.11473,-0.388431 -9.90541,-0.51736 -17.87651,-0.74479 -7.79524,0.227549 -17.59165,0.180369 -26.35579,0.75101 -9.307383,0.606009 -19.177172,2.625959 -25.163423,7.203129 z"
       id="path1409-8-6-2-8-6-1-9-3-50-1-3"
       sodipodi:nodetypes="sccscccss" />
    <path
       inkscape:connector-curvature="0"
       style="font-style:normal;font-variant:normal;font-weight:normal;font-stretch:normal;font-size:292.40866089px;line-height:1.25;font-family:'Trebuchet MS';-inkscape-font-specification:'Trebuchet MS';letter-spacing:0px;word-spacing:0px;fill:url(#linearGradient1491-8-5-5-0-0-2-7-3-2-5-5);fill-opacity:1;stroke:#8a8484;stroke-width:0.52916664;stroke-miterlimit:4;stroke-dasharray:none;stroke-opacity:1"
       d="m 118.44203,209.40692 c 6.66581,-5.09678 11.08388,-13.87016 12.68168,-21.86018 0.62777,-3.5606 0.26907,-9.20646 0.2633,-14.86705 -3.44716,18.46391 -13.64563,26.99281 -45.798033,27.78263 -10.29311,0.52128 -17.426509,0.50776 -27.54677,-0.55627 l -8.995909,16.71021 c 6.11474,0.38844 9.90542,0.51735 17.87652,0.7448 7.795239,-0.22755 17.591649,-0.18038 26.355789,-0.75102 9.307383,-0.60601 19.177173,-2.62595 25.163423,-7.20312 z"
       id="path1409-8-6-2-8-6-1-9-3-50-1-9-0"
       sodipodi:nodetypes="sccccccss" />
    <path
       sodipodi:nodetypes="ssccsccssccsccss"
       inkscape:connector-curvature="0"
       id="path2723-6-9"
       d="m 116.57216,49.376976 c -49.200105,-0.14342 -74.306902,16.87622 -75.320202,51.058974 -0.431,14.54138 5.972999,25.91117 19.2116,34.10975 29.783998,16.46017 69.847302,4.44615 71.240902,41.04191 0,21.28268 -17.85281,31.92443 -53.558702,31.92443 -0.628301,0 -2.4124,0.47766 -13.1104,-0.15739 l -11.377101,18.82744 c 9.841799,0.64103 23.4371,0.94183 26.5028,0.94183 54.134703,0 81.202413,-17.94143 81.202413,-53.8242 0,-14.58976 -6.77621,-25.74768 -20.32631,-33.47448 -38.2773,-18.99892 -69.782901,-6.07822 -70.074101,-40.623143 0.630499,-21.271481 8.789408,-31.129801 44.456311,-31.548451 7.5219,-0.0883 13.61866,0.41888 21.74491,1.1688 l 9.63897,-18.187449 c -9.8177,-0.990031 -19.73319,-1.003491 -22.79729,-1.112311 -2.5363,-0.0901 -5.014,-0.13866 -7.4338,-0.14571 z"
       style="font-style:normal;font-variant:normal;font-weight:normal;font-stretch:normal;font-size:292.40866089px;line-height:1.25;font-family:'Trebuchet MS';-inkscape-font-specification:'Trebuchet MS';letter-spacing:0px;word-spacing:0px;fill:url(#radialGradient5893);fill-opacity:1;stroke:#8a8484;stroke-width:0.52916664;stroke-miterlimit:4;stroke-dasharray:none;stroke-opacity:1" />
    <path
       inkscape:connector-curvature="0"
       style="font-style:normal;font-variant:normal;font-weight:normal;font-stretch:normal;font-size:292.40866089px;line-height:1.25;font-family:'Trebuchet MS';-inkscape-font-specification:'Trebuchet MS';letter-spacing:0px;word-spacing:0px;fill:url(#radialGradient5891);fill-opacity:1;stroke:#8a8484;stroke-width:0.52916664;stroke-miterlimit:4;stroke-dasharray:none;stroke-opacity:1"
       d="m 85.331958,52.235876 c -28.615802,6.148971 -43.3096,22.2154 -44.0798,48.200194 -0.431,14.54138 5.9729,25.91117 19.2115,34.10976 6.463398,3.57199 13.410701,5.80211 20.341901,7.48001 6.528498,0.86269 12.975399,1.52346 19.03,2.86489 21.641101,4.79463 38.637601,14.83083 39.647801,43.5411 0,16.07148 -6.9981,27.62786 -20.9933,34.66955 28.58219,-7.12784 42.87351,-23.72831 42.87351,-49.80152 0,-14.58978 -6.77641,-25.7477 -20.32651,-33.47448 -29.26481,-14.52551 -54.570402,-10.3939 -64.995203,-23.08059 -7.563598,-6.02751 -11.853299,-15.27706 -11.9756,-30.975303 0.432899,-15.809771 7.521901,-26.98752 21.265701,-33.533611 z"
       id="path1105-2-74-5-0-2-9-8-6-2-5-2-8-4-5-7" />
    <path
       inkscape:connector-curvature="0"
       style="font-style:normal;font-variant:normal;font-weight:normal;font-stretch:normal;font-size:292.40866089px;line-height:1.25;font-family:'Trebuchet MS';-inkscape-font-specification:'Trebuchet MS';letter-spacing:0px;word-spacing:0px;fill:url(#linearGradient1507-1-3-81-2-8-0-0-7-2-4);fill-opacity:1;stroke:#8a8484;stroke-width:0.52916664;stroke-miterlimit:4;stroke-dasharray:none;stroke-opacity:1"
       d="m 47.874657,75.583677 c -4.128799,6.91555 -6.336399,15.19959 -6.622499,24.852393 -0.431,14.54138 5.9729,25.91117 19.2115,34.10976 8.747301,4.83417 18.3807,7.21144 27.661199,9.08629 3.4016,0.35342 6.749801,0.7536 10.018101,1.24813 31.637602,4.78708 56.485302,14.80752 57.961902,43.47261 0,5.1132 -1.03929,9.76856 -3.1169,13.96632 5.58331,-7.82287 8.37561,-17.49573 8.37561,-29.01932 0,-14.58978 -6.77641,-25.7477 -20.32651,-33.47448 -17.9303,-8.89966 -34.3744,-10.79552 -46.820301,-13.84685 -29.719703,-5.25445 -48.058702,-13.16355 -48.366202,-40.126583 0.147301,-3.673451 0.822901,-7.09572 2.0241,-10.26827 z"
       id="path1100-4-7-7-0-3-9-4-4-2-0-4-6-2-7-7" />
    <path
       inkscape:connector-curvature="0"
       style="font-style:normal;font-variant:normal;font-weight:normal;font-stretch:normal;font-size:292.40866089px;line-height:1.25;font-family:'Trebuchet MS';-inkscape-font-specification:'Trebuchet MS';letter-spacing:0px;word-spacing:0px;fill:url(#linearGradient1483-2-8-1-5-5-7-1-7-4-8);fill-opacity:1;stroke:#8a8484;stroke-width:0.52916664;stroke-miterlimit:4;stroke-dasharray:none;stroke-opacity:1"
       d="m 93.167757,114.48315 c -0.815038,0.005 -1.791512,0.0283 -8.199599,0.0723 v -0.0578 h -9.75424 c 1.926024,5.54081 10.803583,8.92017 15.572129,11.10553 3.50956,-0.1298 13.609653,-0.20644 13.921613,-0.2125 16.82659,-0.32678 20.44974,2.76298 20.11909,14.56154 3.57527,-5.47549 4.15147,-6.41096 8.56816,-13.51708 -0.034,-5.45252 -3.7736,-10.72092 -15.62386,-11.41832 -6.74989,-0.39724 -15.75903,-0.47738 -23.646832,-0.5312 -0.431028,-0.003 -0.684787,-0.004 -0.956461,-0.002 z m 31.456873,29.57976 c -2.71935,6.08073 -8.97166,5.08582 -18.53078,5.04139 -6.300778,-0.0293 -11.011933,-0.0899 -21.125692,-0.61067 v -5.65346 c -3.096842,-0.75182 -4.682418,-0.95431 -7.505774,-1.65802 -1.996096,-0.49752 -5.331722,-1.54282 -5.499859,-1.65013 l -0.09686,35.63506 6.126877,-0.0278 c 3.47544,-5.92849 3.806389,-9.13561 6.975623,-15.22984 7.557014,-0.23463 11.867904,-0.10907 14.526435,-0.13369 9.3716,-0.0867 23.04843,-0.50347 27.29927,-2.22924 4.59583,-1.86585 8.11294,-5.13676 7.07607,-27.38633 -3.61213,5.84166 -5.64174,8.79128 -9.24531,13.90274 z"
       id="path1398-6-7-4-0-1-0-1-5-4-8-8"
       sodipodi:nodetypes="cccccsccsccccsccscccccscc" />
  </g>
</svg>
