<?xml version="1.0" encoding="UTF-8" standalone="no"?>
<!-- Created with Inkscape (http://www.inkscape.org/) -->

<svg
   xmlns:dc="http://purl.org/dc/elements/1.1/"
   xmlns:cc="http://creativecommons.org/ns#"
   xmlns:rdf="http://www.w3.org/1999/02/22-rdf-syntax-ns#"
   xmlns:svg="http://www.w3.org/2000/svg"
   xmlns="http://www.w3.org/2000/svg"
   xmlns:xlink="http://www.w3.org/1999/xlink"
   xmlns:sodipodi="http://sodipodi.sourceforge.net/DTD/sodipodi-0.dtd"
   xmlns:inkscape="http://www.inkscape.org/namespaces/inkscape"
   width="168.69186mm"
   height="168.69186mm"
   viewBox="0 0 168.69186 168.69186"
   version="1.1"
   id="svg2728"
   inkscape:version="0.92.4 (5da689c313, 2019-01-14)"
   sodipodi:docname="SSPCircuit2.1.svg">
  <defs
     id="defs2722">
    <linearGradient
       inkscape:collect="always"
       id="linearGradient3629">
      <stop
         style="stop-color:#ffffff;stop-opacity:1;"
         offset="0"
         id="stop3625" />
      <stop
         style="stop-color:#ffffff;stop-opacity:0;"
         offset="1"
         id="stop3627" />
    </linearGradient>
    <linearGradient
       id="linearGradient2625"
       inkscape:collect="always">
      <stop
         id="stop2621"
         offset="0"
         style="stop-color:#fbfbfb;stop-opacity:1" />
      <stop
         id="stop2623"
         offset="1"
         style="stop-color:#898989;stop-opacity:0.69411767" />
    </linearGradient>
    <radialGradient
       inkscape:collect="always"
       xlink:href="#linearGradient2625"
       id="radialGradient2643"
       cx="80.571243"
       cy="101.06956"
       fx="80.571243"
       fy="101.06956"
       r="61.002754"
       gradientTransform="matrix(0.55549498,0.87144209,-2.0091573,1.2807241,250.75592,-71.160142)"
       gradientUnits="userSpaceOnUse" />
    <radialGradient
       inkscape:collect="always"
       xlink:href="#linearGradient2625"
       id="radialGradient2651"
       cx="80.571243"
       cy="101.06956"
       fx="80.571243"
       fy="101.06956"
       r="61.002754"
       gradientTransform="matrix(0.55549498,0.87144209,-2.0091573,1.2807241,250.75592,-71.160142)"
       gradientUnits="userSpaceOnUse" />
    <radialGradient
       inkscape:collect="always"
       xlink:href="#linearGradient2625"
       id="radialGradient2659"
       cx="80.571243"
       cy="101.06956"
       fx="80.571243"
       fy="101.06956"
       r="61.002754"
       gradientTransform="matrix(0.55549498,0.87144209,-2.0091573,1.2807241,250.75592,-71.160142)"
       gradientUnits="userSpaceOnUse" />
    <radialGradient
       inkscape:collect="always"
       xlink:href="#linearGradient2625"
       id="radialGradient2667"
       cx="80.571243"
       cy="101.06956"
       fx="80.571243"
       fy="101.06956"
       r="61.002754"
       gradientTransform="matrix(0.55549498,0.87144209,-2.0091573,1.2807241,250.75592,-71.160142)"
       gradientUnits="userSpaceOnUse" />
    <radialGradient
       inkscape:collect="always"
       xlink:href="#linearGradient2625"
       id="radialGradient2675"
       cx="80.571243"
       cy="101.06956"
       fx="80.571243"
       fy="101.06956"
       r="61.002754"
       gradientTransform="matrix(0.55549498,0.87144209,-2.0091573,1.2807241,250.75592,-71.160142)"
       gradientUnits="userSpaceOnUse" />
    <radialGradient
       inkscape:collect="always"
       xlink:href="#linearGradient2625"
       id="radialGradient2683"
       cx="80.571243"
       cy="101.06956"
       fx="80.571243"
       fy="101.06956"
       r="61.002754"
       gradientTransform="matrix(0.55549498,0.87144209,-2.0091573,1.2807241,250.75592,-71.160142)"
       gradientUnits="userSpaceOnUse" />
    <radialGradient
       inkscape:collect="always"
       xlink:href="#linearGradient868"
       id="radialGradient872"
       cx="109.00219"
       cy="158.39474"
       fx="109.00219"
       fy="158.39474"
       r="71.670433"
       gradientTransform="matrix(0.66066991,-0.76145297,0.93387386,0.81026982,-95.203038,88.371834)"
       gradientUnits="userSpaceOnUse" />
    <linearGradient
       inkscape:collect="always"
       id="linearGradient868">
      <stop
         style="stop-color:#7e7e7e;stop-opacity:1;"
         offset="0"
         id="stop864" />
      <stop
         style="stop-color:#7e7e7e;stop-opacity:0;"
         offset="1"
         id="stop866" />
    </linearGradient>
    <linearGradient
       gradientTransform="translate(15.72995,-24.680464)"
       inkscape:collect="always"
       xlink:href="#linearGradient2611"
       id="linearGradient2615"
       x1="48.707249"
       y1="95.672653"
       x2="167.18115"
       y2="223.4709"
       gradientUnits="userSpaceOnUse" />
    <linearGradient
       inkscape:collect="always"
       id="linearGradient2611">
      <stop
         style="stop-color:#f8f8f8;stop-opacity:1"
         offset="0"
         id="stop2607" />
      <stop
         id="stop2617"
         offset="0.31778079"
         style="stop-color:#121212;stop-opacity:1" />
      <stop
         style="stop-color:#464343;stop-opacity:0.79411763"
         offset="0.68187135"
         id="stop2619" />
      <stop
         style="stop-color:#acacac;stop-opacity:0.9852941"
         offset="1"
         id="stop2609" />
    </linearGradient>
    <radialGradient
       inkscape:collect="always"
       xlink:href="#linearGradient3629"
       id="radialGradient3631"
       cx="90.977188"
       cy="89.022034"
       fx="90.977188"
       fy="89.022034"
       r="69.043608"
       gradientTransform="matrix(0.61439074,1.1123299,-1.6553042,0.91430024,194.95244,-89.611887)"
       gradientUnits="userSpaceOnUse" />
    <radialGradient
       inkscape:collect="always"
       xlink:href="#linearGradient3629"
       id="radialGradient3633"
       gradientUnits="userSpaceOnUse"
       gradientTransform="matrix(0.59214895,0.9328997,-1.4717857,0.93420149,180.63874,-75.05948)"
       cx="90.977188"
       cy="89.022034"
       fx="90.977188"
       fy="89.022034"
       r="69.043608" />
  </defs>
  <sodipodi:namedview
     id="base"
     pagecolor="#505050"
     bordercolor="#666666"
     borderopacity="1.0"
     inkscape:pageopacity="1"
     inkscape:pageshadow="2"
     inkscape:zoom="0.35"
     inkscape:cx="-238.42805"
     inkscape:cy="365.11845"
     inkscape:document-units="mm"
     inkscape:current-layer="layer1"
     showgrid="false"
     fit-margin-top="0"
     fit-margin-left="0"
     fit-margin-right="0"
     fit-margin-bottom="0"
     inkscape:window-width="1920"
     inkscape:window-height="1017"
     inkscape:window-x="-8"
     inkscape:window-y="208"
     inkscape:window-maximized="1" />
  <metadata
     id="metadata2725">
    <rdf:RDF>
      <cc:Work
         rdf:about="">
        <dc:format>image/svg+xml</dc:format>
        <dc:type
           rdf:resource="http://purl.org/dc/dcmitype/StillImage" />
        <dc:title></dc:title>
      </cc:Work>
    </rdf:RDF>
  </metadata>
  <g
     inkscape:label="Layer 1"
     inkscape:groupmode="layer"
     id="layer1"
     transform="translate(-40.386215,-49.368356)">
    <path
       style="opacity:1;fill:#020202;fill-opacity:1;stroke:url(#linearGradient2615);stroke-width:3.96875024;stroke-linejoin:round;stroke-miterlimit:2;stroke-dasharray:none;stroke-opacity:1;paint-order:normal"
       d="M 207.0937,133.71428 A 82.361553,82.361553 0 0 1 124.75945,216.07584 82.361553,82.361553 0 0 1 42.370609,133.76891 82.361553,82.361553 0 0 1 124.65022,51.352773 82.361553,82.361553 0 0 1 207.09363,133.60504"
       id="path862"
       inkscape:connector-curvature="0" />
    <path
       id="path10128"
       style="opacity:1;fill:#020202;fill-opacity:1;stroke:url(#radialGradient872);stroke-width:0.76899999;stroke-linejoin:round;stroke-miterlimit:4;stroke-dasharray:none;stroke-opacity:1;paint-order:normal"
       d="m 122.04486,169.90351 c -1.10433,0 -1.56002,0.24508 -2.03708,1.09504 l -0.61444,1.09502 0.7121,1.08675 c 0.50194,0.76604 1.07418,1.08676 1.93942,1.08676 0.86526,0 1.438,-0.32072 1.93993,-1.08676 l 0.71211,-1.08675 -0.61444,-1.09502 c -0.47707,-0.84996 -0.93325,-1.09504 -2.0376,-1.09504 z m 25.37624,-0.12661 c -1.1213,-0.013 -2.20762,0.77293 -2.20762,2.13166 0,2.45575 2.78323,3.31454 4.12171,1.27176 l 0.71211,-1.08675 -0.61185,-1.09502 c -0.46357,-0.82972 -1.24714,-1.21272 -2.01435,-1.22165 z m 38.15322,-12.74649 c -0.27644,-0.008 -0.56899,0.0399 -0.87178,0.15503 -1.72116,0.65437 -2.0706,2.44902 -0.73638,3.78324 1.00025,1.00025 1.5962,1.03896 2.81688,0.18396 1.85931,-1.30233 0.72634,-4.06812 -1.20872,-4.12223 z M 160.12885,72.450033 c -23.70805,0.50608 -47.33668,0.32438 -72.337702,0.376731 -9.625989,6.763054 -21.283418,17.899785 -26.614399,28.386886 -3.05675,6.05874 -5.24105,12.51943 -6.48797,19.19005 l 2.43137,2.44429 3.41943,3.437 v 1.70998 1.70945 l 1.01803,0.66715 c 0.56008,0.36697 1.20371,1.33777 1.42989,2.15697 1.14512,4.14725 -2.92714,7.39646 -6.70244,5.34799 -1.24794,-0.67712 -2.39469,-2.55466 -2.39469,-3.92069 0,-1.05728 0.9519,-2.97866 1.84227,-3.7176 1.2718,-1.05551 0.7795,-2.62588 -1.54357,-4.92011 l -0.20671,-0.20361 c -1.2388,10.09115 -0.32507,20.33027 2.68097,30.04261 1.93929,-0.90411 4.17139,-0.41139 5.63273,1.39268 0.84142,1.03876 0.96787,4.29976 0.20413,5.26894 -0.68634,0.87096 -1.56955,1.47444 -2.53628,1.78232 1.01766,2.22627 2.14826,4.39915 3.38739,6.51019 h 7.768511 20.814237 l 3.41943,3.437 3.41943,3.43752 v 1.59835 c 0,1.18382 0.323281,1.96751 1.246433,3.01893 0.94794,1.07964 1.24696,1.82485 1.24696,3.10937 v 1.68931 l -1.413364,1.41335 -1.41283,1.41283 h -1.74511 -1.745628 l -1.412841,-1.41283 -1.413351,-1.41335 v -1.68931 c 0,-1.28452 0.299011,-2.02973 1.24696,-3.10937 0.685692,-0.78097 1.24695,-1.77505 1.24695,-2.20917 0,-0.43411 -1.08103,-1.8586 -2.40192,-3.1657 L 89.813755,173.8516 H 69.996371 65.651419 c 2.09556,3.08543 4.427862,6.00326 6.975802,8.72712 h 6.42389 l 3.419419,3.437 3.41943,3.43699 v 4.41886 c 2.015284,1.32357 4.095827,2.54502 6.233737,3.65972 0.004,-2.80711 1.76996,-4.54057 4.643131,-4.55424 l 1.941999,-0.01 1.246431,1.24696 1.246962,1.24643 h 7.00577 7.00629 l 2.37607,-2.4014 c 1.30712,-1.3209 2.3766,-2.74589 2.3766,-3.16623 0,-0.42034 -0.56074,-1.40286 -1.24643,-2.18383 -1.70981,-1.94737 -1.72234,-4.17066 -0.0341,-6.06011 l 1.21284,-1.35701 h 2.14561 2.14612 l 1.21284,1.35701 c 0.85501,0.95692 1.21285,1.7907 1.21285,2.8262 0,1.68783 -0.92168,3.70666 -1.85518,4.06486 -0.43635,0.16745 -0.63872,0.8066 -0.63872,2.01641 v 1.77096 l -3.62769,3.64474 -3.62717,3.64422 h -7.95816 -7.95765 l -0.54002,0.65061 c -0.17674,0.21294 -0.416615,0.42627 -0.692983,0.62838 9.930423,3.79456 20.578253,5.34162 31.177933,4.52996 l 1.95285,-1.72134 v -12.3419 -12.34238 l -2.4014,-2.37661 c -1.32089,-1.30711 -2.74302,-2.37659 -3.16053,-2.37659 -0.41753,0 -1.31501,0.46773 -1.99419,1.0392 -2.30265,1.93755 -4.55886,1.87023 -6.62647,-0.19741 -0.8774,-0.87739 -1.19372,-1.59439 -1.19372,-2.70732 0,-3.02851 1.68465,-4.76032 4.64364,-4.77439 l 1.94199,-0.01 1.24644,1.24643 c 0.95338,0.95339 1.62317,1.24695 2.84634,1.24695 h 1.59938 l 3.41943,3.437 3.41943,3.43752 v 14.12989 13.61777 c 6.07269,-0.94487 11.9993,-2.66384 17.63511,-5.11493 h -1.65261 l -3.62769,-3.64474 -3.62768,-3.64474 v -8.19899 c 0,-5.26842 -0.15073,-8.19949 -0.42168,-8.19949 -0.67756,0 -2.06846,-2.59681 -2.07016,-3.86488 -0.003,-2.25286 1.27061,-3.78714 3.81166,-4.59197 1.17019,-0.37066 3.58123,0.52844 4.47931,1.67018 0.5666,0.72031 0.85007,1.69601 0.85007,2.92644 v 1.84588 l -1.24643,1.24695 -1.24695,1.24695 v 7.12463 7.12463 l 2.3766,2.40141 2.3766,2.40192 h 7.68945 0.27905 c 3.84685,-2.28953 7.47165,-4.93304 10.82725,-7.89616 h -0.69505 -7.28793 l -3.41943,-3.43701 -3.41943,-3.43751 v -2.10065 -2.10065 l -1.02681,-0.9648 c -0.56479,-0.53058 -1.23438,-1.59284 -1.48776,-2.36057 l -0.46044,-1.39578 0.76016,-1.55598 c 0.48602,-0.9946 1.32532,-1.83218 2.32648,-2.32131 l 1.56631,-0.76481 1.32498,0.46147 c 3.04466,1.06138 4.30224,3.71708 3.02979,6.39858 -0.38178,0.80453 -0.96051,1.56504 -1.28571,1.68982 -0.36836,0.1413 -0.59118,0.82496 -0.59118,1.81281 v 1.58543 l 2.1947,2.16731 2.19521,2.16782 h 9.80561 0.84077 c 4.85281,-5.07269 8.93718,-10.82824 12.1233,-17.08371 l 0.0429,-0.0847 c 0.80037,-1.59097 1.54141,-3.21111 2.22158,-4.85706 h -0.0796 c -0.45146,0 -0.84439,0.0472 -1.21645,0.15658 -0.60359,0.17751 -1.89066,1.82908 -3.11158,2.11884 -1.58564,0.37632 -3.56401,0.36282 -4.84669,-0.64248 -1.32646,-1.0396 -2.14217,-3.04961 -1.84282,-4.70812 0.28403,-1.57363 1.6773,-3.08533 3.19984,-3.57403 1.40836,-0.45204 2.99474,0.33154 4.33094,0.96581 1.06241,0.50428 1.7512,2.22505 2.77202,2.18239 1.10267,-0.0461 1.00652,-0.34065 1.6702,-0.8661 0.46676,-0.36952 0.51488,-1.11132 1.00711,-1.60975 l 0.71163,-1.83829 c 0.7452,-2.4776 1.16911,-3.87105 1.6433,-6.41447 v -26.74172 c -1.79613,-9.52467 -5.49799,-18.5883 -10.8835,-26.646951 l -0.21498,0.21394 -0.99941,0.994259 -2.43811,2.425171 h -7.48584 c -8.73124,-0.460222 -8.42098,-0.49919 -29.62663,-0.49919 h -17.80563 l -0.79169,0.888828 c -0.733,0.822651 -3.03902,2.041642 -3.79098,2.004013 -0.17877,-0.008 -0.91876,-0.274532 -1.64435,-0.590143 -3.01799,-1.312759 -3.74744,-5.116089 -1.42626,-7.437268 l 1.30689,-1.306901 h 1.83917 1.83917 l 1.39319,1.350819 1.39371,1.350823 h 15.66831 c 17.80468,0.0925 19.87589,-0.01691 30.19298,0.0832 h 7.2688 l 1.69035,-1.67276 0.71157,-0.703839 0.46664,-0.461981 c -1.38941,-1.838031 -2.86631,-3.608271 -4.42556,-5.304589 -0.23146,0.538589 -0.53761,1.004798 -0.90124,1.391648 -1.65059,1.755992 -4.45618,1.90677 -6.5443,0.0734 l -1.42007,-1.246438 H 117.92522 80.48565 l -2.401919,2.37609 -2.401401,2.376588 v 0.55449 l 1.199409,1.131721 c 1.4834,1.400101 1.88739,2.886501 1.2826,4.71909 -0.635879,1.926751 -2.22023,3.081462 -4.22764,3.081462 -2.070489,0 -3.07825,-0.543931 -4.093289,-2.208652 -0.444061,-0.72825 -0.806421,-1.69776 -0.806162,-2.15491 0.0011,-1.133311 1.094071,-3.142541 2.087732,-3.838519 l 0.81701,-0.572061 v -2.747121 l 3.41943,-3.436998 3.419419,-3.437001 h 38.644151 52.66914 l 0.41445,-0.774621 c 0.0505,-0.0944 0.12652,-0.196369 0.22221,-0.301278 0.31593,-0.34639 0.84287,-0.717492 1.35185,-0.94619 -2.86827,-2.467182 -5.92666,-4.704305 -9.14673,-6.690555 z M 125.24054,61.793324 a 71.955676,71.955676 0 0 0 -1.1064,0.05736 c -1.22185,0.692788 -2.47416,0.759066 -3.74809,0.19327 a 71.955676,71.955676 0 0 0 -24.756624,6.250264 h 0.0465 l 58.137534,-0.05839 c 0.45008,-0.0027 0.74927,-0.0069 1.18029,-0.0098 a 71.955676,71.955676 0 0 0 -29.75321,-6.432704 z"
       inkscape:connector-curvature="0" />
    <g
       id="g3579"
       style="stroke:url(#radialGradient3631);stroke-width:2.11666667;stroke-miterlimit:4;stroke-dasharray:none;stroke-opacity:1"
       transform="translate(1.5119057)">
      <path
         inkscape:connector-curvature="0"
         id="path10142"
         d="m 171.49708,103.26896 c 0.72129,0.0244 1.43888,0.21687 2.10116,0.58394 1.34341,0.74459 2.0912,2.21129 2.10892,4.1367 l 0.015,1.60042 -1.41334,1.41283 -1.41284,1.41283 h -1.6893 c -1.28454,0 -2.02971,-0.29849 -3.10937,-1.24643 -0.18479,-0.16225 -0.52425,-1.27857 -1.39785,-1.30225 -3.15604,-0.0855 -8.24587,0.0553 -8.57777,0.0553 -0.43476,0 -1.76631,0.98752 -2.95848,2.1947 l -2.16731,2.19521 v 15.94114 23.35052 l 0.62374,0.23926 c 0.3432,0.13169 0.92901,0.87929 1.30173,1.66088 1.51531,3.17761 -0.67007,6.50038 -4.27519,6.50038 h -1.87017 l -1.21492,-1.21491 -1.21439,-1.2144 v -1.88774 -1.88774 l 1.24643,-1.42007 1.24696,-1.41955 v -23.88226 -16.47238 l 3.437,-3.41943 3.43751,-3.41943 h 1.59835 c 0.87136,0 6.10755,0.0115 9.31313,-0.0749 1.06128,-0.0286 1.19374,-0.92838 1.47123,-1.17202 0.98519,-0.86501 2.19765,-1.29126 3.39979,-1.25057 z"
         style="opacity:1;fill:#1b1b1b;fill-opacity:1;stroke:url(#radialGradient3631);stroke-width:2.11666667;stroke-linejoin:round;stroke-miterlimit:4;stroke-dasharray:none;stroke-opacity:1;paint-order:normal" />
      <path
         sodipodi:nodetypes="scccccccccccccccscccccccccccs"
         inkscape:connector-curvature="0"
         id="path10138"
         d="m 184.89108,111.32476 h 1.87019 l 1.21491,1.21491 1.21438,1.2144 v 1.88774 1.88774 l -1.24642,1.42007 -1.24696,1.41955 v 0 8.05791 l -3.43699,3.41943 -3.43752,3.41942 h -8.12612 -5.18667 l -0.96997,1.0325 c -3.39312,3.61182 -9.3663,-0.39475 -7.49463,-5.02708 0.635,-1.57162 2.45834,-2.65462 4.46897,-2.65462 h 1.85467 l 1.16479,1.24643 1.16479,1.24696 h 4.28388 7.22385 l 2.16783,-2.1947 2.16731,-2.19521 v -7.52668 0.53175 l -0.62373,-0.23926 c -0.34319,-0.13168 -0.92902,-0.87928 -1.30174,-1.66088 -1.51531,-3.17762 0.67007,-6.50038 4.27518,-6.50038 z"
         style="opacity:1;fill:#1b1b1b;fill-opacity:1;stroke:url(#radialGradient3631);stroke-width:2.11666667;stroke-linejoin:round;stroke-miterlimit:4;stroke-dasharray:none;stroke-opacity:1;paint-order:normal" />
      <path
         sodipodi:nodetypes="cccccccccccssccccccccccccccc"
         inkscape:connector-curvature="0"
         id="path10134"
         d="m 88.419176,128.65138 2.248143,-0.0945 1.669926,0.66341 1.066962,0.71369 c 1.908724,1.82721 5.081148,5.00829 6.828273,7.29744 0.0827,3.76344 0.0677,13.95272 0.19814,16.76968 l -3.436998,3.41943 -3.437514,3.41943 h -8.126121 -8.126635 l -0.969965,1.03249 c -3.39312,3.61182 -9.366821,-0.39475 -7.495151,-5.02708 0.635,-1.57161 2.45835,-2.65462 4.468979,-2.65462 h 1.855182 l 1.164788,1.24644 1.164786,1.24695 h 7.22385 7.223847 l 2.167826,-2.19521 2.167311,-2.1947 -0.188988,-13.309 -2.722225,-3.09622 c -0.706705,0.34725 -1.80436,1.53383 -1.80436,1.53383 l -2.749457,0.29051 -2.041147,-0.90123 c -0.343199,-0.13169 -0.929007,-0.87876 -1.301728,-1.66037 -1.515309,-3.17761 0.38659,-5.64993 2.952276,-6.50038 z"
         style="opacity:1;fill:#1b1b1b;fill-opacity:1;stroke:url(#radialGradient3631);stroke-width:2.11666667;stroke-linejoin:round;stroke-miterlimit:4;stroke-dasharray:none;stroke-opacity:1;paint-order:normal" />
      <path
         sodipodi:nodetypes="cccccccccccssccccccccccccccc"
         inkscape:connector-curvature="0"
         id="path10134-5"
         d="m 129.20341,128.37634 2.24814,-0.0945 1.66992,0.66341 1.06697,0.71369 c 1.90872,1.82721 5.08115,5.00829 6.82827,7.29744 0.0827,3.76344 0.0677,13.95272 0.19814,16.76968 l -3.437,3.41943 -3.43751,3.41943 h -8.12612 -8.12664 l -0.96996,1.03249 c -3.39312,3.61182 -9.36683,-0.39475 -7.49516,-5.02708 0.635,-1.57161 2.45835,-2.65462 4.46898,-2.65462 h 1.85519 l 1.16478,1.24644 1.16479,1.24695 h 7.22385 7.22385 l 2.16782,-2.19521 2.16731,-2.1947 -0.18898,-13.309 -2.72223,-3.09622 c -0.7067,0.34725 -1.80436,1.53383 -1.80436,1.53383 l -2.74946,0.29051 -2.04114,-0.90123 c -0.3432,-0.13169 -0.92901,-0.87876 -1.30173,-1.66037 -1.51531,-3.17761 0.38659,-5.64993 2.95228,-6.50038 z"
         style="opacity:1;fill:#1b1b1b;fill-opacity:1;stroke:url(#radialGradient3631);stroke-width:2.11666667;stroke-linejoin:round;stroke-miterlimit:4;stroke-dasharray:none;stroke-opacity:1;paint-order:normal" />
      <path
         sodipodi:nodetypes="cccccccccccssccccccccccccccc"
         inkscape:connector-curvature="0"
         id="path10134-56"
         d="m 78.114767,137.2421 -2.24814,0.0945 -1.66993,-0.66341 -1.066957,-0.71369 c -1.90872,-1.82721 -5.08115,-5.00829 -6.82827,-7.29743 -0.0827,-3.76344 -0.0677,-13.95272 -0.19814,-16.76968 l 3.437,-3.41943 3.43751,-3.41943 h 8.126117 8.12664 l 0.96996,-1.03249 c 3.39312,-3.61182 9.36682,0.39475 7.49515,5.02708 -0.635,1.57161 -2.45835,2.65462 -4.46898,2.65462 h -1.85518 l -1.16479,-1.24644 -1.16478,-1.24695 h -7.22385 -7.22385 l -2.167827,2.19521 -2.16731,2.1947 0.18899,13.309 2.72223,3.09621 c 0.706697,-0.34725 1.804357,-1.53382 1.804357,-1.53382 l 2.74945,-0.29051 2.04115,0.90122 c 0.3432,0.13169 0.92901,0.87876 1.30173,1.66037 1.51531,3.17761 -0.38659,5.64993 -2.95228,6.50038 z"
         style="opacity:1;fill:#1b1b1b;fill-opacity:1;stroke:url(#radialGradient3631);stroke-width:2.11666667;stroke-linejoin:round;stroke-miterlimit:4;stroke-dasharray:none;stroke-opacity:1;paint-order:normal" />
      <path
         sodipodi:nodetypes="cccccccccccssccccccccccccccc"
         inkscape:connector-curvature="0"
         id="path10134-56-2"
         d="m 119.28065,137.22614 -2.24814,0.0945 -1.66993,-0.66341 -1.06696,-0.71369 c -1.90872,-1.82721 -5.08115,-5.00829 -6.82827,-7.29743 -0.0827,-3.76344 -0.0677,-13.95272 -0.19814,-16.76968 l 3.437,-3.41943 3.43751,-3.41943 h 8.12612 8.12664 l 0.96996,-1.03249 c 3.39312,-3.61182 9.36682,0.39475 7.49515,5.02708 -0.635,1.57161 -2.45835,2.65462 -4.46898,2.65462 h -1.85518 l -1.16479,-1.24644 -1.16478,-1.24695 h -7.22385 -7.22385 l -2.16783,2.19521 -2.16731,2.1947 0.18899,13.309 2.72223,3.09621 c 0.7067,-0.34725 1.80436,-1.53382 1.80436,-1.53382 l 2.74945,-0.29051 2.04115,0.90122 c 0.3432,0.13169 0.92901,0.87876 1.30173,1.66037 1.51531,3.17761 -0.38659,5.64993 -2.95228,6.50038 z"
         style="opacity:1;fill:#1b1b1b;fill-opacity:1;stroke:url(#radialGradient3633);stroke-width:2.11666667;stroke-linejoin:round;stroke-miterlimit:4;stroke-dasharray:none;stroke-opacity:1;paint-order:normal" />
    </g>
  </g>
</svg>
