<?xml version="1.0" encoding="UTF-8" standalone="no"?>
<!-- Created with Inkscape (http://www.inkscape.org/) -->

<svg
   xmlns:dc="http://purl.org/dc/elements/1.1/"
   xmlns:cc="http://creativecommons.org/ns#"
   xmlns:rdf="http://www.w3.org/1999/02/22-rdf-syntax-ns#"
   xmlns:svg="http://www.w3.org/2000/svg"
   xmlns="http://www.w3.org/2000/svg"
   xmlns:xlink="http://www.w3.org/1999/xlink"
   xmlns:sodipodi="http://sodipodi.sourceforge.net/DTD/sodipodi-0.dtd"
   xmlns:inkscape="http://www.inkscape.org/namespaces/inkscape"
   width="120.66108mm"
   height="178.27701mm"
   viewBox="0 0 120.66108 178.27701"
   version="1.1"
   id="svg984"
   inkscape:version="0.92.4 (5da689c313, 2019-01-14)"
   sodipodi:docname="SSPLogoV2.4.svg">
  <defs
     id="defs978">
    <linearGradient
       gradientTransform="matrix(0.10595624,0,0,0.11598324,-1590.512,112.31493)"
       inkscape:collect="always"
       xlink:href="#linearGradient2574"
       id="linearGradient1483-2-8-1-5-5-7-1-7-4-8-8"
       x1="15768"
       y1="488.51968"
       x2="16294.004"
       y2="30.640341"
       gradientUnits="userSpaceOnUse" />
    <linearGradient
       inkscape:collect="always"
       id="linearGradient2574">
      <stop
         style="stop-color:#ffffff;stop-opacity:1"
         offset="0"
         id="stop2570" />
      <stop
         style="stop-color:#9daaba;stop-opacity:1"
         offset="1"
         id="stop2572" />
    </linearGradient>
    <linearGradient
       gradientTransform="matrix(0.51516893,0,0,0.56392098,-2093.92,145.87144)"
       inkscape:collect="always"
       xlink:href="#linearGradient2568"
       id="linearGradient1507-1-3-81-2-8-0-0-7-2-4-6"
       x1="4438.6924"
       y1="-10.653473"
       x2="4276.3301"
       y2="-50.784817"
       gradientUnits="userSpaceOnUse" />
    <linearGradient
       inkscape:collect="always"
       id="linearGradient2568">
      <stop
         style="stop-color:#000000;stop-opacity:1"
         offset="0"
         id="stop2564" />
      <stop
         style="stop-color:#5e9cf9;stop-opacity:0.98823529"
         offset="1"
         id="stop2566" />
    </linearGradient>
    <radialGradient
       inkscape:collect="always"
       xlink:href="#linearGradient3982"
       id="radialGradient5891-6"
       cx="121.39886"
       cy="215.80211"
       fx="121.39886"
       fy="215.80211"
       r="60.330433"
       gradientTransform="matrix(1.2749762,-1.3624929,1.4807239,1.3856129,-322.75545,33.53668)"
       gradientUnits="userSpaceOnUse" />
    <linearGradient
       inkscape:collect="always"
       id="linearGradient3982">
      <stop
         style="stop-color:#000000;stop-opacity:1"
         offset="0"
         id="stop3978" />
      <stop
         style="stop-color:#a8a8a8;stop-opacity:1"
         offset="1"
         id="stop3980" />
    </linearGradient>
    <radialGradient
       inkscape:collect="always"
       xlink:href="#linearGradient3656"
       id="radialGradient5893-5"
       cx="86.315742"
       cy="195.16467"
       fx="86.315742"
       fy="195.16467"
       r="60.330482"
       gradientTransform="matrix(2.2339674,1.0918023,-0.8304976,1.6993045,75.468487,-298.2173)"
       gradientUnits="userSpaceOnUse" />
    <linearGradient
       id="linearGradient3656"
       inkscape:collect="always">
      <stop
         id="stop3652"
         offset="0"
         style="stop-color:#000000;stop-opacity:1;" />
      <stop
         id="stop3654"
         offset="1"
         style="stop-color:#939393;stop-opacity:1" />
    </linearGradient>
    <linearGradient
       gradientTransform="matrix(-0.51037667,0.07010464,-0.07673886,-0.55867524,2261.8661,-166.89409)"
       inkscape:collect="always"
       xlink:href="#linearGradient2568"
       id="linearGradient1491-8-5-5-0-0-2-7-3-2-5-5-3"
       x1="4108.4053"
       y1="-78.807915"
       x2="4495.46"
       y2="-128.91109"
       gradientUnits="userSpaceOnUse" />
    <linearGradient
       gradientTransform="matrix(0.51037667,-0.07010464,0.07673886,0.55867524,-2048.908,431.39722)"
       inkscape:collect="always"
       xlink:href="#linearGradient2568"
       id="linearGradient1491-8-5-5-0-0-2-7-3-2-6-6"
       x1="4144.7954"
       y1="-82.776527"
       x2="4429.751"
       y2="-148.6944"
       gradientUnits="userSpaceOnUse" />
  </defs>
  <sodipodi:namedview
     id="base"
     pagecolor="#ffffff"
     bordercolor="#666666"
     borderopacity="1.0"
     inkscape:pageopacity="0.0"
     inkscape:pageshadow="2"
     inkscape:zoom="0.35"
     inkscape:cx="-239.12191"
     inkscape:cy="279.75859"
     inkscape:document-units="px"
     inkscape:current-layer="layer1"
     showgrid="false"
     fit-margin-top="0"
     fit-margin-left="0"
     fit-margin-right="0"
     fit-margin-bottom="0"
     inkscape:window-width="1920"
     inkscape:window-height="1017"
     inkscape:window-x="-8"
     inkscape:window-y="208"
     inkscape:window-maximized="1" />
  <metadata
     id="metadata981">
    <rdf:RDF>
      <cc:Work
         rdf:about="">
        <dc:format>image/svg+xml</dc:format>
        <dc:type
           rdf:resource="http://purl.org/dc/dcmitype/StillImage" />
        <dc:title></dc:title>
      </cc:Work>
    </rdf:RDF>
  </metadata>
  <g
     inkscape:label="Layer 1"
     inkscape:groupmode="layer"
     id="layer1"
     transform="translate(-46.258744,-44.575779)">
    <path
       inkscape:connector-curvature="0"
       style="font-style:normal;font-variant:normal;font-weight:normal;font-stretch:normal;font-size:292.40866089px;line-height:1.25;font-family:'Trebuchet MS';-inkscape-font-specification:'Trebuchet MS';letter-spacing:0px;word-spacing:0px;fill:url(#linearGradient1491-8-5-5-0-0-2-7-3-2-6-6);fill-opacity:1;stroke:#8a8484;stroke-width:0.52916664;stroke-miterlimit:4;stroke-dasharray:none;stroke-opacity:1"
       d="m 89.22471,59.631922 c -6.66581,5.09677 -11.083881,13.870142 -12.681681,21.860169 -0.627769,3.560601 -0.269071,9.206461 -0.2633,14.867046 3.447161,-22.432655 19.489981,-28.062905 45.798041,-27.782625 10.30571,0.1098 18.91485,6.178086 26.75301,1.87919 5.99694,-3.289065 9.78966,-18.033128 9.78966,-18.033128 -6.11473,-0.388432 -9.90541,-0.51736 -17.87651,-0.74479 -7.79525,0.227548 -17.59166,0.180368 -26.3558,0.75101 -9.30738,0.606008 -19.17717,2.625958 -25.16342,7.203128 z"
       id="path1409-8-6-2-8-6-1-9-3-50-1-3-3"
       sodipodi:nodetypes="sccsaccss" />
    <path
       inkscape:connector-curvature="0"
       style="font-style:normal;font-variant:normal;font-weight:normal;font-stretch:normal;font-size:292.40866089px;line-height:1.25;font-family:'Trebuchet MS';-inkscape-font-specification:'Trebuchet MS';letter-spacing:0px;word-spacing:0px;fill:url(#linearGradient1491-8-5-5-0-0-2-7-3-2-5-5-3);fill-opacity:1;stroke:#8a8484;stroke-width:0.52916664;stroke-miterlimit:4;stroke-dasharray:none;stroke-opacity:1"
       d="m 123.73369,204.87121 c 6.66581,-5.09678 11.08388,-13.87016 12.68168,-21.86018 0.62778,-3.5606 0.26908,-9.20646 0.2633,-14.86705 -3.44716,18.46391 -20.87327,26.99281 -42.39624,27.78263 -10.29311,0.52128 -22.04356,-5.76771 -30.948561,-0.55627 -5.459709,3.19515 -8.99591,16.71021 -8.99591,16.71021 6.114741,0.38844 9.905421,0.51735 17.876521,0.7448 7.795239,-0.22755 17.59165,-0.18038 26.35579,-0.75102 9.30738,-0.60601 19.17717,-2.62595 25.16342,-7.20312 z"
       id="path1409-8-6-2-8-6-1-9-3-50-1-9-0-9"
       sodipodi:nodetypes="scccaccss" />
    <path
       sodipodi:nodetypes="sscczacssccsacss"
       inkscape:connector-curvature="0"
       id="path2723-6-9-3"
       d="m 121.86383,44.841262 c -49.20011,-0.14342 -74.306911,16.87622 -75.320211,51.058974 -0.431,14.541374 5.973,25.911174 19.211601,34.109754 29.784,16.46017 69.8473,4.44615 71.2409,41.0419 -0.23196,21.31582 -23.71977,29.58683 -36.54977,30.79051 -12.83,1.20367 -21.451491,-4.10003 -30.11933,0.97654 -6.327331,3.70578 -11.377101,18.82744 -11.377101,18.82744 9.841801,0.64103 23.4371,0.94183 26.502801,0.94183 54.1347,0 81.20242,-17.94143 81.20242,-53.8242 0,-14.58976 -6.77621,-25.74768 -20.32631,-33.47448 -38.2773,-18.99892 -69.782909,-6.07822 -70.074109,-40.623147 0.630499,-21.271481 8.789409,-31.129801 44.456309,-31.548451 7.5219,-0.0883 15.42722,4.743221 21.74491,1.1688 5.97173,-3.378682 9.63898,-18.187448 9.63898,-18.187448 -9.8177,-0.990032 -19.7332,-1.003492 -22.79729,-1.112312 -2.53631,-0.0901 -5.014,-0.13866 -7.4338,-0.14571 z"
       style="font-style:normal;font-variant:normal;font-weight:normal;font-stretch:normal;font-size:292.40866089px;line-height:1.25;font-family:'Trebuchet MS';-inkscape-font-specification:'Trebuchet MS';letter-spacing:0px;word-spacing:0px;fill:url(#radialGradient5893-5);fill-opacity:1;stroke:#8a8484;stroke-width:0.52916664;stroke-miterlimit:4;stroke-dasharray:none;stroke-opacity:1" />
    <path
       inkscape:connector-curvature="0"
       style="font-style:normal;font-variant:normal;font-weight:normal;font-stretch:normal;font-size:292.40866089px;line-height:1.25;font-family:'Trebuchet MS';-inkscape-font-specification:'Trebuchet MS';letter-spacing:0px;word-spacing:0px;fill:url(#radialGradient5891-6);fill-opacity:1;stroke:#8a8484;stroke-width:0.52916664;stroke-miterlimit:4;stroke-dasharray:none;stroke-opacity:1"
       d="m 90.62362,47.700162 c -28.6158,6.148973 -43.309601,22.2154 -44.079801,48.200196 -0.431,14.541372 5.9729,25.911172 19.211501,34.109762 6.4634,3.57199 13.410701,5.80211 20.3419,7.48001 6.5285,0.86269 12.9754,1.52346 19.03,2.86489 21.6411,4.79463 38.6376,14.83083 39.64781,43.5411 0,16.07148 -6.9981,27.62786 -20.99331,34.66955 28.5822,-7.12784 42.87352,-23.72831 42.87352,-49.80152 0,-14.58979 -6.77641,-25.7477 -20.32651,-33.47448 C 117.06391,120.76416 91.75832,124.89577 81.333519,112.20908 73.769921,106.18156 69.48022,96.932016 69.35792,81.233773 c 0.4329,-15.809771 7.5219,-26.987518 21.2657,-33.533611 z"
       id="path1105-2-74-5-0-2-9-8-6-2-5-2-8-4-5-7-9" />
    <path
       inkscape:connector-curvature="0"
       style="font-style:normal;font-variant:normal;font-weight:normal;font-stretch:normal;font-size:292.40866089px;line-height:1.25;font-family:'Trebuchet MS';-inkscape-font-specification:'Trebuchet MS';letter-spacing:0px;word-spacing:0px;fill:url(#linearGradient1507-1-3-81-2-8-0-0-7-2-4-6);fill-opacity:1;stroke:#8a8484;stroke-width:0.52916664;stroke-miterlimit:4;stroke-dasharray:none;stroke-opacity:1"
       d="m 53.16632,71.047963 c -4.128801,6.91555 -6.336401,15.19959 -6.622501,24.852395 -0.431,14.541372 5.9729,25.911172 19.211501,34.109762 8.747301,4.83417 18.3807,7.21144 27.6612,9.08629 3.4016,0.35342 6.7498,0.7536 10.0181,1.24813 31.63761,4.78708 56.48531,14.80752 57.96191,43.47261 0,5.1132 -1.03929,9.76856 -3.1169,13.96632 5.58331,-7.82287 8.37561,-17.49573 8.37561,-29.01932 0,-14.58979 -6.77641,-25.7477 -20.32651,-33.47448 -17.9303,-8.89966 -34.3744,-10.79552 -46.82031,-13.84685 -29.7197,-5.25445 -48.058701,-13.16356 -48.366201,-40.126587 0.1473,-3.673451 0.8229,-7.09572 2.024101,-10.26827 z"
       id="path1100-4-7-7-0-3-9-4-4-2-0-4-6-2-7-7-5" />
    <path
       inkscape:connector-curvature="0"
       style="font-style:normal;font-variant:normal;font-weight:normal;font-stretch:normal;font-size:292.40866089px;line-height:1.25;font-family:'Trebuchet MS';-inkscape-font-specification:'Trebuchet MS';letter-spacing:0px;word-spacing:0px;fill:url(#linearGradient1483-2-8-1-5-5-7-1-7-4-8-8);fill-opacity:1;stroke:#8a8484;stroke-width:0.52916664;stroke-miterlimit:4;stroke-dasharray:none;stroke-opacity:1"
       d="m 98.45942,109.94743 c -0.81504,0.005 -1.79151,0.0283 -8.1996,0.0723 v -0.0578 h -9.75424 c 1.926029,5.54082 10.80359,8.92018 15.57213,11.10554 3.50956,-0.1298 13.60965,-0.20644 13.92161,-0.2125 16.82659,-0.32678 20.44975,2.76298 20.1191,14.56154 3.57527,-5.47549 4.15146,-6.41096 8.56815,-13.51708 -0.034,-5.45252 -3.77359,-10.72093 -15.62386,-11.41833 -6.74989,-0.39724 -15.75902,-0.47738 -23.64683,-0.53119 -0.43103,-0.003 -0.68478,-0.004 -0.95646,-0.002 z m 31.45687,29.57977 c -2.71935,6.08073 -8.97166,5.08582 -18.53078,5.04139 -6.30077,-0.0293 -11.01193,-0.0899 -21.12569,-0.61067 v -5.65346 c -3.09684,-0.75182 -4.68242,-0.95431 -7.505771,-1.65802 -1.996099,-0.49752 -5.33172,-1.54282 -5.49986,-1.65013 l -0.0969,35.63506 6.126883,-0.0278 c 3.475438,-5.92849 3.806388,-9.13561 6.975618,-15.22984 7.55702,-0.23463 11.86791,-0.10908 14.52644,-0.1337 9.3716,-0.0867 23.04843,-0.50347 27.29927,-2.22923 4.59583,-1.86585 8.11294,-5.13677 7.07607,-27.38633 -3.61213,5.84166 -5.64174,8.79128 -9.24531,13.90274 z"
       id="path1398-6-7-4-0-1-0-1-5-4-8-8-4"
       sodipodi:nodetypes="cccccsccsccccsccscccccscc" />
  </g>
</svg>
