<?xml version="1.0" encoding="UTF-8" standalone="no"?>
<!-- Created with Inkscape (http://www.inkscape.org/) -->

<svg
   xmlns:dc="http://purl.org/dc/elements/1.1/"
   xmlns:cc="http://creativecommons.org/ns#"
   xmlns:rdf="http://www.w3.org/1999/02/22-rdf-syntax-ns#"
   xmlns:svg="http://www.w3.org/2000/svg"
   xmlns="http://www.w3.org/2000/svg"
   xmlns:xlink="http://www.w3.org/1999/xlink"
   xmlns:sodipodi="http://sodipodi.sourceforge.net/DTD/sodipodi-0.dtd"
   xmlns:inkscape="http://www.inkscape.org/namespaces/inkscape"
   width="181.53174mm"
   height="249.60707mm"
   viewBox="0 0 181.53174 249.60707"
   version="1.1"
   id="svg959"
   inkscape:version="0.92.4 (5da689c313, 2019-01-14)"
   sodipodi:docname="SSPLogo8.svg">
  <defs
     id="defs953">
    <linearGradient
       inkscape:collect="always"
       xlink:href="#linearGradient1963"
       id="linearGradient1064-5"
       gradientUnits="userSpaceOnUse"
       gradientTransform="matrix(1.5111051,0,0,1.4514943,-1897.0557,-1192.8117)"
       x1="1366.6802"
       y1="999.20245"
       x2="1338.6169"
       y2="935.96655" />
    <linearGradient
       id="linearGradient1963"
       inkscape:collect="always">
      <stop
         id="stop1959"
         offset="0"
         style="stop-color:#c0c0c0;stop-opacity:1" />
      <stop
         id="stop1961"
         offset="1"
         style="stop-color:#000000;stop-opacity:1" />
    </linearGradient>
    <linearGradient
       inkscape:collect="always"
       xlink:href="#linearGradient1963"
       id="linearGradient1062-1"
       gradientUnits="userSpaceOnUse"
       gradientTransform="matrix(1.5111051,0,0,1.4514943,-1897.0557,-1192.8117)"
       x1="1294.3416"
       y1="855.79999"
       x2="1273.6765"
       y2="910.34076" />
    <linearGradient
       inkscape:collect="always"
       xlink:href="#linearGradient1969"
       id="linearGradient1060-8"
       gradientUnits="userSpaceOnUse"
       gradientTransform="matrix(0.77847438,0,0,0.81852809,-3222.3904,159.72159)"
       x1="4381.6245"
       y1="39.585072"
       x2="4094.3416"
       y2="-75.582787" />
    <linearGradient
       id="linearGradient1969"
       inkscape:collect="always">
      <stop
         id="stop1965"
         offset="0"
         style="stop-color:#003aae;stop-opacity:1" />
      <stop
         id="stop1967"
         offset="1"
         style="stop-color:#2eacff;stop-opacity:0.98823529" />
    </linearGradient>
    <radialGradient
       inkscape:collect="always"
       xlink:href="#linearGradient8057"
       id="radialGradient8059-0-8"
       cx="88.588829"
       cy="197.95782"
       fx="88.588829"
       fy="197.95782"
       r="53.801373"
       gradientTransform="matrix(2.182314,-1.9870843,7.6427004,7.7444223,-1604.3782,-1212.8386)"
       gradientUnits="userSpaceOnUse" />
    <linearGradient
       inkscape:collect="always"
       id="linearGradient8057">
      <stop
         style="stop-color:#030406;stop-opacity:1;"
         offset="0"
         id="stop8053" />
      <stop
         style="stop-color:#a7a7a7;stop-opacity:0.22745098"
         offset="1"
         id="stop8055" />
    </linearGradient>
    <radialGradient
       inkscape:collect="always"
       xlink:href="#linearGradient6615"
       id="radialGradient6617-2-3-4"
       cx="8340.1279"
       cy="3591.0989"
       fx="8340.1279"
       fy="3591.0989"
       r="203.34364"
       gradientTransform="matrix(0.73610866,0.52048875,-1.2321962,1.607873,-1713.9723,-9923.1544)"
       gradientUnits="userSpaceOnUse" />
    <linearGradient
       inkscape:collect="always"
       id="linearGradient6615">
      <stop
         style="stop-color:#f6f6f6;stop-opacity:1"
         offset="0"
         id="stop6611" />
      <stop
         style="stop-color:#7e7e7e;stop-opacity:1"
         offset="1"
         id="stop6613" />
    </linearGradient>
    <style
       id="style19" />
  </defs>
  <sodipodi:namedview
     id="base"
     pagecolor="#ffffff"
     bordercolor="#666666"
     borderopacity="1.0"
     inkscape:pageopacity="0.0"
     inkscape:pageshadow="2"
     inkscape:zoom="0.35"
     inkscape:cx="-574.09075"
     inkscape:cy="445.98413"
     inkscape:document-units="mm"
     inkscape:current-layer="layer1"
     showgrid="false"
     inkscape:window-width="1920"
     inkscape:window-height="1017"
     inkscape:window-x="-8"
     inkscape:window-y="208"
     inkscape:window-maximized="1"
     fit-margin-top="0"
     fit-margin-left="0"
     fit-margin-right="0"
     fit-margin-bottom="0" />
  <metadata
     id="metadata956">
    <rdf:RDF>
      <cc:Work
         rdf:about="">
        <dc:format>image/svg+xml</dc:format>
        <dc:type
           rdf:resource="http://purl.org/dc/dcmitype/StillImage" />
        <dc:title></dc:title>
      </cc:Work>
    </rdf:RDF>
  </metadata>
  <g
     inkscape:label="Layer 1"
     inkscape:groupmode="layer"
     id="layer1"
     transform="translate(-12.043654,-17.226226)">
    <path
       inkscape:export-ydpi="96"
       inkscape:export-xdpi="96"
       inkscape:export-filename="C:\Users\CubeRyzen\Pictures\SSP11.png"
       sodipodi:nodetypes="ccscsccccccccccscccccccccsscccccccccc"
       inkscape:connector-curvature="0"
       id="path915"
       d="m 147.5155,22.418026 c -10.84338,-0.004 -23.38148,0.171709 -32.12085,0.519549 -41.312824,2.415381 -76.854933,21.882682 -79.768644,53.718872 -1.732789,18.934311 3.242069,35.041283 27.403581,50.583083 6.75268,4.78738 16.99903,9.22062 22.43871,11.39655 6.363419,2.54531 22.573343,10.0484 10.364361,6.10341 -12.859501,-2.61272 -17.791742,-2.90881 -33.125071,-3.00943 -0.64978,-0.004 -0.550051,-0.004 -0.482661,-0.004 0.76264,0.009 2.30111,0.055 -9.399529,0.13125 v -0.10678 H 21.949146 l -0.28179,98.47425 31.985861,-35.36399 c -0.14202,-0.13031 -0.286912,-0.26203 -0.42795,-0.39187 l -0.39986,-40.48412 c 48.020533,-1.02201 71.000953,3.07366 81.733733,9.57707 23.89932,14.48159 19.08498,45.75694 -17.44342,51.19676 -29.295532,3.7467 -49.852014,-8.53704 -58.265843,-15.3549 l -37.334121,42.00681 -0.0574,14.51484 c 12.13009,-0.26767 22.631369,0.15807 31.478282,0.0282 0.534178,-11.11368 0.474948,-5.07726 0.570899,-13.97258 13.774489,0.0188 33.812491,0.17312 44.255129,-0.16371 23.010264,-0.34012 44.182314,-6.67513 55.078184,-13.74758 21.4332,-10.92565 25.77879,-34.79835 23.21024,-49.84958 -4.60843,-18.14672 -17.84837,-30.9197 -32.11534,-37.84829 C 121.29407,139.37614 93.722426,127.12236 80.459618,118.86706 43.373617,95.782759 62.471266,50.709877 107.41742,46.916987 c 23.05767,-1.997972 34.03539,1.458238 48.05182,6.773249 l 25.96362,-30.376251 c -6.69558,-0.4281 -11.30952,-0.63833 -17.41778,-0.69685 -4.09909,-0.13031 -9.99467,-0.19617 -16.50072,-0.198049 z M 62.224936,141.72738 c -0.0497,0 -0.101279,-0.004 -0.139009,-0.004 v 0.004 z"
       style="font-style:normal;font-variant:normal;font-weight:normal;font-stretch:normal;font-size:292.40866089px;line-height:1.25;font-family:'Trebuchet MS';-inkscape-font-specification:'Trebuchet MS';letter-spacing:0px;word-spacing:0px;fill:none;fill-opacity:1;stroke:url(#radialGradient6617-2-3-4);stroke-width:1.70862055;stroke-opacity:1" />
    <path
       style="font-style:normal;font-variant:normal;font-weight:normal;font-stretch:normal;font-size:292.40866089px;line-height:1.25;font-family:'Trebuchet MS';-inkscape-font-specification:'Trebuchet MS';letter-spacing:0px;word-spacing:0px;fill:url(#radialGradient8059-0-8);fill-opacity:1;stroke:none;stroke-width:1.70862055;stroke-opacity:1"
       d="m 147.5155,22.418026 c -10.84338,-0.004 -23.38148,0.171709 -32.12085,0.519549 -41.312824,2.415381 -76.854933,21.882682 -79.768644,53.718872 -1.732789,18.934311 3.242069,35.041283 27.403581,50.583083 6.75268,4.78738 16.99903,9.22062 22.43871,11.39655 6.363419,2.54531 22.573343,10.0484 10.364361,6.10341 -12.859501,-2.61272 -17.791742,-2.90881 -33.125071,-3.00943 -0.64978,-0.004 -0.550051,-0.004 -0.482661,-0.004 0.76264,0.009 2.30111,0.055 -9.399529,0.13125 v -0.10678 H 21.949146 l -0.28179,98.47425 31.985861,-35.36399 c -0.14202,-0.13031 -0.286912,-0.26203 -0.42795,-0.39187 l -0.39986,-40.48412 c 48.020533,-1.02201 71.000953,3.07366 81.733733,9.57707 23.89932,14.48159 19.08498,45.75694 -17.44342,51.19676 -29.295532,3.7467 -49.852014,-8.53704 -58.265843,-15.3549 l -37.334121,42.00681 -0.0574,14.51484 c 12.13009,-0.26767 22.631369,0.15807 31.478282,0.0282 0.534178,-11.11368 0.474948,-5.07726 0.570899,-13.97258 13.774489,0.0188 33.812491,0.17312 44.255129,-0.16371 23.010264,-0.34012 44.182314,-6.67513 55.078184,-13.74758 21.4332,-10.92565 25.77879,-34.79835 23.21024,-49.84958 -4.60843,-18.14672 -17.84837,-30.9197 -32.11534,-37.84829 C 121.29407,139.37614 93.722426,127.12236 80.459618,118.86706 43.373617,95.782759 62.471266,50.709877 107.41742,46.916987 c 23.05767,-1.997972 34.03539,1.458238 48.05182,6.773249 l 25.96362,-30.376251 c -6.69558,-0.4281 -11.30952,-0.63833 -17.41778,-0.69685 -4.09909,-0.13031 -9.99467,-0.19617 -16.50072,-0.198049 z M 62.224936,141.72738 c -0.0497,0 -0.101279,-0.004 -0.139009,-0.004 v 0.004 z"
       id="path4941-3-9-7-6-4"
       inkscape:connector-curvature="0"
       sodipodi:nodetypes="ccscsccccccccccscccccccccsscccccccccc"
       inkscape:export-filename="C:\Users\CubeRyzen\Pictures\SSP11.png"
       inkscape:export-xdpi="96"
       inkscape:export-ydpi="96" />
    <path
       inkscape:connector-curvature="0"
       style="font-style:normal;font-variant:normal;font-weight:normal;font-stretch:normal;font-size:292.40866089px;line-height:1.25;font-family:'Trebuchet MS';-inkscape-font-specification:'Trebuchet MS';letter-spacing:0px;word-spacing:0px;fill:url(#linearGradient1060-8);fill-opacity:1;stroke:none;stroke-width:1.9785763;stroke-opacity:1"
       d="m 22.081746,51.115671 c -6.23905,10.037881 -9.57497,22.062104 -10.00729,36.073106 -0.65129,21.106723 9.02568,37.609923 29.030589,49.510113 18.521011,9.11831 40.891413,13.32946 56.937381,15.00038 47.807734,6.9484 85.355214,21.49309 87.586514,63.10035 0,7.42175 -1.57049,14.17889 -4.70996,20.27197 8.43695,-11.35489 12.65641,-25.39488 12.65641,-42.12135 0,-21.17701 -10.23985,-37.37272 -30.71547,-48.58809 -27.09458,-12.9178 -51.94333,-15.66966 -70.750394,-20.09863 -44.909589,-7.62679 -72.62174,-19.10681 -73.08641,-58.243526 0.22259,-5.331966 1.24349,-10.299385 3.05863,-14.904323 z"
       id="path1100-4-7-7-0-3-9-4-4-2-0-4-6-2-9-9-0-7-4-5-6-5-5-9-3-8-8-6-9-7"
       inkscape:export-filename="C:\Users\CubeRyzen\Pictures\SSP11.png"
       inkscape:export-xdpi="96"
       inkscape:export-ydpi="96"
       sodipodi:nodetypes="csccccscccc" />
    <path
       inkscape:connector-curvature="0"
       style="font-style:normal;font-variant:normal;font-weight:normal;font-stretch:normal;font-size:292.40866089px;line-height:1.25;font-family:'Trebuchet MS';-inkscape-font-specification:'Trebuchet MS';letter-spacing:0px;word-spacing:0px;fill:url(#linearGradient1062-1);fill-opacity:1;stroke:none;stroke-width:1.9785763;stroke-opacity:0.98994978"
       d="m 78.683517,17.226226 c -27.185691,5.611231 -46.053351,16.914103 -56.607971,33.90515 -1.81121,4.600512 -2.83014,9.562473 -3.05243,14.888356 0.46467,39.136738 28.176522,50.616948 73.086111,58.243738 18.219393,4.29059 42.109043,7.00722 68.217313,18.91702 C 117.12435,123.37057 78.539047,125.45823 61.924907,108.37004 51.040266,98.553018 46.256708,80.01424 46.149417,65.900447 46.803578,42.952685 57.915186,26.727867 78.683517,17.226226 Z"
       id="path2088-4-7-4-3-7-8-3"
       inkscape:export-filename="C:\Users\CubeRyzen\Pictures\SSP11.png"
       inkscape:export-xdpi="96"
       inkscape:export-ydpi="96" />
    <path
       inkscape:connector-curvature="0"
       style="font-style:normal;font-variant:normal;font-weight:normal;font-stretch:normal;font-size:292.40866089px;line-height:1.25;font-family:'Trebuchet MS';-inkscape-font-specification:'Trebuchet MS';letter-spacing:0px;word-spacing:0px;fill:url(#linearGradient1064-5);fill-opacity:1;stroke:none;stroke-width:1.9785763;stroke-opacity:0.98994978"
       d="m 97.969748,151.69092 c 38.591192,10.05074 60.895102,35.61809 62.542662,63.22351 0,23.32766 -10.57517,40.1011 -31.72339,50.32223 24.10878,-5.7752 41.48573,-15.83635 52.13736,-30.17944 3.13465,-6.08945 4.70242,-12.84151 4.70242,-20.25746 -2.2313,-41.60726 -39.77864,-56.15216 -87.586374,-63.10058 -0.02421,-0.004 -0.0484,-0.006 -0.0725,-0.009 z"
       id="path2046-7-5-7-1-4-8-0"
       inkscape:export-filename="C:\Users\CubeRyzen\Pictures\SSP11.png"
       inkscape:export-xdpi="96"
       inkscape:export-ydpi="96" />
  </g>
</svg>
