<?xml version="1.0" encoding="UTF-8" standalone="no"?>
<!-- Created with Inkscape (http://www.inkscape.org/) -->

<svg
   xmlns:dc="http://purl.org/dc/elements/1.1/"
   xmlns:cc="http://creativecommons.org/ns#"
   xmlns:rdf="http://www.w3.org/1999/02/22-rdf-syntax-ns#"
   xmlns:svg="http://www.w3.org/2000/svg"
   xmlns="http://www.w3.org/2000/svg"
   xmlns:xlink="http://www.w3.org/1999/xlink"
   xmlns:sodipodi="http://sodipodi.sourceforge.net/DTD/sodipodi-0.dtd"
   xmlns:inkscape="http://www.inkscape.org/namespaces/inkscape"
   width="143.34087mm"
   height="144.61092mm"
   viewBox="0 0 143.34087 144.61092"
   version="1.1"
   id="svg10807"
   inkscape:version="0.92.4 (5da689c313, 2019-01-14)"
   sodipodi:docname="SSPLogoV3.1.svg">
  <defs
     id="defs10801">
    <linearGradient
       inkscape:collect="always"
       id="linearGradient832">
      <stop
         style="stop-color:#070707;stop-opacity:1;"
         offset="0"
         id="stop828" />
      <stop
         style="stop-color:#070707;stop-opacity:0;"
         offset="1"
         id="stop830" />
    </linearGradient>
    <radialGradient
       inkscape:collect="always"
       xlink:href="#linearGradient832"
       id="radialGradient836"
       cx="109.61309"
       cy="158.66071"
       fx="109.61309"
       fy="158.66071"
       r="71.670433"
       gradientTransform="matrix(0.50110769,-0.86538493,1.5874167,0.91920564,-197.17552,107.67641)"
       gradientUnits="userSpaceOnUse" />
  </defs>
  <sodipodi:namedview
     id="base"
     pagecolor="#424242"
     bordercolor="#666666"
     borderopacity="1.0"
     inkscape:pageopacity="1"
     inkscape:pageshadow="2"
     inkscape:zoom="0.35"
     inkscape:cx="-244.8339"
     inkscape:cy="310.42334"
     inkscape:document-units="px"
     inkscape:current-layer="layer1"
     showgrid="false"
     fit-margin-top="0"
     fit-margin-left="0"
     fit-margin-right="0"
     fit-margin-bottom="0"
     inkscape:window-width="1920"
     inkscape:window-height="1017"
     inkscape:window-x="-8"
     inkscape:window-y="208"
     inkscape:window-maximized="1" />
  <metadata
     id="metadata10804">
    <rdf:RDF>
      <cc:Work
         rdf:about="">
        <dc:format>image/svg+xml</dc:format>
        <dc:type
           rdf:resource="http://purl.org/dc/dcmitype/StillImage" />
        <dc:title></dc:title>
      </cc:Work>
    </rdf:RDF>
  </metadata>
  <g
     inkscape:label="Layer 1"
     inkscape:groupmode="layer"
     id="layer1"
     transform="translate(-37.94266,-86.355252)">
    <path
       id="path10128"
       style="opacity:1;fill:#353535;fill-opacity:1;stroke:url(#radialGradient836);stroke-width:0.76899999;stroke-linejoin:round;stroke-miterlimit:4;stroke-dasharray:none;stroke-opacity:1;paint-order:normal"
       d="m 106.92582,194.84994 c -1.10433,0 -1.56003,0.24507 -2.03708,1.09503 l -0.61444,1.09502 0.7121,1.08675 c 0.50194,0.76604 1.07418,1.08676 1.93942,1.08676 0.86526,0 1.438,-0.32072 1.93993,-1.08676 l 0.71211,-1.08675 -0.61444,-1.09502 c -0.47707,-0.84996 -0.93325,-1.09503 -2.0376,-1.09503 z m 25.37623,-0.12661 c -1.1213,-0.013 -2.20762,0.77292 -2.20762,2.13166 0,2.45574 2.78323,3.31453 4.12171,1.27175 l 0.71211,-1.08675 -0.61185,-1.09502 c -0.46357,-0.82972 -1.24714,-1.21272 -2.01435,-1.22164 z m 38.15322,-12.74649 c -0.27644,-0.008 -0.56899,0.0399 -0.87178,0.15503 -1.72116,0.65437 -2.0706,2.44902 -0.73638,3.78323 1.00025,1.00025 1.5962,1.03897 2.81688,0.18397 1.85931,-1.30233 0.72634,-4.06812 -1.20872,-4.12223 z M 145.0098,97.396468 c -23.70805,0.506077 -47.336683,0.324377 -72.337701,0.376721 -9.625992,6.763061 -21.283422,17.899791 -26.614401,28.386891 -3.056751,6.05874 -5.241051,12.51943 -6.487971,19.19005 l 2.43137,2.44429 3.41943,3.437 v 1.70998 1.70945 l 1.01803,0.66715 c 0.56008,0.36697 1.203711,1.33777 1.42989,2.15697 1.14512,4.14725 -2.92714,7.39646 -6.70244,5.34799 -1.24794,-0.67712 -2.39469,-2.55466 -2.39469,-3.92069 0,-1.05728 0.9519,-2.97866 1.84227,-3.7176 1.2718,-1.05551 0.7795,-2.62588 -1.54357,-4.92011 l -0.20671,-0.20361 c -1.2388,10.09115 -0.32507,20.33027 2.68097,30.04261 1.93929,-0.90411 4.17139,-0.41139 5.632731,1.39268 0.841419,1.03875 0.967869,4.29975 0.20413,5.26893 -0.68634,0.87096 -1.569551,1.47445 -2.536281,1.78232 1.01766,2.22627 2.14826,4.39916 3.38739,6.51019 h 7.76851 20.81424 l 3.41943,3.437 3.41943,3.43752 v 1.59835 c 0,1.18382 0.323281,1.96752 1.246431,3.01894 0.947939,1.07964 1.24696,1.82484 1.24696,3.10937 v 1.6893 l -1.413362,1.41335 -1.41283,1.41283 h -1.745109 -1.745628 l -1.412841,-1.41283 -1.413351,-1.41335 v -1.6893 c 0,-1.28453 0.299011,-2.02973 1.24696,-3.10937 0.685691,-0.78098 1.246949,-1.77506 1.246949,-2.20917 0,-0.43411 -1.081029,-1.8586 -2.401919,-3.1657 l -2.401409,-2.3766 h -19.817391 -4.34495 c 2.09556,3.08544 4.42786,6.00327 6.9758,8.72712 h 6.42389 l 3.419429,3.437 3.41943,3.437 v 4.41885 c 2.015281,1.32357 4.095822,2.54502 6.233732,3.65972 0.004,-2.80711 1.769959,-4.54057 4.643131,-4.55424 l 1.941999,-0.01 1.246431,1.24696 1.24696,1.24643 h 7.00577 7.006291 l 2.37608,-2.4014 c 1.30712,-1.3209 2.3766,-2.74589 2.3766,-3.16622 0,-0.42035 -0.56074,-1.40287 -1.24643,-2.18384 -1.70982,-1.94737 -1.72234,-4.17065 -0.0341,-6.0601 l 1.21284,-1.35702 h 2.14561 2.14612 l 1.21284,1.35702 c 0.85501,0.95691 1.21285,1.7907 1.21285,2.82619 0,1.68783 -0.92168,3.70666 -1.85518,4.06486 -0.43635,0.16745 -0.63872,0.8066 -0.63872,2.01642 v 1.77095 l -3.62769,3.64474 -3.62717,3.64422 h -7.958172 -7.957651 l -0.54002,0.65061 c -0.176731,0.21294 -0.41661,0.42627 -0.69298,0.62838 9.930421,3.79456 20.578263,5.34162 31.177943,4.52996 l 1.95285,-1.72134 V 216.3084 203.96601 l -2.4014,-2.37661 c -1.3209,-1.30711 -2.74303,-2.37659 -3.16053,-2.37659 -0.41753,0 -1.31501,0.46773 -1.99419,1.03921 -2.30265,1.93754 -4.55886,1.87022 -6.62647,-0.19741 -0.8774,-0.8774 -1.19373,-1.5944 -1.19373,-2.70732 0,-3.02852 1.68466,-4.76032 4.64365,-4.77439 l 1.94199,-0.01 1.24644,1.24643 c 0.95338,0.95339 1.62317,1.24695 2.84634,1.24695 h 1.59938 l 3.41943,3.437 3.41943,3.43752 v 14.12989 13.61777 c 6.07268,-0.94487 11.99929,-2.66384 17.6351,-5.11493 h -1.65261 l -3.62769,-3.64474 -3.62768,-3.64474 v -8.19899 c 0,-5.26842 -0.15073,-8.19949 -0.42168,-8.19949 -0.67756,0 -2.06846,-2.59681 -2.07016,-3.86488 -0.003,-2.25286 1.27061,-3.78714 3.81166,-4.59197 1.17019,-0.37066 3.58123,0.52844 4.47931,1.67018 0.5666,0.72031 0.85007,1.69601 0.85007,2.92644 v 1.84588 l -1.24643,1.24695 -1.24695,1.24695 v 7.12463 7.12463 l 2.3766,2.40141 2.3766,2.40192 h 7.68945 0.27905 c 3.84685,-2.28953 7.47165,-4.93304 10.82725,-7.89616 h -0.69505 -7.28793 l -3.41943,-3.43701 -3.41943,-3.43751 v -2.10065 -2.10065 l -1.02681,-0.9648 c -0.56479,-0.53058 -1.23438,-1.59284 -1.48776,-2.36057 l -0.46044,-1.39578 0.76016,-1.55598 c 0.48602,-0.9946 1.32532,-1.83218 2.32648,-2.32131 l 1.56631,-0.76481 1.32498,0.46147 c 3.04466,1.06138 4.30224,3.71708 3.02979,6.39858 -0.38178,0.80453 -0.96051,1.56504 -1.28571,1.68982 -0.36836,0.1413 -0.59118,0.82496 -0.59118,1.81281 v 1.58543 l 2.1947,2.16731 2.19521,2.16782 h 9.80561 0.84077 c 4.85281,-5.07269 8.93718,-10.82824 12.1233,-17.08371 l 0.0429,-0.0847 c 0.80037,-1.59097 1.54141,-3.21111 2.22158,-4.85706 h -0.0796 c -0.45146,0 -0.84439,0.0472 -1.21645,0.15658 -0.60359,0.17751 -1.89066,1.82908 -3.11158,2.11884 -1.58564,0.37632 -3.56401,0.36282 -4.84669,-0.64248 -1.32646,-1.0396 -2.14217,-3.04961 -1.84282,-4.70812 0.28403,-1.57363 1.6773,-3.08533 3.19984,-3.57403 1.40836,-0.45204 2.99474,0.33154 4.33094,0.96581 1.06241,0.50428 1.7512,2.22505 2.77202,2.18239 1.10267,-0.0461 1.00652,-0.34065 1.6702,-0.8661 0.46676,-0.36952 0.51488,-1.11132 1.00711,-1.60975 l 0.71163,-1.83829 c 0.7452,-2.4776 1.16911,-3.87105 1.6433,-6.41447 v -26.74172 c -1.79613,-9.52467 -5.49799,-18.5883 -10.8835,-26.64695 l -0.21498,0.21394 -0.99941,0.99426 -2.43811,2.42517 h -7.48584 c -8.73124,-0.46022 -8.42098,-0.49919 -29.62663,-0.49919 h -17.80562 l -0.79169,0.88883 c -0.733,0.82265 -3.03902,2.04164 -3.79098,2.00401 -0.17877,-0.008 -0.91876,-0.27453 -1.64435,-0.59014 -3.01799,-1.31276 -3.74745,-5.11609 -1.42626,-7.43727 l 1.30689,-1.3069 h 1.83917 1.83916 l 1.3932,1.35082 1.39371,1.35082 h 15.6683 c 17.80468,0.0925 19.87589,-0.0169 30.19298,0.0832 h 7.2688 l 1.69035,-1.67276 0.71157,-0.70384 0.46664,-0.46198 c -1.38941,-1.83803 -2.86631,-3.60827 -4.42556,-5.30459 -0.23146,0.53859 -0.53761,1.0048 -0.90124,1.39165 -1.65059,1.75599 -4.45618,1.90677 -6.5443,0.0734 l -1.42007,-1.24644 H 102.80618 65.366598 l -2.401921,2.37609 -2.4014,2.37659 v 0.55449 l 1.19941,1.13172 c 1.4834,1.4001 1.88739,2.8865 1.2826,4.71909 -0.63588,1.92675 -2.22023,3.08146 -4.22764,3.08146 -2.07049,0 -3.07825,-0.54393 -4.09329,-2.20865 -0.44406,-0.72825 -0.80642,-1.69776 -0.80616,-2.15491 10e-4,-1.13331 1.09407,-3.14254 2.08773,-3.83852 l 0.81701,-0.57206 v -2.74712 l 3.41943,-3.437 3.41942,-3.437 h 38.644163 52.66913 l 0.41445,-0.77462 c 0.0505,-0.0944 0.12652,-0.19637 0.22221,-0.30128 0.31593,-0.34639 0.84287,-0.71749 1.35185,-0.94619 -2.86827,-2.46718 -5.92666,-4.704303 -9.14673,-6.690552 z M 110.12149,86.739754 a 71.955673,71.955673 0 0 0 -1.10639,0.05736 c -1.22185,0.692788 -2.47416,0.759066 -3.74809,0.19327 a 71.955673,71.955673 0 0 0 -24.756633,6.250264 h 0.0465 l 58.137533,-0.05839 c 0.45008,-0.0027 0.74927,-0.0069 1.18029,-0.0098 a 71.955673,71.955673 0 0 0 -29.75321,-6.432704 z"
       inkscape:connector-curvature="0" />
    <g
       transform="translate(-100.4548,75.625704)"
       id="g10158"
       style="fill:#2f8ef3;fill-opacity:1">
      <path
         inkscape:connector-curvature="0"
         id="path10144"
         transform="scale(0.26458333)"
         d="m 831.12109,196.11523 c 10.91992,0.32705 21.15285,11.68955 16.06836,24.27344 -2.4,5.93997 -9.29143,10.0332 -16.89062,10.03321 h -7.01172 l -4.40234,-4.71094 -4.40039,-4.71289 h -27.30469 -27.30274 l -8.1914,8.29492 -8.19336,8.29687 v 28.44727 28.44727 l 2.35937,0.90429 c 1.29709,0.4977 3.50922,3.32324 4.91797,6.27735 5.72715,12.00989 -2.53251,24.56835 -16.1582,24.56836 h -7.06836 l -4.58985,-4.5918 -4.59179,-4.58985 v -7.13476 -7.13477 l 4.71094,-5.36718 4.71289,-5.36524 v -30.45703 -30.45508 l 12.99023,-12.92383 12.99219,-12.92382 h 30.71484 30.71485 l 3.66601,-3.90235 c 3.60686,-3.83933 7.9848,-5.40141 12.25781,-5.27344 z"
         style="opacity:1;fill:#2f8ef3;fill-opacity:1;stroke:#070707;stroke-width:2.90645671;stroke-linejoin:round;stroke-miterlimit:4;stroke-dasharray:none;stroke-opacity:1;paint-order:normal" />
      <path
         inkscape:connector-curvature="0"
         id="path10142"
         transform="scale(0.26458333)"
         d="m 962.68359,199.1875 c 2.72612,0.0923 5.4383,0.81967 7.94141,2.20703 5.07745,2.81421 7.90373,8.35765 7.9707,15.63477 l 0.0566,6.04882 -5.34179,5.33985 -5.33985,5.33984 h -6.38476 c -4.85496,0 -7.67136,-1.12816 -11.75196,-4.71093 -0.69842,-0.61323 -1.98141,-4.83239 -5.2832,-4.92188 -11.92834,-0.3233 -31.1655,0.20898 -32.41992,0.20898 -1.64319,0 -6.6758,3.73236 -11.18164,8.29493 l -8.19141,8.29687 v 60.25 88.25391 l 2.35742,0.90429 c 1.29714,0.49773 3.51123,3.32331 4.91993,6.27735 5.72716,12.00987 -2.53256,24.56836 -16.15821,24.56836 h -7.06836 l -4.59179,-4.5918 -4.58985,-4.58984 v -7.13477 -7.13476 l 4.71094,-5.36719 4.71289,-5.36524 v -90.26367 -62.25781 l 12.99024,-12.92383 12.99218,-12.92383 h 6.04102 c 3.29333,0 23.08364,0.0435 35.19922,-0.2832 4.01114,-0.10821 4.51176,-3.50882 5.56054,-4.42969 3.72355,-3.26931 8.30608,-4.88034 12.84961,-4.72656 z"
         style="opacity:1;fill:#2f8ef3;fill-opacity:1;stroke:#070707;stroke-width:2.90645671;stroke-linejoin:round;stroke-miterlimit:4;stroke-dasharray:none;stroke-opacity:1;paint-order:normal" />
      <path
         inkscape:connector-curvature="0"
         id="path10140"
         transform="scale(0.26458333)"
         d="m 684.09961,201.11719 c 10.91991,0.32705 21.15281,11.68759 16.06836,24.27148 -2.4,5.93997 -9.2914,10.03516 -16.89063,10.03516 h -7.01172 l -4.40234,-4.71289 -4.40039,-4.71289 H 640.1582 612.85547 l -8.19141,8.29687 -8.19336,8.29492 v 28.44727 28.44727 l 2.35938,0.90624 c 1.29714,0.4977 3.50923,3.32129 4.91797,6.2754 5.72712,12.00989 -2.5306,24.56835 -16.15625,24.56836 h -7.07032 l -4.58984,-4.58985 -4.5918,-4.5918 v -7.13476 -7.13477 l 4.71289,-5.36523 4.71094,-5.36719 V 266.5957 236.13867 l 12.99219,-12.92383 12.99023,-12.92382 h 30.71485 30.71484 l 3.66602,-3.90235 c 3.60685,-3.83933 7.9848,-5.39946 12.25781,-5.27148 z"
         style="opacity:1;fill:#2f8ef3;fill-opacity:1;stroke:#070707;stroke-width:2.90645671;stroke-linejoin:round;stroke-miterlimit:4;stroke-dasharray:none;stroke-opacity:1;paint-order:normal" />
      <path
         inkscape:connector-curvature="0"
         id="path10138"
         transform="scale(0.26458333)"
         d="m 1013.3066,203.10938 h 7.0684 l 4.5918,4.59179 4.5898,4.58985 v 7.13476 7.13477 l -4.7109,5.36718 -4.7129,5.36524 V 267.75 298.20508 l -12.9902,12.92383 -12.99221,12.92382 H 963.4375 932.72266 l -3.66602,3.90235 c -12.82439,13.65096 -35.4002,-1.49197 -28.32617,-19 2.4,-5.93997 9.29139,-10.0332 16.89062,-10.0332 h 7.00977 l 4.40234,4.71093 4.40235,4.71289 h 27.30273 27.30274 l 8.19336,-8.29492 8.19142,-8.29687 v -28.44727 -28.44726 l -2.3574,-0.9043 c -1.2971,-0.4977 -3.51126,-3.32324 -4.91996,-6.27735 -5.72716,-12.00989 2.53252,-24.56835 16.15816,-24.56835 z"
         style="opacity:1;fill:#2f8ef3;fill-opacity:1;stroke:#070707;stroke-width:2.90645671;stroke-linejoin:round;stroke-miterlimit:4;stroke-dasharray:none;stroke-opacity:1;paint-order:normal" />
      <path
         inkscape:connector-curvature="0"
         id="path10136"
         transform="scale(0.26458333)"
         d="m 834.28125,290.12109 h 7.06836 l 4.58984,4.5918 4.5918,4.5918 v 7.13476 7.13282 l -4.71094,5.36718 -4.71289,5.36719 v 30.45508 30.45703 l -12.99023,12.92187 -12.99219,12.92383 h -30.71484 -30.71289 l -3.66797,3.90235 c -12.82435,13.65098 -35.4002,-1.49198 -28.32618,-19 2.4,-5.93998 9.29143,-10.03321 16.89063,-10.03321 h 7.01172 l 4.40234,4.71289 4.40235,4.71094 h 27.30273 27.30273 l 8.19336,-8.29492 8.19141,-8.29492 v -28.44727 -28.44922 l -2.35742,-0.90429 c -1.29709,-0.49769 -3.51117,-3.32129 -4.91992,-6.27539 -5.72711,-12.0099 2.53255,-24.57032 16.1582,-24.57032 z"
         style="opacity:1;fill:#2f8ef3;fill-opacity:1;stroke:#070707;stroke-width:2.90645671;stroke-linejoin:round;stroke-miterlimit:4;stroke-dasharray:none;stroke-opacity:1;paint-order:normal" />
      <path
         inkscape:connector-curvature="0"
         id="path10134"
         transform="scale(0.26458333)"
         d="m 687.25977,295.12305 h 7.06835 l 4.5918,4.58984 4.58985,4.5918 v 7.13476 7.13477 l -4.71094,5.36523 -4.71289,5.36719 v 30.45703 30.45508 l -12.99024,12.92383 -12.99218,12.92383 h -30.7129 -30.71484 l -3.66601,3.90234 c -12.82439,13.65094 -35.40216,-1.49198 -28.32813,-19 2.4,-5.93994 9.2914,-10.0332 16.89063,-10.0332 h 7.01171 l 4.40235,4.71093 4.40234,4.7129 h 27.30274 27.30273 l 8.19336,-8.29688 8.19141,-8.29492 v -28.44727 -28.44726 l -2.35743,-0.90625 c -1.29713,-0.4977 -3.51121,-3.32128 -4.91992,-6.27539 -5.72715,-12.00989 2.53256,-24.56836 16.15821,-24.56836 z"
         style="opacity:1;fill:#2f8ef3;fill-opacity:1;stroke:#070707;stroke-width:2.90645671;stroke-linejoin:round;stroke-miterlimit:4;stroke-dasharray:none;stroke-opacity:1;paint-order:normal" />
    </g>
  </g>
</svg>
