<?xml version="1.0" encoding="UTF-8" standalone="no"?>
<!-- Created with Inkscape (http://www.inkscape.org/) -->

<svg
   xmlns:dc="http://purl.org/dc/elements/1.1/"
   xmlns:cc="http://creativecommons.org/ns#"
   xmlns:rdf="http://www.w3.org/1999/02/22-rdf-syntax-ns#"
   xmlns:svg="http://www.w3.org/2000/svg"
   xmlns="http://www.w3.org/2000/svg"
   xmlns:xlink="http://www.w3.org/1999/xlink"
   xmlns:sodipodi="http://sodipodi.sourceforge.net/DTD/sodipodi-0.dtd"
   xmlns:inkscape="http://www.inkscape.org/namespaces/inkscape"
   width="120.66106mm"
   height="178.27701mm"
   viewBox="0 0 120.66106 178.27701"
   version="1.1"
   id="svg1488"
   inkscape:version="0.92.4 (5da689c313, 2019-01-14)"
   sodipodi:docname="SSPLogoV2.12.svg">
  <defs
     id="defs1482">
    <linearGradient
       gradientTransform="translate(-262.06187,200.45168)"
       inkscape:collect="always"
       xlink:href="#linearGradient1275"
       id="linearGradient3657-4"
       x1="581.32739"
       y1="115.19345"
       x2="470.20239"
       y2="149.96725"
       gradientUnits="userSpaceOnUse" />
    <linearGradient
       id="linearGradient1275"
       inkscape:collect="always">
      <stop
         id="stop1271"
         offset="0"
         style="stop-color:#818181;stop-opacity:1" />
      <stop
         id="stop1273"
         offset="1"
         style="stop-color:#dedede;stop-opacity:1" />
    </linearGradient>
    <radialGradient
       inkscape:collect="always"
       xlink:href="#linearGradient1428"
       id="radialGradient1585-4-9"
       cx="363.23523"
       cy="148.06825"
       fx="363.23523"
       fy="148.06825"
       r="60.330433"
       gradientTransform="matrix(0.63896559,-0.76923531,0.70169118,0.58286004,-183.6685,367.60053)"
       gradientUnits="userSpaceOnUse" />
    <linearGradient
       inkscape:collect="always"
       id="linearGradient1428">
      <stop
         style="stop-color:#000000;stop-opacity:1"
         offset="0"
         id="stop1424" />
      <stop
         style="stop-color:#0e48a2;stop-opacity:1"
         offset="1"
         id="stop1426" />
    </linearGradient>
    <radialGradient
       inkscape:collect="always"
       xlink:href="#linearGradient1599"
       id="radialGradient5891-6-8-5-56"
       cx="122.49937"
       cy="205.15445"
       fx="122.49937"
       fy="205.15445"
       r="60.330433"
       gradientTransform="matrix(1.2749762,-1.3624929,1.4807239,1.3856129,-320.4876,59.239062)"
       gradientUnits="userSpaceOnUse" />
    <linearGradient
       id="linearGradient1599"
       inkscape:collect="always">
      <stop
         id="stop1595"
         offset="0"
         style="stop-color:#000414;stop-opacity:1" />
      <stop
         id="stop1597"
         offset="1"
         style="stop-color:#a8a8a8;stop-opacity:1" />
    </linearGradient>
    <radialGradient
       inkscape:collect="always"
       xlink:href="#linearGradient1593"
       id="radialGradient5893-5-4-3-7"
       cx="97.977951"
       cy="199.68292"
       fx="97.977951"
       fy="199.68292"
       r="60.330482"
       gradientTransform="matrix(2.2339673,1.0918023,-0.83049757,1.6993045,77.736288,-272.51492)"
       gradientUnits="userSpaceOnUse" />
    <linearGradient
       inkscape:collect="always"
       id="linearGradient1593">
      <stop
         style="stop-color:#080f21;stop-opacity:0.99607843"
         offset="0"
         id="stop1589" />
      <stop
         style="stop-color:#939393;stop-opacity:1"
         offset="1"
         id="stop1591" />
    </linearGradient>
    <linearGradient
       gradientTransform="matrix(-0.51037667,0.07010464,-0.07673886,-0.55867522,2264.1338,-141.19171)"
       inkscape:collect="always"
       xlink:href="#linearGradient1583"
       id="linearGradient1491-8-5-5-0-0-2-7-3-2-5-5-3-1-0-5"
       x1="4108.4053"
       y1="-78.807915"
       x2="4495.46"
       y2="-128.91109"
       gradientUnits="userSpaceOnUse" />
    <linearGradient
       id="linearGradient1583"
       inkscape:collect="always">
      <stop
         id="stop1579"
         offset="0"
         style="stop-color:#000000;stop-opacity:1" />
      <stop
         id="stop1581"
         offset="1"
         style="stop-color:#144692;stop-opacity:0.98823529" />
    </linearGradient>
    <linearGradient
       gradientTransform="matrix(0.51037667,-0.07010464,0.07673886,0.55867522,-2046.6402,457.0996)"
       inkscape:collect="always"
       xlink:href="#linearGradient1583"
       id="linearGradient1491-8-5-5-0-0-2-7-3-2-6-6-0-5-4"
       x1="4144.7954"
       y1="-82.776527"
       x2="4429.751"
       y2="-148.6944"
       gradientUnits="userSpaceOnUse" />
    <linearGradient
       inkscape:collect="always"
       xlink:href="#linearGradient1275"
       id="linearGradient2101"
       gradientUnits="userSpaceOnUse"
       gradientTransform="translate(-262.06187,200.45168)"
       x1="581.32739"
       y1="115.19345"
       x2="470.20239"
       y2="149.96725" />
  </defs>
  <sodipodi:namedview
     id="base"
     pagecolor="#ffffff"
     bordercolor="#666666"
     borderopacity="1.0"
     inkscape:pageopacity="0.0"
     inkscape:pageshadow="2"
     inkscape:zoom="0.35"
     inkscape:cx="-247.69338"
     inkscape:cy="376.90144"
     inkscape:document-units="mm"
     inkscape:current-layer="layer1"
     showgrid="false"
     fit-margin-top="0"
     fit-margin-left="0"
     fit-margin-right="0"
     fit-margin-bottom="0"
     inkscape:window-width="1920"
     inkscape:window-height="1017"
     inkscape:window-x="-8"
     inkscape:window-y="208"
     inkscape:window-maximized="1" />
  <metadata
     id="metadata1485">
    <rdf:RDF>
      <cc:Work
         rdf:about="">
        <dc:format>image/svg+xml</dc:format>
        <dc:type
           rdf:resource="http://purl.org/dc/dcmitype/StillImage" />
        <dc:title></dc:title>
      </cc:Work>
    </rdf:RDF>
  </metadata>
  <g
     inkscape:label="Layer 1"
     inkscape:groupmode="layer"
     id="layer1"
     transform="translate(-48.526612,-70.27816)">
    <path
       inkscape:connector-curvature="0"
       style="font-style:normal;font-variant:normal;font-weight:normal;font-stretch:normal;font-size:292.40866089px;line-height:1.25;font-family:'Trebuchet MS';-inkscape-font-specification:'Trebuchet MS';letter-spacing:0px;word-spacing:0px;fill:url(#linearGradient1491-8-5-5-0-0-2-7-3-2-6-6-0-5-4);fill-opacity:1;stroke:#8a8484;stroke-width:0.52916664;stroke-miterlimit:4;stroke-dasharray:none;stroke-opacity:1"
       d="m 91.492587,85.334303 c -6.665801,5.09677 -11.083901,13.870142 -12.681702,21.860167 -0.627798,3.56061 -0.269099,9.20647 -0.2633,14.86706 3.447101,-22.432667 19.490002,-28.062917 45.798005,-27.782637 10.3057,0.1098 18.6256,0.75209 23.609,-2.79803 4.0305,-2.87131 14.539,-12.97782 8.587,-13.35591 -6.1148,-0.38843 -9.9055,-0.51736 -17.8765,-0.74479 -7.7953,0.22755 -13.245,0.18037 -22.0091,0.75101 -9.3074,0.60601 -19.177203,2.62596 -25.163403,7.20313 z"
       id="path1409-8-6-2-8-6-1-9-3-50-1-3-3-4-2-8"
       sodipodi:nodetypes="sccssscss" />
    <path
       inkscape:connector-curvature="0"
       style="font-style:normal;font-variant:normal;font-weight:normal;font-stretch:normal;font-size:292.40866089px;line-height:1.25;font-family:'Trebuchet MS';-inkscape-font-specification:'Trebuchet MS';letter-spacing:0px;word-spacing:0px;fill:url(#linearGradient1491-8-5-5-0-0-2-7-3-2-5-5-3-1-0-5);fill-opacity:1;stroke:#8a8484;stroke-width:0.52916664;stroke-miterlimit:4;stroke-dasharray:none;stroke-opacity:1"
       d="m 126.00149,230.57359 c 6.6659,-5.09678 11.0839,-13.87017 12.6817,-21.86019 0.6278,-3.56059 0.2691,-9.20646 0.2633,-14.86704 -3.4471,18.4639 -20.8733,26.99281 -42.396202,27.78262 -10.293101,0.52129 -19.888602,-3.26667 -28.275901,1.04735 -5.6582,2.9103 -17.6206,14.7285 -11.6686,15.1066 6.114799,0.38844 9.9054,0.51734 17.8765,0.7448 7.795299,-0.22755 17.591701,-0.18038 26.355803,-0.75102 9.3074,-0.60601 19.1772,-2.62595 25.1634,-7.20312 z"
       id="path1409-8-6-2-8-6-1-9-3-50-1-9-0-9-7-7-8"
       sodipodi:nodetypes="scccascss" />
    <path
       sodipodi:nodetypes="cscczasssccsssssc"
       inkscape:connector-curvature="0"
       id="path2723-6-9-3-8-7-5"
       d="m 124.13169,70.543643 c -49.200103,-0.14342 -74.306903,16.87622 -75.320203,51.058987 -0.431,14.54137 5.973,25.91117 19.2116,34.10975 29.784001,16.46016 69.847303,4.44615 71.240903,41.04188 -0.232,21.31582 -23.7198,29.58683 -36.5498,30.79051 -12.830003,1.20368 -21.026802,-2.52108 -29.584804,2.44652 -6.0689,3.52276 -20.732799,16.78292 -11.9116,17.35746 9.841801,0.64103 23.4371,0.94184 26.5028,0.94184 54.134704,0 81.202404,-17.94143 81.202404,-53.8242 0,-14.58976 -6.7762,-25.74767 -20.3263,-33.47447 -38.2773,-18.99893 -69.782902,-6.07822 -70.074102,-40.62315 0.630499,-21.271487 12.930399,-31.847997 44.456302,-31.548457 13.4015,0.12732 14.5573,0.2046 20.0479,-2.57298 5.7088,-2.88795 13.5006,-12.83365 11.449,-15.05686 -0.5551,-0.60147 -6.0415,-0.52594 -18.861,-0.63476 -2.5378,-0.0215 -9.0633,-0.005 -11.4831,-0.0121 z"
       style="font-style:normal;font-variant:normal;font-weight:normal;font-stretch:normal;font-size:292.40866089px;line-height:1.25;font-family:'Trebuchet MS';-inkscape-font-specification:'Trebuchet MS';letter-spacing:0px;word-spacing:0px;fill:url(#radialGradient5893-5-4-3-7);fill-opacity:1;stroke:#8a8484;stroke-width:0.52916664;stroke-miterlimit:4;stroke-dasharray:none;stroke-opacity:1" />
    <path
       inkscape:connector-curvature="0"
       style="font-style:normal;font-variant:normal;font-weight:normal;font-stretch:normal;font-size:292.40866089px;line-height:1.25;font-family:'Trebuchet MS';-inkscape-font-specification:'Trebuchet MS';letter-spacing:0px;word-spacing:0px;fill:url(#radialGradient5891-6-8-5-56);fill-opacity:1;stroke:#8a8484;stroke-width:0.52916664;stroke-miterlimit:4;stroke-dasharray:none;stroke-opacity:1"
       d="m 92.891487,73.402543 c -28.6158,6.14897 -43.3096,22.2154 -44.0798,48.200217 -0.431,14.54135 5.9729,25.91115 19.2115,34.10975 6.4634,3.57199 13.410701,5.80211 20.341901,7.48 6.528498,0.8627 12.975402,1.52346 19.030002,2.8649 21.6411,4.79461 38.6376,14.83082 39.6478,43.54108 0,16.07149 -6.9981,27.62786 -20.9933,34.66956 28.5822,-7.12784 42.8735,-23.72832 42.8735,-49.80152 0,-14.5898 -6.7764,-25.7477 -20.3265,-33.47447 -29.2648,-14.52551 -54.570403,-10.39391 -64.995204,-23.08059 -7.563598,-6.02753 -11.853299,-15.27706 -11.975599,-30.97532 0.4329,-15.809767 7.5219,-26.987517 21.2657,-33.533607 z"
       id="path1105-2-74-5-0-2-9-8-6-2-5-2-8-4-5-7-9-5-7-5" />
    <path
       inkscape:connector-curvature="0"
       style="font-style:normal;font-variant:normal;font-weight:normal;font-stretch:normal;font-size:292.40866089px;line-height:1.25;font-family:'Trebuchet MS';-inkscape-font-specification:'Trebuchet MS';letter-spacing:0px;word-spacing:0px;fill:url(#radialGradient1585-4-9);fill-opacity:1;stroke:#8a8484;stroke-width:0.52916664;stroke-miterlimit:4;stroke-dasharray:none;stroke-opacity:1"
       d="m 55.434187,96.750344 c -4.1288,6.915546 -6.3364,15.199596 -6.6225,24.852416 -0.431,14.54135 5.9729,25.91115 19.2115,34.10975 8.747301,4.83417 18.3807,7.21144 27.661199,9.08628 3.4016,0.35342 6.749804,0.75361 10.018104,1.24814 31.6376,4.78707 56.4853,14.80751 57.9619,43.4726 0,5.1132 -1.0393,9.76856 -3.1169,13.96632 5.5833,-7.82288 8.3756,-17.49574 8.3756,-29.01932 0,-14.5898 -6.7764,-25.7477 -20.3265,-33.47447 -17.9303,-8.89967 -34.3744,-10.79552 -46.8203,-13.84686 -29.719703,-5.25445 -48.058704,-13.16355 -48.366203,-40.12659 0.1473,-3.67345 0.8229,-7.095716 2.0241,-10.268266 z"
       id="path1100-4-7-7-0-3-9-4-4-2-0-4-6-2-7-7-5-2-5-7" />
    <g
       transform="translate(-139.5658,-190.50224)"
       aria-label="P"
       style="font-style:normal;font-variant:normal;font-weight:normal;font-stretch:normal;font-size:116.64787292px;line-height:1.25;font-family:'Brush Script MT';-inkscape-font-specification:'Brush Script MT';letter-spacing:0px;word-spacing:0px;fill:url(#linearGradient3657-4);fill-opacity:1;stroke:#6280b7;stroke-width:1.24618745;stroke-miterlimit:4;stroke-dasharray:none;stroke-opacity:1"
       id="text3644-7">
      <path
         d="m 269.22574,366.0482 c 0,0 -5.47727,3.01363 -11.43876,4.83626 -5.9615,1.78465 -12.49257,2.67697 -19.5932,2.67697 -1.25305,0 -3.81612,-0.22783 -7.68919,-0.68348 l -5.12613,9.34094 c 0.5316,0.7974 0.7974,1.44291 0.7974,1.93654 0,1.17711 -0.2658,2.16437 -0.7974,2.96176 -0.75943,1.13914 -1.76567,2.63901 -3.01872,4.4996 -1.25305,1.86059 -2.10741,3.09466 -2.56306,3.70221 -0.41769,0.60754 -0.91131,1.13914 -1.48088,1.59479 -0.5316,0.45565 -1.0632,0.68348 -1.5948,0.68348 -1.10117,0 -1.80364,-0.34174 -2.10741,-1.02522 -0.30377,-0.64551 -0.45565,-1.55683 -0.45565,-2.73394 0,-1.67073 0.81638,-4.30974 2.44915,-7.91701 1.67073,-3.64525 4.17684,-8.4676 7.51832,-14.46707 -1.78465,-0.68349 -3.17061,-1.57581 -4.15786,-2.67698 -0.98725,-1.10117 -1.48088,-2.18335 -1.48088,-3.24655 0,-2.35422 1.34798,-4.53757 4.04394,-6.55005 2.69597,-2.01248 6.68296,-3.60728 11.96097,-4.78439 l 17.37187,-25.91542 c -3.94901,0.15189 -8.10687,0.72146 -12.47357,1.70871 -4.36671,0.98725 -8.10688,2.05045 -11.22053,3.18959 -3.11365,1.10117 -5.90454,2.16436 -8.37267,3.18959 -2.43017,0.98725 -4.17685,1.68972 -5.24004,2.10741 -0.2658,0 -0.5316,-0.0949 -0.7974,-0.28478 -0.2658,-0.18986 -0.3987,-0.41769 -0.3987,-0.68349 0,-0.30377 0.87334,-2.16436 2.62002,-5.58178 1.78465,-3.41742 3.87308,-7.08165 6.26527,-10.9927 13.28996,-4.74641 25.02309,-7.11962 35.1994,-7.11962 11.77111,0 19.93495,2.50611 24.4915,7.51832 1.63277,1.74668 2.88582,3.91105 3.75916,6.4931 0.91131,2.54407 1.36697,5.06916 1.36697,7.57527 0,4.40011 -2.78182,9.96566 -4.69098,13.45121 -2.24436,-0.82389 -4.87028,-1.93004 -6.3569,-2.61418 2.68376,-3.08833 4.89653,-6.83105 4.89653,-8.6157 0,-2.46814 -0.98726,-4.40468 -2.96177,-5.80962 -1.97451,-1.40493 -4.82235,-2.35421 -8.54354,-2.84784 -3.68322,-0.5316 -8.44862,-0.7974 -14.2962,-0.7974 0.0759,0.41769 0.11391,0.9303 0.11391,1.53784 0,1.97451 -1.04421,4.57554 -3.13263,7.8031 l -9.91051,15.54925 7.46136,-0.85435 c 0.60754,0 0.91131,0.28478 0.91131,0.85435 0,0.49363 -0.49363,0.83537 -1.48088,1.02523 l -8.65746,1.65175 -3.24655,5.46787 c 1.44291,0.0759 2.71495,0.15188 3.81612,0.22783 1.13914,0.0759 2.09335,0.0276 2.84785,0.11391 3.71566,0.42522 8.9486,0.57233 13.80893,-1.21231 5.33994,1.83336 8.61317,3.45595 11.58429,5.717 z"
         style="font-style:normal;font-variant:normal;font-weight:normal;font-stretch:normal;font-family:'Brush Script MT';-inkscape-font-specification:'Brush Script MT';fill:url(#linearGradient2101);fill-opacity:1;stroke:none;stroke-width:1.24618745;stroke-miterlimit:4;stroke-dasharray:none;stroke-opacity:1"
         id="path1277"
         inkscape:connector-curvature="0"
         sodipodi:nodetypes="ccsccscsccscsccsscccsccccsccsccsccssccscccsccccscc" />
    </g>
  </g>
</svg>
