<?xml version="1.0" encoding="UTF-8" standalone="no"?>
<!-- Created with Inkscape (http://www.inkscape.org/) -->

<svg
   xmlns:dc="http://purl.org/dc/elements/1.1/"
   xmlns:cc="http://creativecommons.org/ns#"
   xmlns:rdf="http://www.w3.org/1999/02/22-rdf-syntax-ns#"
   xmlns:svg="http://www.w3.org/2000/svg"
   xmlns="http://www.w3.org/2000/svg"
   xmlns:xlink="http://www.w3.org/1999/xlink"
   xmlns:sodipodi="http://sodipodi.sourceforge.net/DTD/sodipodi-0.dtd"
   xmlns:inkscape="http://www.inkscape.org/namespaces/inkscape"
   width="210mm"
   height="297mm"
   viewBox="0 0 210 297"
   version="1.1"
   id="svg1108"
   inkscape:version="0.92.4 (5da689c313, 2019-01-14)"
   sodipodi:docname="SSPLogo5.svg">
  <defs
     id="defs1102">
    <radialGradient
       inkscape:collect="always"
       xlink:href="#linearGradient8057"
       id="radialGradient8059-0"
       cx="88.588829"
       cy="197.95782"
       fx="88.588829"
       fy="197.95782"
       r="53.801373"
       gradientTransform="matrix(2.182314,-1.9870843,7.6427003,7.7444224,-1601.3203,-1205.277)"
       gradientUnits="userSpaceOnUse" />
    <linearGradient
       inkscape:collect="always"
       id="linearGradient8057">
      <stop
         style="stop-color:#030406;stop-opacity:1;"
         offset="0"
         id="stop8053" />
      <stop
         style="stop-color:#4d4d4d;stop-opacity:0.22613065"
         offset="1"
         id="stop8055" />
    </linearGradient>
    <radialGradient
       inkscape:collect="always"
       xlink:href="#linearGradient6615"
       id="radialGradient6617-2-3"
       cx="8340.1279"
       cy="3591.0989"
       fx="8340.1279"
       fy="3591.0989"
       r="203.34364"
       gradientTransform="matrix(0.73610865,0.52048874,-1.2321962,1.607873,-1710.9144,-9915.5929)"
       gradientUnits="userSpaceOnUse" />
    <linearGradient
       inkscape:collect="always"
       id="linearGradient6615">
      <stop
         style="stop-color:#c3c3c3;stop-opacity:1;"
         offset="0"
         id="stop6611" />
      <stop
         style="stop-color:#2e2e2e;stop-opacity:1"
         offset="1"
         id="stop6613" />
    </linearGradient>
    <linearGradient
       inkscape:collect="always"
       xlink:href="#linearGradient1969"
       id="linearGradient1060"
       gradientUnits="userSpaceOnUse"
       gradientTransform="matrix(0.51516891,0,0,0.56392098,53.741317,937.8444)"
       x1="4381.6245"
       y1="39.585072"
       x2="4247.7705"
       y2="-36.793648" />
    <linearGradient
       id="linearGradient1969"
       inkscape:collect="always">
      <stop
         id="stop1965"
         offset="0"
         style="stop-color:#323741;stop-opacity:1" />
      <stop
         id="stop1967"
         offset="1"
         style="stop-color:#e6f5ff;stop-opacity:0.98823529" />
    </linearGradient>
    <linearGradient
       inkscape:collect="always"
       xlink:href="#linearGradient1963"
       id="linearGradient1062"
       gradientUnits="userSpaceOnUse"
       gradientTransform="translate(930.80451,6.0231146)"
       x1="1294.3416"
       y1="855.79999"
       x2="1273.6765"
       y2="910.34076" />
    <linearGradient
       id="linearGradient1963"
       inkscape:collect="always">
      <stop
         id="stop1959"
         offset="0"
         style="stop-color:#c0c0c0;stop-opacity:1" />
      <stop
         id="stop1961"
         offset="1"
         style="stop-color:#000000;stop-opacity:1" />
    </linearGradient>
    <linearGradient
       inkscape:collect="always"
       xlink:href="#linearGradient1963"
       id="linearGradient1064"
       gradientUnits="userSpaceOnUse"
       gradientTransform="translate(930.80451,6.0231146)"
       x1="1366.6802"
       y1="999.20245"
       x2="1338.6169"
       y2="935.96655" />
  </defs>
  <sodipodi:namedview
     id="base"
     pagecolor="#ffffff"
     bordercolor="#666666"
     borderopacity="1.0"
     inkscape:pageopacity="0.0"
     inkscape:pageshadow="2"
     inkscape:zoom="0.35"
     inkscape:cx="-64.285714"
     inkscape:cy="560"
     inkscape:document-units="mm"
     inkscape:current-layer="layer1"
     showgrid="false"
     inkscape:window-width="1920"
     inkscape:window-height="1017"
     inkscape:window-x="-8"
     inkscape:window-y="208"
     inkscape:window-maximized="1" />
  <metadata
     id="metadata1105">
    <rdf:RDF>
      <cc:Work
         rdf:about="">
        <dc:format>image/svg+xml</dc:format>
        <dc:type
           rdf:resource="http://purl.org/dc/dcmitype/StillImage" />
        <dc:title></dc:title>
      </cc:Work>
    </rdf:RDF>
  </metadata>
  <g
     inkscape:label="Layer 1"
     inkscape:groupmode="layer"
     id="layer1">
    <path
       style="font-style:normal;font-variant:normal;font-weight:normal;font-stretch:normal;font-size:292.40866089px;line-height:1.25;font-family:'Trebuchet MS';-inkscape-font-specification:'Trebuchet MS';letter-spacing:0px;word-spacing:0px;fill:url(#radialGradient8059-0);fill-opacity:1;stroke:url(#radialGradient6617-2-3);stroke-width:1.70862055;stroke-opacity:1"
       d="m 150.5734,29.979642 c -10.84338,-0.004 -23.38148,0.17171 -32.12085,0.51955 -41.31284,2.41538 -76.85494,21.88268 -79.76865,53.71887 -1.73279,18.934308 3.24207,35.041278 27.40358,50.583078 6.75268,4.78738 16.99903,9.22062 22.43871,11.39655 6.36342,2.54531 22.57334,10.0484 10.36436,6.10341 -12.8595,-2.61272 -17.79174,-2.90881 -33.12507,-3.00943 -0.64978,-0.004 -0.55005,-0.004 -0.48266,-0.004 0.76264,0.009 2.30111,0.055 -9.39953,0.13125 v -0.10679 H 25.007038 L 24.72525,247.78639 56.71111,212.4224 c -0.14202,-0.13031 -0.28691,-0.26203 -0.42795,-0.39187 L 55.8833,171.54641 c 48.02053,-1.02201 71.00096,3.07366 81.73374,9.57707 23.89932,14.48159 19.08498,45.75694 -17.44342,51.19676 -29.29554,3.7467 -49.85202,-8.53704 -58.26585,-15.3549 l -37.334121,42.00681 -0.05739,14.51484 c 12.130091,-0.26767 22.631371,0.15807 31.478281,0.0282 0.53418,-11.11368 0.47495,-5.07726 0.5709,-13.97258 13.77449,0.0188 33.81249,0.17312 44.25513,-0.16371 23.01027,-0.34012 44.18232,-6.67513 55.07819,-13.74758 21.43319,-10.92565 25.77879,-34.79835 23.21024,-49.84958 -4.60843,-18.14672 -17.84837,-30.9197 -32.11534,-37.84829 -22.64168,-10.9957 -50.21333,-23.24948 -63.47615,-31.50478 -37.08599,-23.0843 -17.98834,-68.157178 26.95781,-71.950068 23.05768,-1.99797 34.0354,1.45824 48.05183,6.77325 l 25.96362,-30.37625 c -6.69559,-0.4281 -11.30952,-0.63833 -17.41778,-0.69685 -4.09909,-0.13031 -9.99467,-0.19617 -16.50072,-0.19805 z M 65.28283,149.28899 c -0.0497,0 -0.10128,-0.004 -0.13901,-0.004 v 0.004 z"
       id="path4941-3-9-7-6"
       inkscape:connector-curvature="0"
       sodipodi:nodetypes="ccscsccccccccccscccccccccsscccccccccc"
       inkscape:export-filename="C:\Users\CubeRyzen\Pictures\SSP11.png"
       inkscape:export-xdpi="96"
       inkscape:export-ydpi="96" />
    <g
       id="g6608-9-8"
       transform="matrix(1.5111051,0,0,1.4514943,-3300.5413,-1193.9926)"
       inkscape:export-filename="C:\Users\CubeRyzen\Pictures\SSP11.png"
       inkscape:export-xdpi="96"
       inkscape:export-ydpi="96"
       class="testClass">
      <path
         sodipodi:nodetypes="csccccscccc"
         inkscape:export-ydpi="96"
         inkscape:export-xdpi="96"
         inkscape:export-filename="C:\Users\CubeRyzen\Pictures\SSP11.png"
         id="path1100-4-7-7-0-3-9-4-4-2-0-4-6-2-9-9-0-7-4-5-6-5-5-9-3-8-8-6-9"
         d="m 2200.827,863.02088 c -4.1288,6.91555 -6.3364,15.19958 -6.6225,24.85239 -0.431,14.54137 5.9729,25.91117 19.2115,34.10975 12.2566,6.28202 27.0606,9.18327 37.6793,10.33444 31.6376,4.78707 56.4853,14.80756 57.9619,43.47268 0,5.11318 -1.0393,9.76848 -3.1169,13.96628 5.5833,-7.8229 8.3756,-17.49568 8.3756,-29.0193 0,-14.5898 -6.7764,-25.74776 -20.3265,-33.47453 -17.9303,-8.89966 -34.3744,-10.79554 -46.8203,-13.84686 -29.7197,-5.25444 -48.0587,-13.16354 -48.3662,-40.12659 0.1473,-3.67343 0.8229,-7.09571 2.0241,-10.26826 z"
         style="font-style:normal;font-variant:normal;font-weight:normal;font-stretch:normal;font-size:292.40866089px;line-height:1.25;font-family:'Trebuchet MS';-inkscape-font-specification:'Trebuchet MS';letter-spacing:0px;word-spacing:0px;fill:url(#linearGradient1060);fill-opacity:1;stroke:none;stroke-width:1.33597338;stroke-opacity:1"
         inkscape:connector-curvature="0" />
      <path
         inkscape:export-ydpi="96"
         inkscape:export-xdpi="96"
         inkscape:export-filename="C:\Users\CubeRyzen\Pictures\SSP11.png"
         id="path2088-4-7-4-3-7-8"
         d="m 2238.2842,839.67291 c -17.9906,3.86583 -30.4766,11.65289 -37.4613,23.35879 -1.1986,3.1695 -1.8729,6.58802 -2.02,10.25726 0.3075,26.96306 18.6463,34.8723 48.366,40.12674 12.057,2.95598 27.8664,4.82759 45.144,13.03279 -28.5898,-13.64795 -54.1243,-12.20967 -65.119,-23.98249 -7.2031,-6.76339 -10.3687,-19.53559 -10.4397,-29.25922 0.4329,-15.80975 7.7862,-26.98776 21.53,-33.53387 z"
         style="font-style:normal;font-variant:normal;font-weight:normal;font-stretch:normal;font-size:292.40866089px;line-height:1.25;font-family:'Trebuchet MS';-inkscape-font-specification:'Trebuchet MS';letter-spacing:0px;word-spacing:0px;fill:url(#linearGradient1062);fill-opacity:1;stroke:none;stroke-width:1.33597338;stroke-opacity:0.98994978"
         inkscape:connector-curvature="0" />
      <path
         inkscape:export-ydpi="96"
         inkscape:export-xdpi="96"
         inkscape:export-filename="C:\Users\CubeRyzen\Pictures\SSP11.png"
         id="path2046-7-5-7-1-4-8"
         d="m 2251.0472,932.31171 c 25.5384,6.92441 40.2984,24.53891 41.3887,43.55753 0,16.07148 -6.9983,27.62746 -20.9935,34.66926 15.9544,-3.9788 27.4539,-10.91038 34.5028,-20.79198 2.0744,-4.1953 3.1119,-8.8471 3.1119,-13.95628 -1.4766,-28.66512 -26.3242,-38.68576 -57.9618,-43.47284 -0.016,-0.003 -0.032,-0.004 -0.048,-0.006 z"
         style="font-style:normal;font-variant:normal;font-weight:normal;font-stretch:normal;font-size:292.40866089px;line-height:1.25;font-family:'Trebuchet MS';-inkscape-font-specification:'Trebuchet MS';letter-spacing:0px;word-spacing:0px;fill:url(#linearGradient1064);fill-opacity:1;stroke:none;stroke-width:1.33597338;stroke-opacity:0.98994978"
         inkscape:connector-curvature="0" />
    </g>
  </g>
</svg>
