<?xml version="1.0" encoding="UTF-8" standalone="no"?>
<!-- Created with Inkscape (http://www.inkscape.org/) -->

<svg
   xmlns:dc="http://purl.org/dc/elements/1.1/"
   xmlns:cc="http://creativecommons.org/ns#"
   xmlns:rdf="http://www.w3.org/1999/02/22-rdf-syntax-ns#"
   xmlns:svg="http://www.w3.org/2000/svg"
   xmlns="http://www.w3.org/2000/svg"
   xmlns:xlink="http://www.w3.org/1999/xlink"
   xmlns:sodipodi="http://sodipodi.sourceforge.net/DTD/sodipodi-0.dtd"
   xmlns:inkscape="http://www.inkscape.org/namespaces/inkscape"
   width="143.5652mm"
   height="144.46384mm"
   viewBox="0 0 143.5652 144.46384"
   version="1.1"
   id="svg10205"
   inkscape:version="0.92.4 (5da689c313, 2019-01-14)"
   sodipodi:docname="SSPLogoV3.0.svg">
  <defs
     id="defs10199">
    <radialGradient
       inkscape:collect="always"
       xlink:href="#linearGradient4854"
       id="radialGradient4856-8"
       cx="209.72514"
       cy="83.024063"
       fx="209.72514"
       fy="83.024063"
       r="72.740189"
       gradientUnits="userSpaceOnUse"
       gradientTransform="matrix(1.02034,-0.12763705,0.14712788,1.1761509,-102.58567,92.374368)" />
    <linearGradient
       inkscape:collect="always"
       id="linearGradient4854">
      <stop
         style="stop-color:#ffffff;stop-opacity:1"
         offset="0"
         id="stop4850" />
      <stop
         id="stop4862"
         offset="0.69648838"
         style="stop-color:#dbdbdb;stop-opacity:0.6156863" />
      <stop
         style="stop-color:#5a5a5a;stop-opacity:0"
         offset="1"
         id="stop4852" />
    </linearGradient>
  </defs>
  <sodipodi:namedview
     id="base"
     pagecolor="#ffffff"
     bordercolor="#666666"
     borderopacity="1.0"
     inkscape:pageopacity="0.0"
     inkscape:pageshadow="2"
     inkscape:zoom="0.35"
     inkscape:cx="-295.83855"
     inkscape:cy="327.28825"
     inkscape:document-units="px"
     inkscape:current-layer="layer1"
     showgrid="false"
     fit-margin-top="0"
     fit-margin-left="0"
     fit-margin-right="0"
     fit-margin-bottom="0"
     inkscape:window-width="1920"
     inkscape:window-height="1017"
     inkscape:window-x="-8"
     inkscape:window-y="208"
     inkscape:window-maximized="1" />
  <metadata
     id="metadata10202">
    <rdf:RDF>
      <cc:Work
         rdf:about="">
        <dc:format>image/svg+xml</dc:format>
        <dc:type
           rdf:resource="http://purl.org/dc/dcmitype/StillImage" />
        <dc:title></dc:title>
      </cc:Work>
    </rdf:RDF>
  </metadata>
  <g
     inkscape:label="Layer 1"
     inkscape:groupmode="layer"
     id="layer1"
     transform="translate(-51.437639,-90.964509)">
    <path
       inkscape:connector-curvature="0"
       id="path4822-4"
       style="opacity:1;fill:url(#radialGradient4856-8);fill-opacity:1;stroke:#070707;stroke-width:0.66899997;stroke-linejoin:round;stroke-miterlimit:4;stroke-dasharray:none;stroke-opacity:1;paint-order:normal"
       d="m 106.45614,216.52548 c -0.45833,2.6e-4 -0.91915,0.19972 -1.24798,0.66921 -0.60449,0.86301 -0.57697,1.28442 0.13022,1.9916 0.61414,0.61415 1.09115,0.71411 1.90841,0.4005 0.26799,-0.10284 0.61284,-0.51712 0.76636,-0.92088 0.44767,-1.17746 -0.54868,-2.14126 -1.55701,-2.14043 z m 16.46308,-19.52284 h 1.51722 1.51722 l 0.85731,0.95963 c 0.6045,0.67654 0.85731,1.26571 0.85731,1.99781 0,1.1933 -0.65104,2.62098 -1.31103,2.87424 -0.3085,0.11838 -0.45165,0.56989 -0.45165,1.42524 v 1.25212 l -2.5647,2.57659 -2.5647,2.57658 h -5.62653 -5.62602 l -0.38189,0.46044 c -0.53836,0.64869 -1.8891,1.30303 -2.68717,1.30173 -0.37162,-5.3e-4 -1.0969,-0.25811 -1.61179,-0.57206 v 5.3e-4 c -1.126,-0.68658 -1.56114,-1.42818 -1.56114,-2.65927 0,-1.98817 1.24961,-3.21546 3.283,-3.22513 l 1.37304,-0.007 0.88109,0.8816 0.8816,0.8816 h 4.95318 4.95319 l 1.68052,-1.6981 c 0.92414,-0.93387 1.68,-1.94093 1.68,-2.23809 0,-0.2972 -0.39681,-0.99246 -0.8816,-1.54462 -1.20885,-1.3768 -1.21736,-2.94812 -0.0238,-4.28398 z m 1.51722,-7.34478 c -0.78077,0 -1.10293,0.17318 -1.44022,0.77412 l -0.4346,0.77411 0.50333,0.76843 c 0.35487,0.5416 0.75976,0.76843 1.37149,0.76843 0.61174,0 1.01662,-0.22683 1.37149,-0.76843 l 0.50333,-0.76843 -0.4346,-0.77411 c -0.33729,-0.60094 -0.65944,-0.77412 -1.44022,-0.77412 z m 17.81597,-0.0863 c -0.74661,0.0472 -1.43558,0.59371 -1.43558,1.50379 0,1.73622 1.96721,2.34343 2.91352,0.89917 l 0.50385,-0.76843 -0.43253,-0.77411 c -0.35296,-0.63175 -0.96857,-0.89713 -1.54926,-0.86042 z m -71.782702,-0.0258 c -0.63974,0.007 -1.10708,0.41925 -1.39785,1.23507 -0.21394,0.60028 -0.15546,0.89943 0.26613,1.36529 0.6258,0.6915 1.98149,0.78699 2.48926,0.17518 0.19241,-0.23185 0.30774,-0.85778 0.25631,-1.39061 -0.073,-0.75666 -0.27357,-1.03145 -0.91674,-1.25626 -0.25146,-0.0879 -0.48387,-0.13097 -0.69711,-0.12867 z m 55.390412,-1.5043 0.8816,0.8816 c 0.67405,0.67405 1.1475,0.8816 2.01228,0.8816 h 1.1312 l 2.41743,2.42983 2.41742,2.43034 v 9.99008 9.9901 l -2.43034,2.41742 -2.42983,2.41742 H 119.76799 109.6761 l -1.00356,0.88161 c -1.11444,0.97849 -2.64053,1.16335 -3.88916,0.47128 -1.69292,-0.93831 -2.01542,-3.41308 -0.64441,-4.9475 l 0.85731,-0.95912 h 1.47381 1.47433 l 0.84336,0.80771 0.84336,0.80822 9.53275,-0.004 9.53276,-0.004 1.68982,-1.48931 1.6893,-1.48931 v -8.72559 -8.72608 l -1.69809,-1.68 c -0.93388,-0.92414 -1.93931,-1.68052 -2.23449,-1.68052 -0.29519,0 -0.92955,0.3308 -1.40973,0.73484 -1.62798,1.36985 -3.22318,1.3223 -4.68499,-0.13952 -0.62033,-0.62032 -0.84387,-1.12726 -0.84387,-1.9141 0,-2.14119 1.19047,-3.36556 3.28248,-3.3755 z m -55.308252,-0.1447 c 0.85318,-0.0207 1.65967,0.33753 2.35025,1.05833 l 0.8139,0.84957 h 14.715901 14.715901 l 2.41742,2.43034 2.41742,2.42983 v 1.13016 c 0,0.83697 0.22893,1.39088 0.8816,2.13424 0.6702,0.76331 0.8816,1.29014 0.8816,2.19831 v 1.19476 l -0.99942,0.99891 -0.9989,0.9989 h -1.23404 -1.23403 l -0.99891,-0.9989 -0.9989,-0.99891 v -1.19476 c 0,-0.90817 0.2114,-1.435 0.8816,-2.19831 0.48479,-0.55216 0.88108,-1.25474 0.88108,-1.56166 0,-0.30692 -0.76369,-1.31398 -1.69757,-2.23811 l -1.69809,-1.68052 H 87.637648 73.627138 l -0.29404,0.54932 c -0.16169,0.30214 -0.78067,0.7804 -1.37511,1.06247 l -1.08056,0.51263 -1.11724,-0.33486 c -1.49507,-0.44793 -2.32389,-1.54874 -2.32389,-3.08612 0,-1.47252 0.6289,-2.44757 1.9296,-2.99104 0.40042,-0.1673 0.79816,-0.25518 1.18597,-0.26458 z m 80.632812,-0.20257 0.93689,0.32659 c 2.15259,0.75041 3.04162,2.62793 2.14199,4.52376 -0.26992,0.56881 -0.67907,1.10654 -0.90899,1.19476 -0.26043,0.0999 -0.41806,0.58316 -0.41806,1.28158 v 1.12086 l 1.55184,1.53272 1.55185,1.53221 h 9.59321 9.59373 l 0.19275,-0.60772 c 0.26466,-0.83385 1.84381,-1.74016 3.03444,-1.74149 1.40904,-0.001 2.98225,1.60237 2.98225,3.04064 0,0.57415 -0.15782,1.39064 -0.35089,1.81436 -0.71072,1.55991 -3.32089,2.12358 -4.72374,1.02009 l -0.74724,-0.58756 h -10.39058 -10.39058 l -2.41742,-2.43034 -2.41794,-2.42983 v -1.48518 -1.48518 l -0.72554,-0.68213 c -0.39931,-0.37512 -0.87299,-1.12635 -1.05213,-1.66914 l -0.32557,-0.98703 0.53744,-1.09967 c 0.34362,-0.70319 0.93703,-1.29543 1.64486,-1.64125 z m 18.16736,-7.13755 c -0.19544,-0.005 -0.40241,0.0282 -0.6165,0.10956 -1.21686,0.46265 -1.46367,1.73096 -0.52038,2.67425 0.70719,0.70719 1.12807,0.73472 1.9911,0.13023 1.31453,-0.92075 0.51388,-2.87578 -0.85422,-2.91404 z M 70.539988,162.55101 c -0.14316,-4e-5 -0.29236,0.0227 -0.44545,0.0713 -1.34612,0.42724 -1.50309,2.56958 -0.22583,3.08353 0.8893,0.35784 0.87781,0.35902 1.61541,-0.15761 1.27791,-0.89509 0.43975,-2.99684 -0.94413,-2.99723 z m 0.23306,-1.54047 c 2.84408,0 4.10807,3.77795 1.92494,5.75365 l -0.56068,0.50746 v 5.18005 5.17953 l 1.55184,1.53272 c 0.85348,0.84288 1.79456,1.53221 2.09134,1.53221 0.29678,0 0.99143,-0.39628 1.54358,-0.88109 1.518631,-1.33338 3.603871,-1.16153 4.869989,0.40153 0.594892,0.73439 0.683631,3.04013 0.143661,3.72535 -1.03746,1.31656 -2.70954,1.77253 -4.240051,1.15652 -0.357599,-0.14392 -0.818789,-0.53239 -1.025269,-0.863 -0.28851,-0.46199 -0.68367,-0.60099 -1.70687,-0.60099 h -1.3317 l -2.41742,-2.43035 -2.41743,-2.42982 v -5.68441 -5.68441 l -0.8816,-1.00407 c -1.99779,-2.27536 -0.5786,-5.39088 2.45567,-5.39088 z m 120.525452,-13.88701 -1.6805,1.69809 -1.68,1.69808 v 26.47022 18.50688 a 71.955673,71.955673 0 0 0 6.7205,-21.36252 v -15.95923 l -0.73017,-0.68575 c -1.52048,-1.4284 -1.1072,-4.01528 0.74001,-5.04672 a 71.955673,71.955673 0 0 0 -0.63047,-3.91655 c -0.21315,-0.1527 -0.42268,-0.336 -0.62889,-0.55449 l -0.79997,-0.84801 h -1.0764 z M 79.604027,126.66068 c -0.348128,-0.0168 -0.69614,0.13681 -1.053158,0.45992 -0.610182,0.55222 -0.711881,1.86626 -0.185002,2.39313 0.4992,0.4992 1.871551,0.43686 2.41794,-0.10955 0.62883,-0.62883 0.579742,-1.47646 -0.12609,-2.1823 -0.357479,-0.35748 -0.705549,-0.54446 -1.05369,-0.5612 z m 81.499423,-1.45005 c 2.16625,0.006 4.00093,2.27755 3.09025,4.4571 -0.89333,2.13805 -3.46901,2.65951 -5.2803,1.06918 l -1.00355,-0.88108 H 121.52396 95.053738 l -1.69809,1.68 -1.698091,1.68052 v 0.3917 l 0.848011,0.79995 c 1.048771,0.98988 1.334511,2.04059 0.90692,3.33624 -0.44958,1.36222 -1.569701,2.17867 -2.988961,2.17867 -1.463839,0 -2.17624,-0.38418 -2.89388,-1.56114 -0.313949,-0.51488 -0.570259,-1.20074 -0.569989,-1.52394 0.0011,-0.80126 0.773361,-2.22147 1.47588,-2.71353 l 0.577739,-0.40463 v -1.942 l 2.417421,-2.43034 2.41794,-2.42982 h 27.321332 37.23752 l 0.29301,-0.54726 c 0.16111,-0.30103 0.69201,-0.71294 1.18029,-0.91519 0.40857,-0.16923 0.8215,-0.24556 1.22266,-0.24443 z m 17.29352,-0.0455 h 1.32188 l 0.85887,0.85887 0.85886,0.85886 v 1.33429 1.3348 l -0.88109,1.00355 -0.88159,1.00408 v 23.61974 23.62027 l -2.43035,2.41742 -2.42982,2.41742 h -1.13068 c -0.83696,0 -1.39089,0.22892 -2.13424,0.8816 -1.11445,0.9785 -2.64054,1.16335 -3.88917,0.47129 -0.9498,-0.52643 -1.47833,-1.56361 -1.49086,-2.92488 l -0.0104,-1.1312 0.99891,-0.99891 0.9989,-0.9989 h 1.19425 c 0.90817,0 1.435,0.2114 2.19832,0.8816 0.55215,0.4848 1.25582,0.88108 1.56321,0.88108 0.30738,0 1.24848,-0.69836 2.09135,-1.55184 l 1.5322,-1.55133 v -23.24457 -23.24406 l -0.4408,-0.1695 c -0.24264,-0.0931 -0.65683,-0.6215 -0.92035,-1.17409 -1.07133,-2.24659 0.47371,-4.59558 3.02255,-4.59558 z m -0.15451,-7.34528 c -0.99552,0 -1.50689,0.48534 -1.50689,1.43092 0,1.52992 1.59647,2.30874 2.69494,1.31465 1.11731,-1.01118 0.36671,-2.74557 -1.18805,-2.74557 z m -17.33486,0 c -0.99552,0 -1.50689,0.48534 -1.50689,1.43092 0,1.52992 1.59595,2.30874 2.69441,1.31465 1.11733,-1.01118 0.36726,-2.74557 -1.18752,-2.74557 z m -63.387863,-9.05629 c -0.349589,0.003 -0.713089,0.13286 -1.04593,0.43408 -0.61019,0.5522 -0.71189,1.86625 -0.185009,2.39313 0.4992,0.4992 1.871551,0.43737 2.417939,-0.10904 1.132891,-1.13288 0.0615,-2.73019 -1.187,-2.71817 z m 35.929073,-0.0522 c -1.39381,0 -2.17632,1.79913 -1.20509,2.77037 0.65518,0.65519 2.09152,0.59325 2.46599,-0.10645 0.64589,-1.20688 -0.0437,-2.66392 -1.2609,-2.66392 z m 27.43502,-1.53273 c 1.40486,-0.057 2.77798,0.75665 3.17396,2.24327 0.73399,2.75557 -2.00926,5.0956 -4.55217,3.88297 -0.5526,-0.26352 -1.08099,-0.67772 -1.17409,-0.92036 l -0.16898,-0.44131 h -10.99623 -10.99571 l -0.17312,0.45165 c -0.2214,0.57695 -1.635,1.31251 -2.51147,1.30689 -0.37163,-0.002 -0.99341,-0.16728 -1.38183,-0.3669 -2.62009,-1.34651 -2.44468,-5.07483 0.28164,-5.98051 1.22946,-0.40842 2.46026,-0.0886 3.50314,0.91054 l 0.77308,0.74052 h 10.58333 10.58385 l 0.69609,-0.74104 c 0.66125,-0.70388 1.51559,-1.05155 2.35851,-1.08572 z M 123.5042,91.299009 a 71.955673,71.955673 0 0 0 -33.409851,8.34367 c -0.0222,1.445031 -0.0341,3.203881 -0.0341,5.332501 v 9.77976 l 1.551329,1.53221 c 1.104821,1.09111 1.782069,1.53272 2.35076,1.53272 0.439319,0 0.798909,-0.13418 0.798909,-0.29817 0,-0.47903 1.83561,-1.46281 2.73214,-1.464 1.00543,-10e-4 2.423092,0.69775 2.658233,1.31052 l 0.17364,0.45165 h 28.95017 c 19.38375,0 28.94965,-0.0985 28.94965,-0.29817 0,-0.51173 1.86374,-1.46286 2.86908,-1.464 1.18033,-10e-4 2.95341,1.54815 3.02462,2.64325 0.10454,1.60752 -0.0518,2.13698 -0.87591,2.96106 l -0.85887,0.85886 h -1.3348 -1.33428 l -1.00408,-0.88159 -1.00407,-0.8816 h -28.51195 -28.51248 l -0.881082,0.8816 -0.8816,0.88159 h -1.367359 -1.367361 l -0.8816,-0.88159 -0.881081,-0.8816 h -1.232998 -1.232482 l -2.417429,-2.42983 -2.417421,-2.43034 v -10.18129 -4.38423 a 71.955673,71.955673 0 0 0 -6.170168,4.08347 v 5.16971 14.642 l 0.724509,0.56999 c 0.39843,0.31341 0.85526,1.04458 1.015441,1.62471 0.7366,2.66775 -2.001702,4.95539 -4.554241,3.80442 -1.90635,-0.85958 -2.38254,-3.7484 -0.85421,-5.18418 l 0.730179,-0.68575 v -14.13454 -3.56567 a 71.955673,71.955673 0 0 0 -6.298319,5.78517 l 0.4222,0.42427 v 5.74538 5.74539 l 0.73018,0.68575 c 2.55357,2.39895 -0.27922,6.62218 -3.5543,5.2989 -1.11114,-0.44895 -1.87689,-1.73798 -1.87689,-3.1595 v -1.31155 l 0.88108,-0.8232 0.8816,-0.82372 v -5.10719 -3.8008 a 71.955673,71.955673 0 0 0 -9.75857,14.40429 71.955673,71.955673 0 0 0 -4.64262,11.56932 l 0.78342,0.82114 1.66036,1.74098 h 5.06636 5.06584 l 0.94361,-0.8816 0.94361,-0.88108 h 1.26866 c 3.30626,0 4.57146,4.20606 1.77767,5.90971 -1.34584,0.8207 -2.61463,0.71095 -3.7977,-0.32763 h -5.29e-4 l -1.00356,-0.88108 h -5.697321 -5.69681 l -2.15904,-2.17093 a 71.955673,71.955673 0 0 0 -1.31155,6.36757 c 0.84087,0.0247 1.71234,0.40997 2.36574,1.10226 l 0.82218,0.87127 h 10.14408 10.14408 l 2.417429,2.42982 2.417421,2.43035 v 1.20871 1.20871 l 0.71985,0.4718 c 0.39598,0.25945 0.850881,0.9458 1.010801,1.52498 0.80959,2.93212 -2.069582,5.22943 -4.73873,3.78116 -0.882301,-0.47873 -1.692921,-1.80665 -1.692921,-2.77244 0,-0.7475 0.67327,-2.10583 1.30276,-2.62826 0.899169,-0.74626 0.550509,-1.85631 -1.09192,-3.47835 l -1.55185,-1.5322 h -9.56737 -9.56789 l -0.55966,0.62787 c -0.30784,0.3455 -0.98244,0.80707 -1.49913,1.02578 l -0.93948,0.3979 -0.86868,-0.29094 a 71.955673,71.955673 0 0 0 -0.13539,2.77555 c 0.33998,-0.0849 0.71502,-0.12919 1.12396,-0.12919 0.78683,0 1.29376,0.22354 1.9141,0.84387 1.4618,1.46181 1.50937,3.05701 0.13952,4.68499 l -0.73484,0.87333 v 10.41022 4.09329 a 71.955673,71.955673 0 0 0 14.74845,28.10474 v -3.55533 -3.54604 l -0.61236,-0.32763 c -0.59587,-0.3189 -1.45614,-1.93702 -1.43299,-2.69544 0.006,-0.20719 0.1947,-0.79784 0.41858,-1.31259 h -5.29e-4 c 0.75359,-1.73268 3.01984,-2.3472 4.75475,-1.28932 1.80595,1.1012 1.92936,3.93747 0.22944,5.27461 l -0.71313,0.56121 0.009,3.41271 0.006,6.32364 a 71.955673,71.955673 0 0 0 6.22133,5.82704 h 0.60099 5.08186 l 1.680009,-1.69757 c 0.92415,-0.93388 1.680512,-1.93975 1.680512,-2.23501 0,-0.29525 -0.327501,-0.79425 -0.727602,-1.10898 -0.400111,-0.31473 -0.87785,-1.07482 -1.06195,-1.6893 l -0.33487,-1.11724 0.514181,-1.08366 c 0.883639,-1.86211 2.952819,-2.46171 4.738219,-1.37304 1.80839,1.10269 1.928439,3.73403 0.242361,5.31802 -0.54306,0.51018 -0.726051,0.9856 -0.726051,1.88619 v 1.20406 l -2.430349,2.41743 -2.429819,2.41742 h -2.963651 a 71.955673,71.955673 0 0 0 9.357569,5.7919 71.955673,71.955673 0 0 0 5.165582,2.33887 v -11.03292 -13.81207 l -1.697572,-1.68052 -1.698091,-1.68 H 87.79733 82.760428 l -0.8816,0.88108 -0.8816,0.8816 H 79.67532 c -3.357081,0 -4.654931,-4.18794 -1.831421,-5.90972 1.345979,-0.82077 2.61455,-0.71171 3.797709,0.32711 l 1.00407,0.8816 h 5.697331 5.69681 l 2.417421,2.43035 2.41794,2.42982 v 13.79451 13.45189 a 71.955673,71.955673 0 0 0 13.89217,3.57085 l 0.0904,-0.23565 c 0.2935,-0.76481 2.01053,-1.45571 3.10679,-1.25005 1.02111,0.19156 2.10429,1.13103 2.5523,2.1456 a 71.955673,71.955673 0 0 0 2.80035,0.13746 c 0.13679,-0.44877 0.37706,-0.86954 0.73173,-1.22421 1.46086,-1.46085 3.2476,-1.51026 4.63021,-0.12764 l 0.72244,0.72243 h 5.96501 a 71.955673,71.955673 0 0 0 20.22927,-5.87664 h -15.65846 -28.41326 l -0.38189,0.45992 c -0.53836,0.64869 -1.8891,1.30302 -2.68717,1.30173 -0.37162,-5.3e-4 -1.0969,-0.2576 -1.61179,-0.57154 v 5.3e-4 c -1.126,-0.68658 -1.56114,-1.42818 -1.56114,-2.65927 0,-1.98817 1.24961,-3.21546 3.283,-3.22513 l 1.37304,-0.007 0.88109,0.8816 0.8816,0.88108 h 28.20654 21.44107 a 71.955673,71.955673 0 0 0 16.42587,-12.8692 l -0.59014,-0.58239 -1.55184,-1.53273 H 159.82649 146.0201 l -2.5647,-2.57658 -2.56471,-2.57659 v -5.79709 c 0,-3.7248 -0.10661,-5.79706 -0.29817,-5.79706 -0.47904,0 -1.46227,-1.83612 -1.46347,-2.73265 -0.002,-1.59278 0.89788,-2.6773 2.6944,-3.24632 0.82735,-0.26206 2.5323,0.37359 3.16725,1.18081 0.40059,0.50926 0.601,1.19921 0.601,2.06913 v 1.30534 l -0.8816,0.88109 -0.88108,0.8816 v 5.03742 5.0369 l 1.68,1.69809 1.68,1.69808 h 13.82551 13.825 l 2.41742,2.42983 0.4346,0.43666 a 71.955673,71.955673 0 0 0 7.3086,-9.90585 v -24.05228 -27.32185 l 2.43033,-2.41742 2.42983,-2.41742 h 1.00976 1.85105 l 0.20153,-0.28733 A 71.955673,71.955673 0 0 0 181.5916,120.75768 h -0.0925 l -0.94361,0.8816 -0.94361,0.88159 h -1.26865 c -0.93243,0 -1.50554,-0.19948 -2.16266,-0.7524 -2.16836,-1.82456 -0.97255,-5.2513 1.73633,-5.66942 a 71.955673,71.955673 0 0 0 -6.59805,-6.60115 v 9.51983 14.54382 l -2.42983,2.41794 -2.43034,2.41742 h -5.2927 c -6.17302,-0.32538 -5.95353,-0.35295 -20.94601,-0.35295 h -12.58838 l -0.55965,0.62787 c -0.51824,0.58162 -2.14882,1.44408 -2.68046,1.41748 -0.12639,-0.006 -0.64972,-0.1944 -1.16272,-0.41754 -2.13374,-0.92813 -2.6493,-3.61699 -1.00821,-5.25808 l 0.92398,-0.92398 h 1.30018 1.30018 l 0.98495,0.95499 0.98547,0.95497 h 11.07736 c 12.58799,0.0654 14.05227,-0.0118 21.3465,0.0589 h 5.13974 l 1.69757,-1.68051 1.69809,-1.68 V 119.0048 107.18382 a 71.955673,71.955673 0 0 0 -6.43269,-4.6328 h -2.41225 -5.4498 l -0.68574,0.73019 c -1.39708,1.48712 -3.95831,1.20234 -5.03277,-0.55965 -0.87082,-1.42805 -0.72436,-2.70335 0.44493,-3.872641 l 0.99942,-0.9989 h 1.37408 1.37408 l 0.8816,0.8816 0.88108,0.8816 h 2.48047 a 71.955673,71.955673 0 0 0 -0.96273,-0.54984 71.955673,71.955673 0 0 0 -19.50424,-6.52828 v 1.1529 l -0.8599,0.8971 c -1.47861,1.54335 -3.46134,1.44762 -4.98935,-0.24081 -0.85148,-0.94087 -1.36782,-0.76606 -3.19516,1.08055 l -1.68,1.69809 v 5.196071 5.19658 l 0.54725,0.293 c 1.43555,0.76828 1.54609,3.75633 0.18294,4.94079 -1.44218,1.25313 -2.95082,1.22919 -4.49637,-0.0713 l -0.87281,-0.73484 h -10.37198 -10.37198 l -0.791163,0.75809 c -1.0267,0.98364 -2.765589,1.21126 -3.866949,0.50591 -2.29766,-1.47149 -1.97939,-4.79569 0.560689,-5.85701 1.250262,-0.52238 2.591041,-0.17927 3.632343,0.92915 l 0.68212,0.72605 h 10.25519 10.25467 l 0.85887,-0.85886 0.85886,-0.85886 v -5.68545 -5.684921 l 2.43034,-2.41742 2.02158,-2.01125 a 71.955673,71.955673 0 0 0 -3.915,-0.18965 z" />
    <g
       transform="translate(-86.104711,80.230425)"
       id="g9657"
       style="fill:#666666;fill-opacity:1;stroke:#00d2ff;stroke-opacity:1">
      <path
         inkscape:connector-curvature="0"
         id="path9631"
         transform="scale(0.26458333)"
         d="m 827.78711,235.77539 c 7.72043,0.23122 14.95411,8.26329 11.35937,17.16016 -1.69681,4.19958 -6.56873,7.09375 -11.9414,7.09375 h -4.95703 l -3.11133,-3.33008 -3.11133,-3.33203 H 796.7207 777.41797 l -5.79297,5.86523 -5.79102,5.86524 v 20.11132 20.11329 l 1.66602,0.64062 c 0.91706,0.35187 2.48253,2.34698 3.47852,4.43555 4.04912,8.49105 -1.79042,17.37109 -11.42383,17.37109 h -4.99805 l -3.24609,-3.24609 -3.24414,-3.2461 v -5.04296 -5.04493 l 3.33007,-3.79492 3.33204,-3.79297 v -21.5332 -21.53125 l 9.18359,-9.13867 9.18555,-9.13672 h 21.71484 21.7168 l 2.59179,-2.75781 c 2.55007,-2.71443 5.64498,-3.819 8.66602,-3.72852 z"
         style="opacity:1;fill:#666666;fill-opacity:1;stroke:#00d2ff;stroke-width:2.52850389;stroke-linejoin:round;stroke-miterlimit:4;stroke-dasharray:none;stroke-opacity:1;paint-order:normal" />
      <path
         inkscape:connector-curvature="0"
         id="path9629"
         transform="scale(0.26458333)"
         d="m 920.80273,237.94727 c 1.92738,0.0652 3.84553,0.57967 5.61524,1.56054 3.58979,1.98966 5.58741,5.90973 5.63476,11.05469 l 0.0391,4.27539 -3.77539,3.77539 -3.77539,3.77539 h -4.51563 c -3.43245,0 -5.4236,-0.79899 -8.30859,-3.33203 -0.4938,-0.43356 -1.39999,-3.41524 -3.73438,-3.47852 -8.43341,-0.22858 -22.03501,0.14649 -22.92187,0.14649 -1.16175,0 -4.71865,2.63948 -7.9043,5.86523 l -5.79102,5.86524 v 42.59765 62.39649 l 1.66602,0.64062 c 0.91706,0.35188 2.48253,2.34702 3.47852,4.43555 4.04912,8.49104 -1.79042,17.37109 -11.42383,17.37109 h -4.99805 l -3.24609,-3.24609 -3.2461,-3.24609 v -5.04297 -5.04492 l 3.33203,-3.79493 3.33204,-3.79296 v -63.81641 -44.01758 l 9.18359,-9.13672 9.18555,-9.13672 h 4.27148 c 2.32842,0 16.32095,0.0317 24.88672,-0.19921 2.83589,-0.0765 3.18818,-2.48176 3.92969,-3.13282 2.63256,-2.31141 5.87364,-3.45051 9.08593,-3.34179 z"
         style="opacity:1;fill:#666666;fill-opacity:1;stroke:#00d2ff;stroke-width:2.52850389;stroke-linejoin:round;stroke-miterlimit:4;stroke-dasharray:none;stroke-opacity:1;paint-order:normal" />
      <path
         inkscape:connector-curvature="0"
         id="path9627"
         transform="scale(0.26458333)"
         d="m 723.8418,239.31055 c 7.72043,0.23122 14.95606,8.26328 11.36132,17.16015 -1.69681,4.19959 -6.56873,7.09571 -11.9414,7.09571 h -4.95703 l -3.11328,-3.33203 -3.11133,-3.33204 h -19.30469 -19.30273 l -5.79297,5.86524 -5.79102,5.86523 v 20.11328 20.11133 l 1.66797,0.64063 c 0.91707,0.35187 2.48058,2.34893 3.47656,4.4375 4.04912,8.49105 -1.79041,17.36914 -11.42382,17.36914 h -4.9961 l -3.24609,-3.2461 -3.2461,-3.24609 v -5.04297 -5.04492 l 3.33203,-3.79297 3.33008,-3.79492 v -21.5332 -21.53125 l 9.18555,-9.13672 9.18359,-9.13867 h 21.7168 21.71484 l 2.5918,-2.75782 c 2.55007,-2.71442 5.64498,-3.81899 8.66602,-3.72851 z"
         style="opacity:1;fill:#666666;fill-opacity:1;stroke:#00d2ff;stroke-width:2.52850389;stroke-linejoin:round;stroke-miterlimit:4;stroke-dasharray:none;stroke-opacity:1;paint-order:normal" />
      <path
         inkscape:connector-curvature="0"
         id="path9625"
         transform="scale(0.26458333)"
         d="m 956.59375,240.71875 h 4.99609 l 3.2461,3.24609 3.24609,3.2461 v 5.04492 5.04297 l -3.33008,3.79492 -3.33203,3.79492 v 21.53125 21.5332 l -9.18554,9.13672 -9.1836,9.13672 h -21.71484 -21.7168 l -2.5918,2.75977 c -9.06689,9.65129 -25.02871,-1.05534 -20.02734,-13.4336 1.69682,-4.19958 6.57069,-7.09375 11.94336,-7.09375 h 4.95703 l 3.11133,3.33204 3.11133,3.33203 h 19.30468 19.30274 l 5.79297,-5.86524 5.79101,-5.86523 V 283.2793 263.16602 l -1.66601,-0.63868 c -0.91707,-0.35187 -2.48254,-2.34893 -3.47852,-4.4375 -4.04912,-8.49105 1.79042,-17.37109 11.42383,-17.37109 z"
         style="opacity:1;fill:#666666;fill-opacity:1;stroke:#00d2ff;stroke-width:2.52850389;stroke-linejoin:round;stroke-miterlimit:4;stroke-dasharray:none;stroke-opacity:1;paint-order:normal" />
      <path
         inkscape:connector-curvature="0"
         id="path9621"
         transform="scale(0.26458333)"
         d="m 830.02148,302.23828 h 4.9961 l 3.24609,3.2461 3.2461,3.24609 v 5.04297 5.04492 l -3.33008,3.79297 -3.33203,3.79492 v 21.5332 21.53125 l -9.18555,9.13672 -9.18359,9.13867 h -21.71485 -21.71679 l -2.5918,2.75782 c -9.0669,9.65128 -25.02872,-1.0534 -20.02735,-13.43164 1.69682,-4.19959 6.57069,-7.09571 11.94336,-7.09571 h 4.95703 l 3.11133,3.33203 3.11133,3.33203 h 19.30469 19.30273 l 5.79297,-5.86523 5.79102,-5.86523 v -20.11133 -20.11328 l -1.66602,-0.64063 c -0.91706,-0.35187 -2.48253,-2.34893 -3.47851,-4.4375 -4.04913,-8.49105 1.79041,-17.36914 11.42382,-17.36914 z"
         style="opacity:1;fill:#666666;fill-opacity:1;stroke:#00d2ff;stroke-width:2.52850389;stroke-linejoin:round;stroke-miterlimit:4;stroke-dasharray:none;stroke-opacity:1;paint-order:normal" />
      <path
         inkscape:connector-curvature="0"
         id="path9617"
         transform="scale(0.26458333)"
         d="m 726.07617,305.77344 h 4.99805 l 3.24609,3.24609 3.2461,3.24609 v 5.04297 5.04493 l -3.33203,3.79492 -3.33204,3.79297 v 21.5332 21.53125 l -9.18359,9.13867 -9.18555,9.13672 h -21.71484 -21.71484 l -2.5918,2.75781 c -9.0669,9.65129 -25.02872,-1.05338 -20.02734,-13.43164 1.69681,-4.19957 6.56873,-7.09375 11.9414,-7.09375 h 4.95703 l 3.11133,3.33008 3.11328,3.33203 h 19.30274 19.30468 l 5.79102,-5.86523 5.79297,-5.86524 V 348.33398 328.2207 l -1.66797,-0.64062 c -0.91707,-0.35188 -2.48254,-2.34698 -3.47852,-4.43555 -4.04912,-8.49105 1.79042,-17.37109 11.42383,-17.37109 z"
         style="opacity:1;fill:#666666;fill-opacity:1;stroke:#00d2ff;stroke-width:2.52850389;stroke-linejoin:round;stroke-miterlimit:4;stroke-dasharray:none;stroke-opacity:1;paint-order:normal" />
    </g>
  </g>
</svg>
