<?xml version="1.0" encoding="UTF-8" standalone="no"?>
<!-- Created with Inkscape (http://www.inkscape.org/) -->

<svg
   xmlns:dc="http://purl.org/dc/elements/1.1/"
   xmlns:cc="http://creativecommons.org/ns#"
   xmlns:rdf="http://www.w3.org/1999/02/22-rdf-syntax-ns#"
   xmlns:svg="http://www.w3.org/2000/svg"
   xmlns="http://www.w3.org/2000/svg"
   xmlns:xlink="http://www.w3.org/1999/xlink"
   xmlns:sodipodi="http://sodipodi.sourceforge.net/DTD/sodipodi-0.dtd"
   xmlns:inkscape="http://www.inkscape.org/namespaces/inkscape"
   width="120.66107mm"
   height="178.27701mm"
   viewBox="0 0 120.66107 178.27701"
   version="1.1"
   id="svg2246"
   inkscape:version="0.92.4 (5da689c313, 2019-01-14)"
   sodipodi:docname="SSPLogoV2.6.svg">
  <defs
     id="defs2240">
    <linearGradient
       gradientTransform="matrix(0.10595624,0,0,0.11598324,-1573.881,116.85065)"
       inkscape:collect="always"
       xlink:href="#linearGradient2574"
       id="linearGradient1483-2-8-1-5-5-7-1-7-4-8-8-7"
       x1="15768"
       y1="488.51968"
       x2="16294.004"
       y2="30.640341"
       gradientUnits="userSpaceOnUse" />
    <linearGradient
       inkscape:collect="always"
       id="linearGradient2574">
      <stop
         style="stop-color:#ffffff;stop-opacity:1"
         offset="0"
         id="stop2570" />
      <stop
         style="stop-color:#9daaba;stop-opacity:1"
         offset="1"
         id="stop2572" />
    </linearGradient>
    <radialGradient
       inkscape:collect="always"
       xlink:href="#linearGradient1583"
       id="radialGradient1585"
       cx="363.23523"
       cy="148.06825"
       fx="363.23523"
       fy="148.06825"
       r="60.330433"
       gradientTransform="matrix(0.63896559,-0.76923531,0.70169118,0.58286004,-169.3054,346.43387)"
       gradientUnits="userSpaceOnUse" />
    <linearGradient
       id="linearGradient1583"
       inkscape:collect="always">
      <stop
         id="stop1579"
         offset="0"
         style="stop-color:#000000;stop-opacity:1" />
      <stop
         id="stop1581"
         offset="1"
         style="stop-color:#144692;stop-opacity:0.98823529" />
    </linearGradient>
    <radialGradient
       inkscape:collect="always"
       xlink:href="#linearGradient1599"
       id="radialGradient5891-6-8"
       cx="122.49937"
       cy="205.15445"
       fx="122.49937"
       fy="205.15445"
       r="60.330433"
       gradientTransform="matrix(1.2749762,-1.3624929,1.4807239,1.3856129,-306.12449,38.072398)"
       gradientUnits="userSpaceOnUse" />
    <linearGradient
       id="linearGradient1599"
       inkscape:collect="always">
      <stop
         id="stop1595"
         offset="0"
         style="stop-color:#000414;stop-opacity:1" />
      <stop
         id="stop1597"
         offset="1"
         style="stop-color:#a8a8a8;stop-opacity:1" />
    </linearGradient>
    <radialGradient
       inkscape:collect="always"
       xlink:href="#linearGradient1593"
       id="radialGradient5893-5-4"
       cx="97.977951"
       cy="199.68292"
       fx="97.977951"
       fy="199.68292"
       r="60.330482"
       gradientTransform="matrix(2.2339673,1.0918023,-0.83049757,1.6993045,92.099436,-293.68158)"
       gradientUnits="userSpaceOnUse" />
    <linearGradient
       inkscape:collect="always"
       id="linearGradient1593">
      <stop
         style="stop-color:#080f21;stop-opacity:0.99607843"
         offset="0"
         id="stop1589" />
      <stop
         style="stop-color:#939393;stop-opacity:1"
         offset="1"
         id="stop1591" />
    </linearGradient>
    <linearGradient
       gradientTransform="matrix(-0.51037667,0.07010464,-0.07673886,-0.55867522,2278.497,-162.35837)"
       inkscape:collect="always"
       xlink:href="#linearGradient1583"
       id="linearGradient1491-8-5-5-0-0-2-7-3-2-5-5-3-1"
       x1="4108.4053"
       y1="-78.807915"
       x2="4495.46"
       y2="-128.91109"
       gradientUnits="userSpaceOnUse" />
    <linearGradient
       gradientTransform="matrix(0.51037667,-0.07010464,0.07673886,0.55867522,-2032.277,435.93294)"
       inkscape:collect="always"
       xlink:href="#linearGradient1583"
       id="linearGradient1491-8-5-5-0-0-2-7-3-2-6-6-0"
       x1="4144.7954"
       y1="-82.776527"
       x2="4429.751"
       y2="-148.6944"
       gradientUnits="userSpaceOnUse" />
  </defs>
  <sodipodi:namedview
     id="base"
     pagecolor="#ffffff"
     bordercolor="#666666"
     borderopacity="1.0"
     inkscape:pageopacity="0.0"
     inkscape:pageshadow="2"
     inkscape:zoom="0.35"
     inkscape:cx="-301.97907"
     inkscape:cy="296.90143"
     inkscape:document-units="mm"
     inkscape:current-layer="layer1"
     showgrid="false"
     fit-margin-top="0"
     fit-margin-left="0"
     fit-margin-right="0"
     fit-margin-bottom="0"
     inkscape:window-width="1920"
     inkscape:window-height="1017"
     inkscape:window-x="-8"
     inkscape:window-y="208"
     inkscape:window-maximized="1" />
  <metadata
     id="metadata2243">
    <rdf:RDF>
      <cc:Work
         rdf:about="">
        <dc:format>image/svg+xml</dc:format>
        <dc:type
           rdf:resource="http://purl.org/dc/dcmitype/StillImage" />
        <dc:title></dc:title>
      </cc:Work>
    </rdf:RDF>
  </metadata>
  <g
     inkscape:label="Layer 1"
     inkscape:groupmode="layer"
     id="layer1"
     transform="translate(-62.889702,-49.111498)">
    <path
       inkscape:connector-curvature="0"
       style="font-style:normal;font-variant:normal;font-weight:normal;font-stretch:normal;font-size:292.40866089px;line-height:1.25;font-family:'Trebuchet MS';-inkscape-font-specification:'Trebuchet MS';letter-spacing:0px;word-spacing:0px;fill:url(#linearGradient1491-8-5-5-0-0-2-7-3-2-6-6-0);fill-opacity:1;stroke:#8a8484;stroke-width:0.52916664;stroke-miterlimit:4;stroke-dasharray:none;stroke-opacity:1"
       d="m 105.85567,64.167641 c -6.665813,5.09677 -11.083884,13.870142 -12.681684,21.860172 -0.627769,3.560601 -0.269071,9.20646 -0.2633,14.867047 3.447161,-22.432657 19.489984,-28.062909 45.798044,-27.782629 10.3057,0.1098 18.62562,0.752094 23.60899,-2.798027 4.03048,-2.871304 14.53895,-12.977815 8.58695,-13.35591 -6.11473,-0.388433 -9.90542,-0.517361 -17.87651,-0.744791 -7.79525,0.227548 -13.24494,0.180368 -22.00908,0.75101 -9.30737,0.606008 -19.17716,2.625958 -25.16341,7.203128 z"
       id="path1409-8-6-2-8-6-1-9-3-50-1-3-3-4"
       sodipodi:nodetypes="sccssscss" />
    <path
       inkscape:connector-curvature="0"
       style="font-style:normal;font-variant:normal;font-weight:normal;font-stretch:normal;font-size:292.40866089px;line-height:1.25;font-family:'Trebuchet MS';-inkscape-font-specification:'Trebuchet MS';letter-spacing:0px;word-spacing:0px;fill:url(#linearGradient1491-8-5-5-0-0-2-7-3-2-5-5-3-1);fill-opacity:1;stroke:#8a8484;stroke-width:0.52916664;stroke-miterlimit:4;stroke-dasharray:none;stroke-opacity:1"
       d="m 140.36464,209.40692 c 6.66582,-5.09678 11.08388,-13.87016 12.68168,-21.86018 0.62778,-3.5606 0.26909,-9.20646 0.2633,-14.86705 -3.44715,18.46391 -20.87327,26.99281 -42.39623,27.78263 -10.29311,0.52128 -19.888553,-3.26668 -28.275873,1.04735 -5.658201,2.9103 -17.62062,14.72849 -11.6686,15.10659 6.11474,0.38844 9.90542,0.51735 17.87652,0.7448 7.795239,-0.22755 17.591653,-0.18038 26.355793,-0.75102 9.30738,-0.60601 19.17717,-2.62595 25.16341,-7.20312 z"
       id="path1409-8-6-2-8-6-1-9-3-50-1-9-0-9-7"
       sodipodi:nodetypes="scccascss" />
    <path
       sodipodi:nodetypes="cscczasssccsssssc"
       inkscape:connector-curvature="0"
       id="path2723-6-9-3-8"
       d="m 138.49479,49.376981 c -49.200113,-0.14342 -74.306913,16.87622 -75.320213,51.058979 -0.431,14.54137 5.973,25.91117 19.2116,34.10975 29.784003,16.46016 69.847293,4.44615 71.240893,41.04189 -0.23196,21.31582 -23.71976,29.58683 -36.54976,30.79051 -12.83,1.20367 -21.026814,-2.52109 -29.584793,2.44652 -6.06887,3.52276 -20.73279,16.78291 -11.911641,17.35746 9.841801,0.64103 23.4371,0.94183 26.502804,0.94183 54.13469,0 81.20241,-17.94143 81.20241,-53.8242 0,-14.58976 -6.77621,-25.74767 -20.32631,-33.47447 C 124.68249,120.82633 93.176878,133.74703 92.885678,99.202102 93.516177,77.930624 105.81608,67.35412 137.34199,67.653651 c 13.40151,0.127329 14.55733,0.204601 20.04795,-2.572973 5.7088,-2.887955 13.50055,-12.833654 11.44894,-15.056866 -0.55504,-0.601467 -6.04152,-0.525936 -18.86096,-0.634756 -2.53782,-0.02154 -9.06333,-0.005 -11.48313,-0.01208 z"
       style="font-style:normal;font-variant:normal;font-weight:normal;font-stretch:normal;font-size:292.40866089px;line-height:1.25;font-family:'Trebuchet MS';-inkscape-font-specification:'Trebuchet MS';letter-spacing:0px;word-spacing:0px;fill:url(#radialGradient5893-5-4);fill-opacity:1;stroke:#8a8484;stroke-width:0.52916664;stroke-miterlimit:4;stroke-dasharray:none;stroke-opacity:1" />
    <path
       inkscape:connector-curvature="0"
       style="font-style:normal;font-variant:normal;font-weight:normal;font-stretch:normal;font-size:292.40866089px;line-height:1.25;font-family:'Trebuchet MS';-inkscape-font-specification:'Trebuchet MS';letter-spacing:0px;word-spacing:0px;fill:url(#radialGradient5891-6-8);fill-opacity:1;stroke:#8a8484;stroke-width:0.52916664;stroke-miterlimit:4;stroke-dasharray:none;stroke-opacity:1"
       d="m 107.25458,52.235881 c -28.615803,6.148973 -43.309603,22.2154 -44.079803,48.200209 -0.431,14.54136 5.9729,25.91116 19.2115,34.10975 6.4634,3.57199 13.410701,5.80211 20.341903,7.48001 6.5285,0.86269 12.9754,1.52346 19.03,2.86489 21.64109,4.79462 38.63759,14.83082 39.64781,43.54109 0,16.07148 -6.9981,27.62786 -20.99332,34.66955 28.5822,-7.12784 42.87352,-23.72831 42.87352,-49.80152 0,-14.58979 -6.77641,-25.74769 -20.3265,-33.47447 -29.26482,-14.52551 -54.57041,-10.3939 -64.995214,-23.08059 -7.563598,-6.02752 -11.853299,-15.27706 -11.975599,-30.975308 0.4329,-15.809771 7.5219,-26.987518 21.265703,-33.533611 z"
       id="path1105-2-74-5-0-2-9-8-6-2-5-2-8-4-5-7-9-5" />
    <path
       inkscape:connector-curvature="0"
       style="font-style:normal;font-variant:normal;font-weight:normal;font-stretch:normal;font-size:292.40866089px;line-height:1.25;font-family:'Trebuchet MS';-inkscape-font-specification:'Trebuchet MS';letter-spacing:0px;word-spacing:0px;fill:url(#radialGradient1585);fill-opacity:1;stroke:#8a8484;stroke-width:0.52916664;stroke-miterlimit:4;stroke-dasharray:none;stroke-opacity:1"
       d="m 69.797277,75.583682 c -4.1288,6.915552 -6.3364,15.19959 -6.6225,24.852408 -0.431,14.54136 5.9729,25.91116 19.2115,34.10975 8.747301,4.83417 18.380703,7.21144 27.661203,9.08629 3.4016,0.35342 6.7498,0.7536 10.0181,1.24813 31.63761,4.78707 56.4853,14.80751 57.9619,43.4726 0,5.1132 -1.03929,9.76856 -3.1169,13.96632 5.58331,-7.82287 8.37561,-17.49573 8.37561,-29.01932 0,-14.58979 -6.77641,-25.74769 -20.3265,-33.47447 -17.9303,-8.89966 -34.3744,-10.79552 -46.82031,-13.84685 -29.719703,-5.25445 -48.058703,-13.16356 -48.366203,-40.126588 0.1473,-3.673448 0.8229,-7.09572 2.0241,-10.26827 z"
       id="path1100-4-7-7-0-3-9-4-4-2-0-4-6-2-7-7-5-2" />
    <path
       inkscape:connector-curvature="0"
       style="font-style:normal;font-variant:normal;font-weight:normal;font-stretch:normal;font-size:292.40866089px;line-height:1.25;font-family:'Trebuchet MS';-inkscape-font-specification:'Trebuchet MS';letter-spacing:0px;word-spacing:0px;fill:url(#linearGradient1483-2-8-1-5-5-7-1-7-4-8-8-7);fill-opacity:1;stroke:#8a8484;stroke-width:0.52916664;stroke-miterlimit:4;stroke-dasharray:none;stroke-opacity:1"
       d="m 115.09038,114.48315 c -0.81504,0.005 -1.79151,0.0283 -8.1996,0.0723 v -0.0578 h -9.754243 c 1.926029,5.54082 10.803593,8.92017 15.572133,11.10554 3.50956,-0.1298 13.60965,-0.20644 13.9216,-0.21251 16.82659,-0.32677 20.44976,2.76299 20.11911,14.56154 3.57527,-5.47548 4.15145,-6.41096 8.56815,-13.51707 -0.034,-5.45252 -3.77359,-10.72093 -15.62386,-11.41834 -6.7499,-0.39724 -15.75902,-0.47738 -23.64683,-0.53118 -0.43103,-0.003 -0.68478,-0.004 -0.95646,-0.002 z m 31.45686,29.57977 c -2.71935,6.08072 -8.97166,5.08581 -18.53077,5.04139 -6.30077,-0.0293 -11.01193,-0.0899 -21.12569,-0.61067 v -5.65346 c -3.09684,-0.75182 -4.68242,-0.95431 -7.505774,-1.65802 -1.996099,-0.49752 -5.33172,-1.54282 -5.49986,-1.65013 l -0.0969,35.63505 6.126883,-0.0278 c 3.475441,-5.92849 3.806391,-9.13561 6.975621,-15.22984 7.55702,-0.23463 11.86791,-0.10908 14.52644,-0.1337 9.3716,-0.0867 23.04843,-0.50347 27.29928,-2.22923 4.59582,-1.86585 8.11294,-5.13677 7.07607,-27.38632 -3.61214,5.84166 -5.64174,8.79128 -9.24532,13.90274 z"
       id="path1398-6-7-4-0-1-0-1-5-4-8-8-4-1"
       sodipodi:nodetypes="cccccsccsccccsccscccccscc" />
  </g>
</svg>
