<?xml version="1.0" encoding="UTF-8" standalone="no"?>
<!-- Created with Inkscape (http://www.inkscape.org/) -->

<svg
   xmlns:dc="http://purl.org/dc/elements/1.1/"
   xmlns:cc="http://creativecommons.org/ns#"
   xmlns:rdf="http://www.w3.org/1999/02/22-rdf-syntax-ns#"
   xmlns:svg="http://www.w3.org/2000/svg"
   xmlns="http://www.w3.org/2000/svg"
   xmlns:xlink="http://www.w3.org/1999/xlink"
   xmlns:sodipodi="http://sodipodi.sourceforge.net/DTD/sodipodi-0.dtd"
   xmlns:inkscape="http://www.inkscape.org/namespaces/inkscape"
   width="120.66107mm"
   height="178.27701mm"
   viewBox="0 0 120.66107 178.27701"
   version="1.1"
   id="svg2949"
   inkscape:version="0.92.4 (5da689c313, 2019-01-14)"
   sodipodi:docname="SSPLogoV2.7.svg">
  <defs
     id="defs2943">
    <linearGradient
       gradientTransform="matrix(0.14682417,0,0,0.16071864,-2235.151,109.84059)"
       inkscape:collect="always"
       xlink:href="#linearGradient2897"
       id="linearGradient1483-2-8-1-5-5-7-1-7-4-8-8-7"
       x1="15768"
       y1="488.51968"
       x2="16294.004"
       y2="30.640341"
       gradientUnits="userSpaceOnUse" />
    <linearGradient
       id="linearGradient2897"
       inkscape:collect="always">
      <stop
         id="stop2893"
         offset="0"
         style="stop-color:#ededed;stop-opacity:1" />
      <stop
         id="stop2895"
         offset="1"
         style="stop-color:#9daaba;stop-opacity:1" />
    </linearGradient>
    <radialGradient
       inkscape:collect="always"
       xlink:href="#linearGradient1583"
       id="radialGradient1585"
       cx="363.23523"
       cy="148.06825"
       fx="363.23523"
       fy="148.06825"
       r="60.330433"
       gradientTransform="matrix(0.63896559,-0.76923531,0.70169118,0.58286004,-175.35302,350.21363)"
       gradientUnits="userSpaceOnUse" />
    <linearGradient
       id="linearGradient1583"
       inkscape:collect="always">
      <stop
         id="stop1579"
         offset="0"
         style="stop-color:#000000;stop-opacity:1" />
      <stop
         id="stop1581"
         offset="1"
         style="stop-color:#144692;stop-opacity:0.98823529" />
    </linearGradient>
    <radialGradient
       inkscape:collect="always"
       xlink:href="#linearGradient1599"
       id="radialGradient5891-6-8"
       cx="122.49937"
       cy="205.15445"
       fx="122.49937"
       fy="205.15445"
       r="60.330433"
       gradientTransform="matrix(1.2749762,-1.3624929,1.4807239,1.3856129,-312.17211,41.85216)"
       gradientUnits="userSpaceOnUse" />
    <linearGradient
       id="linearGradient1599"
       inkscape:collect="always">
      <stop
         id="stop1595"
         offset="0"
         style="stop-color:#000414;stop-opacity:1" />
      <stop
         id="stop1597"
         offset="1"
         style="stop-color:#a8a8a8;stop-opacity:1" />
    </linearGradient>
    <radialGradient
       inkscape:collect="always"
       xlink:href="#linearGradient1593"
       id="radialGradient5893-5-4"
       cx="97.977951"
       cy="199.68292"
       fx="97.977951"
       fy="199.68292"
       r="60.330482"
       gradientTransform="matrix(2.2339673,1.0918023,-0.83049757,1.6993045,86.051817,-289.90182)"
       gradientUnits="userSpaceOnUse" />
    <linearGradient
       inkscape:collect="always"
       id="linearGradient1593">
      <stop
         style="stop-color:#080f21;stop-opacity:0.99607843"
         offset="0"
         id="stop1589" />
      <stop
         style="stop-color:#939393;stop-opacity:1"
         offset="1"
         id="stop1591" />
    </linearGradient>
    <linearGradient
       gradientTransform="matrix(-0.51037667,0.07010464,-0.07673886,-0.55867522,2272.4494,-158.57861)"
       inkscape:collect="always"
       xlink:href="#linearGradient1583"
       id="linearGradient1491-8-5-5-0-0-2-7-3-2-5-5-3-1"
       x1="4108.4053"
       y1="-78.807915"
       x2="4495.46"
       y2="-128.91109"
       gradientUnits="userSpaceOnUse" />
    <linearGradient
       gradientTransform="matrix(0.51037667,-0.07010464,0.07673886,0.55867522,-2038.3246,439.7127)"
       inkscape:collect="always"
       xlink:href="#linearGradient1583"
       id="linearGradient1491-8-5-5-0-0-2-7-3-2-6-6-0"
       x1="4144.7954"
       y1="-82.776527"
       x2="4429.751"
       y2="-148.6944"
       gradientUnits="userSpaceOnUse" />
  </defs>
  <sodipodi:namedview
     id="base"
     pagecolor="#ffffff"
     bordercolor="#666666"
     borderopacity="1.0"
     inkscape:pageopacity="0.0"
     inkscape:pageshadow="2"
     inkscape:zoom="0.35"
     inkscape:cx="-279.12193"
     inkscape:cy="311.18714"
     inkscape:document-units="mm"
     inkscape:current-layer="layer1"
     showgrid="false"
     fit-margin-top="0"
     fit-margin-left="0"
     fit-margin-right="0"
     fit-margin-bottom="0"
     inkscape:window-width="1920"
     inkscape:window-height="1017"
     inkscape:window-x="-8"
     inkscape:window-y="208"
     inkscape:window-maximized="1" />
  <metadata
     id="metadata2946">
    <rdf:RDF>
      <cc:Work
         rdf:about="">
        <dc:format>image/svg+xml</dc:format>
        <dc:type
           rdf:resource="http://purl.org/dc/dcmitype/StillImage" />
        <dc:title></dc:title>
      </cc:Work>
    </rdf:RDF>
  </metadata>
  <g
     inkscape:label="Layer 1"
     inkscape:groupmode="layer"
     id="layer1"
     transform="translate(-56.842083,-52.89126)">
    <path
       inkscape:connector-curvature="0"
       style="font-style:normal;font-variant:normal;font-weight:normal;font-stretch:normal;font-size:292.40866089px;line-height:1.25;font-family:'Trebuchet MS';-inkscape-font-specification:'Trebuchet MS';letter-spacing:0px;word-spacing:0px;fill:url(#linearGradient1491-8-5-5-0-0-2-7-3-2-6-6-0);fill-opacity:1;stroke:#8a8484;stroke-width:0.52916664;stroke-miterlimit:4;stroke-dasharray:none;stroke-opacity:1"
       d="m 99.808047,67.947403 c -6.665809,5.09677 -11.08388,13.870142 -12.68168,21.860172 -0.627769,3.560601 -0.269071,9.20646 -0.2633,14.867055 3.447161,-22.432665 19.489983,-28.062917 45.798043,-27.782637 10.3057,0.1098 18.62562,0.752094 23.60899,-2.798027 4.03048,-2.871304 14.53895,-12.977816 8.58695,-13.35591 -6.11473,-0.388433 -9.90542,-0.517361 -17.87651,-0.744791 -7.79525,0.227548 -13.24494,0.180368 -22.00908,0.75101 -9.30737,0.606008 -19.17716,2.625958 -25.163413,7.203128 z"
       id="path1409-8-6-2-8-6-1-9-3-50-1-3-3-4"
       sodipodi:nodetypes="sccssscss" />
    <path
       inkscape:connector-curvature="0"
       style="font-style:normal;font-variant:normal;font-weight:normal;font-stretch:normal;font-size:292.40866089px;line-height:1.25;font-family:'Trebuchet MS';-inkscape-font-specification:'Trebuchet MS';letter-spacing:0px;word-spacing:0px;fill:url(#linearGradient1491-8-5-5-0-0-2-7-3-2-5-5-3-1);fill-opacity:1;stroke:#8a8484;stroke-width:0.52916664;stroke-miterlimit:4;stroke-dasharray:none;stroke-opacity:1"
       d="m 134.31702,213.18668 c 6.66582,-5.09678 11.08388,-13.87016 12.68168,-21.86018 0.62778,-3.5606 0.26909,-9.20646 0.2633,-14.86705 -3.44715,18.46391 -20.87327,26.99281 -42.39623,27.78263 -10.293112,0.52128 -19.888552,-3.26668 -28.275872,1.04735 -5.658201,2.9103 -17.62062,14.72849 -11.6686,15.10659 6.11474,0.38844 9.90542,0.51735 17.87652,0.7448 7.795239,-0.22755 17.591652,-0.18038 26.355792,-0.75102 9.30738,-0.60601 19.17717,-2.62595 25.16341,-7.20312 z"
       id="path1409-8-6-2-8-6-1-9-3-50-1-9-0-9-7"
       sodipodi:nodetypes="scccascss" />
    <path
       sodipodi:nodetypes="cscczasssccsssssc"
       inkscape:connector-curvature="0"
       id="path2723-6-9-3-8"
       d="m 132.44717,53.156743 c -49.200112,-0.14342 -74.306912,16.87622 -75.320212,51.058987 -0.431,14.54136 5.973,25.91116 19.2116,34.10974 29.784002,16.46016 69.847292,4.44615 71.240892,41.04189 -0.23196,21.31582 -23.71976,29.58683 -36.54976,30.79051 -12.830002,1.20367 -21.026813,-2.52109 -29.584792,2.44652 -6.06887,3.52276 -20.73279,16.78291 -11.911641,17.35746 9.841801,0.64103 23.4371,0.94183 26.5028,0.94183 54.134693,0 81.202413,-17.94143 81.202413,-53.8242 0,-14.58976 -6.77621,-25.74767 -20.32631,-33.47447 -38.27729,-18.99892 -69.782901,-6.07822 -70.074101,-40.62315 0.630499,-21.271474 12.930399,-31.847978 44.456311,-31.548447 13.40151,0.127329 14.55733,0.204601 20.04795,-2.572973 5.7088,-2.887955 13.50055,-12.833655 11.44894,-15.056866 -0.55504,-0.601467 -6.04152,-0.525936 -18.86096,-0.634756 -2.53782,-0.02154 -9.06333,-0.005 -11.48313,-0.01208 z"
       style="font-style:normal;font-variant:normal;font-weight:normal;font-stretch:normal;font-size:292.40866089px;line-height:1.25;font-family:'Trebuchet MS';-inkscape-font-specification:'Trebuchet MS';letter-spacing:0px;word-spacing:0px;fill:url(#radialGradient5893-5-4);fill-opacity:1;stroke:#8a8484;stroke-width:0.52916664;stroke-miterlimit:4;stroke-dasharray:none;stroke-opacity:1" />
    <path
       inkscape:connector-curvature="0"
       style="font-style:normal;font-variant:normal;font-weight:normal;font-stretch:normal;font-size:292.40866089px;line-height:1.25;font-family:'Trebuchet MS';-inkscape-font-specification:'Trebuchet MS';letter-spacing:0px;word-spacing:0px;fill:url(#radialGradient5891-6-8);fill-opacity:1;stroke:#8a8484;stroke-width:0.52916664;stroke-miterlimit:4;stroke-dasharray:none;stroke-opacity:1"
       d="m 101.20696,56.015643 c -28.615802,6.148973 -43.309602,22.2154 -44.079802,48.200207 -0.431,14.54136 5.9729,25.91116 19.2115,34.10975 6.4634,3.57199 13.410701,5.80211 20.341901,7.48001 6.528501,0.86269 12.975401,1.52346 19.030001,2.86489 21.64109,4.79462 38.63759,14.83082 39.64781,43.54109 0,16.07148 -6.9981,27.62786 -20.99332,34.66955 28.5822,-7.12784 42.87352,-23.72831 42.87352,-49.80152 0,-14.58979 -6.77641,-25.74769 -20.3265,-33.47447 -29.26482,-14.52551 -54.57041,-10.3939 -64.995213,-23.08059 -7.563598,-6.02752 -11.853299,-15.27705 -11.975599,-30.975306 0.4329,-15.809771 7.5219,-26.987518 21.265702,-33.533611 z"
       id="path1105-2-74-5-0-2-9-8-6-2-5-2-8-4-5-7-9-5" />
    <path
       inkscape:connector-curvature="0"
       style="font-style:normal;font-variant:normal;font-weight:normal;font-stretch:normal;font-size:292.40866089px;line-height:1.25;font-family:'Trebuchet MS';-inkscape-font-specification:'Trebuchet MS';letter-spacing:0px;word-spacing:0px;fill:url(#radialGradient1585);fill-opacity:1;stroke:#8a8484;stroke-width:0.52916664;stroke-miterlimit:4;stroke-dasharray:none;stroke-opacity:1"
       d="m 63.749658,79.363444 c -4.1288,6.915552 -6.3364,15.19959 -6.6225,24.852406 -0.431,14.54136 5.9729,25.91116 19.2115,34.10975 8.747301,4.83417 18.3807,7.21144 27.661202,9.08629 3.4016,0.35342 6.7498,0.7536 10.0181,1.24813 31.63761,4.78707 56.4853,14.80751 57.9619,43.4726 0,5.1132 -1.03929,9.76856 -3.1169,13.96632 5.58331,-7.82287 8.37561,-17.49573 8.37561,-29.01932 0,-14.58979 -6.77641,-25.74769 -20.3265,-33.47447 -17.9303,-8.89966 -34.3744,-10.79552 -46.82031,-13.84685 -29.719702,-5.25445 -48.058702,-13.16356 -48.366202,-40.126586 0.1473,-3.673448 0.8229,-7.09572 2.0241,-10.26827 z"
       id="path1100-4-7-7-0-3-9-4-4-2-0-4-6-2-7-7-5-2" />
    <path
       inkscape:connector-curvature="0"
       style="font-style:normal;font-variant:normal;font-weight:normal;font-stretch:normal;font-size:292.40866089px;line-height:1.25;font-family:'Trebuchet MS';-inkscape-font-specification:'Trebuchet MS';letter-spacing:0px;word-spacing:0px;fill:url(#linearGradient1483-2-8-1-5-5-7-1-7-4-8-8-7);fill-opacity:1;stroke:#8a8484;stroke-width:0.73326921;stroke-miterlimit:4;stroke-dasharray:none;stroke-opacity:1"
       d="m 105.2662,106.55993 c -1.1294,0.007 -2.4825,0.0392 -11.362232,0.10018 -2.0995,0.0106 -3.866261,-0.0457 -6.767941,-0.0801 0.26348,3.6689 1.206212,10.89075 6.34402,15.38901 4.863211,-0.17987 27.344773,-0.28607 27.777053,-0.29447 23.3167,-0.45282 28.33734,3.82869 27.87916,20.178 4.95427,-7.5874 5.75269,-8.8837 11.87293,-18.73068 -0.0471,-7.55559 -5.22908,-14.85605 -21.65007,-15.82245 -9.35337,-0.55046 -21.83736,-0.66151 -32.76754,-0.73606 -0.59728,-0.004 -0.94891,-0.006 -1.32538,-0.003 z m 43.58995,40.98885 c -3.76822,8.42609 -12.43208,7.04743 -25.67819,6.98588 -8.73101,-0.0406 -15.25929,-0.12457 -29.273992,-0.84621 v -8.44488 c -3.706931,-0.97521 -7.61053,-2.3136 -10.73488,-3.53743 -2.654261,-1.03968 -7.287091,-3.55414 -7.287091,-3.55414 l -0.13428,52.49799 8.490051,-0.0385 c 4.81594,-8.21515 5.27454,-12.65927 9.66616,-21.10408 10.471812,-0.32513 16.445432,-0.15115 20.129372,-0.18527 12.98628,-0.12014 31.93834,-0.69766 37.82877,-3.08905 6.36845,-2.58552 11.24214,-7.11806 9.80535,-37.94938 -5.00536,8.09482 -7.81779,12.18212 -12.81129,19.2651 z"
       id="path1398-6-7-4-0-1-0-1-5-4-8-8-4-1"
       sodipodi:nodetypes="ccccsccsccccsccscccccsccc" />
  </g>
</svg>
