<?xml version="1.0" encoding="UTF-8" standalone="no"?>
<!-- Created with Inkscape (http://www.inkscape.org/) -->

<svg
   xmlns:dc="http://purl.org/dc/elements/1.1/"
   xmlns:cc="http://creativecommons.org/ns#"
   xmlns:rdf="http://www.w3.org/1999/02/22-rdf-syntax-ns#"
   xmlns:svg="http://www.w3.org/2000/svg"
   xmlns="http://www.w3.org/2000/svg"
   xmlns:xlink="http://www.w3.org/1999/xlink"
   xmlns:sodipodi="http://sodipodi.sourceforge.net/DTD/sodipodi-0.dtd"
   xmlns:inkscape="http://www.inkscape.org/namespaces/inkscape"
   width="155.23955mm"
   height="220.62454mm"
   viewBox="0 0 155.23955 220.62454"
   version="1.1"
   id="svg958"
   sodipodi:docname="SSPLogoV2.17.svg"
   inkscape:version="0.92.4 (5da689c313, 2019-01-14)">
  <defs
     id="defs952">
    <linearGradient
       inkscape:collect="always"
       id="linearGradient1629">
      <stop
         style="stop-color:#000000;stop-opacity:1"
         offset="0"
         id="stop1625" />
      <stop
         style="stop-color:#1472ff;stop-opacity:0.98823529"
         offset="1"
         id="stop1627" />
    </linearGradient>
    <linearGradient
       inkscape:collect="always"
       xlink:href="#linearGradient1275"
       id="linearGradient4565"
       gradientUnits="userSpaceOnUse"
       gradientTransform="translate(-262.06187,200.45168)"
       x1="568.61731"
       y1="105.68604"
       x2="473.65939"
       y2="150.91965" />
    <linearGradient
       id="linearGradient1275"
       inkscape:collect="always">
      <stop
         id="stop1271"
         offset="0"
         style="stop-color:#818181;stop-opacity:1" />
      <stop
         id="stop1273"
         offset="1"
         style="stop-color:#d5d5d5;stop-opacity:1" />
    </linearGradient>
    <filter
       style="color-interpolation-filters:sRGB"
       inkscape:label="Drop Shadow"
       id="filter4640">
      <feFlood
         flood-opacity="1"
         flood-color="rgb(0,0,0)"
         result="flood"
         id="feFlood4630" />
      <feComposite
         in="flood"
         in2="SourceGraphic"
         operator="in"
         result="composite1"
         id="feComposite4632" />
      <feGaussianBlur
         in="composite1"
         stdDeviation="2.9"
         result="blur"
         id="feGaussianBlur4634" />
      <feOffset
         dx="2.3"
         dy="2.6"
         result="offset"
         id="feOffset4636" />
      <feComposite
         in="SourceGraphic"
         in2="offset"
         operator="over"
         result="composite2"
         id="feComposite4638" />
    </filter>
    <radialGradient
       inkscape:collect="always"
       xlink:href="#linearGradient880"
       id="radialGradient874"
       gradientUnits="userSpaceOnUse"
       gradientTransform="matrix(-0.06303593,-0.57705281,0.95101719,-0.10388695,-69.2645,540.62903)"
       cx="247.9549"
       cy="384.55914"
       fx="247.9549"
       fy="384.55914"
       r="36.851158" />
    <linearGradient
       id="linearGradient880"
       inkscape:collect="always">
      <stop
         id="stop876"
         offset="0"
         style="stop-color:#212121;stop-opacity:1" />
      <stop
         id="stop878"
         offset="1"
         style="stop-color:#d2d2d2;stop-opacity:1" />
    </linearGradient>
    <radialGradient
       inkscape:collect="always"
       xlink:href="#linearGradient1428"
       id="radialGradient1585-4-9-9-1"
       cx="360.48932"
       cy="164.95677"
       fx="360.48932"
       fy="164.95677"
       r="60.330433"
       gradientTransform="matrix(0.67876239,-0.73435794,0.66987628,0.6191624,-190.49168,345.03131)"
       gradientUnits="userSpaceOnUse" />
    <linearGradient
       inkscape:collect="always"
       id="linearGradient1428">
      <stop
         style="stop-color:#000000;stop-opacity:1"
         offset="0"
         id="stop1424" />
      <stop
         style="stop-color:#0e48a2;stop-opacity:1"
         offset="1"
         id="stop1426" />
    </linearGradient>
    <radialGradient
       inkscape:collect="always"
       xlink:href="#linearGradient1599"
       id="radialGradient5891-6-8-5-56-2-5"
       cx="123.42026"
       cy="203.30486"
       fx="123.42026"
       fy="203.30486"
       r="60.330433"
       gradientTransform="matrix(1.1638565,-1.4585573,0.79400049,0.63357312,-163.77051,219.27234)"
       gradientUnits="userSpaceOnUse" />
    <linearGradient
       id="linearGradient1599"
       inkscape:collect="always">
      <stop
         id="stop1595"
         offset="0"
         style="stop-color:#1e1e1e;stop-opacity:1" />
      <stop
         id="stop1597"
         offset="1"
         style="stop-color:#a8a8a8;stop-opacity:1" />
    </linearGradient>
    <radialGradient
       inkscape:collect="always"
       xlink:href="#linearGradient1593"
       id="radialGradient5893-5-4-3-7-1-2"
       cx="94.704826"
       cy="196.51759"
       fx="94.704826"
       fy="196.51759"
       r="60.330482"
       gradientTransform="matrix(2.3063722,0.74991397,-0.36619431,1.1262364,-78.587063,78.802265)"
       gradientUnits="userSpaceOnUse" />
    <linearGradient
       inkscape:collect="always"
       id="linearGradient1593">
      <stop
         style="stop-color:#1b1b1b;stop-opacity:0.99607843"
         offset="0"
         id="stop1589" />
      <stop
         style="stop-color:#dedede;stop-opacity:1"
         offset="1"
         id="stop1591" />
    </linearGradient>
    <filter
       style="color-interpolation-filters:sRGB"
       inkscape:label="Drop Shadow"
       id="filter4652">
      <feFlood
         flood-opacity="1"
         flood-color="rgb(0,0,0)"
         result="flood"
         id="feFlood4642" />
      <feComposite
         in="flood"
         in2="SourceGraphic"
         operator="in"
         result="composite1"
         id="feComposite4644" />
      <feGaussianBlur
         in="composite1"
         stdDeviation="2.9"
         result="blur"
         id="feGaussianBlur4646" />
      <feOffset
         dx="2.3"
         dy="2.6"
         result="offset"
         id="feOffset4648" />
      <feComposite
         in="SourceGraphic"
         in2="offset"
         operator="over"
         result="composite2"
         id="feComposite4650" />
    </filter>
    <linearGradient
       inkscape:collect="always"
       xlink:href="#linearGradient1583"
       id="linearGradient4563"
       gradientUnits="userSpaceOnUse"
       gradientTransform="matrix(-0.51037667,0.07010464,-0.07673886,-0.55867522,2196.9509,57.711202)"
       x1="4108.4053"
       y1="-78.807915"
       x2="4495.46"
       y2="-128.91109" />
    <linearGradient
       id="linearGradient1583"
       inkscape:collect="always">
      <stop
         id="stop1579"
         offset="0"
         style="stop-color:#000000;stop-opacity:1" />
      <stop
         id="stop1581"
         offset="1"
         style="stop-color:#1c67da;stop-opacity:0.98823529" />
    </linearGradient>
    <filter
       style="color-interpolation-filters:sRGB"
       inkscape:label="Drop Shadow"
       id="filter4664">
      <feFlood
         flood-opacity="1"
         flood-color="rgb(0,0,0)"
         result="flood"
         id="feFlood4654" />
      <feComposite
         in="flood"
         in2="SourceGraphic"
         operator="in"
         result="composite1"
         id="feComposite4656" />
      <feGaussianBlur
         in="composite1"
         stdDeviation="2.9"
         result="blur"
         id="feGaussianBlur4658" />
      <feOffset
         dx="2.3"
         dy="2.6"
         result="offset"
         id="feOffset4660" />
      <feComposite
         in="SourceGraphic"
         in2="offset"
         operator="over"
         result="composite2"
         id="feComposite4662" />
    </filter>
    <linearGradient
       inkscape:collect="always"
       xlink:href="#linearGradient1629"
       id="linearGradient4561"
       gradientUnits="userSpaceOnUse"
       gradientTransform="matrix(0.51037667,-0.07010464,0.07673886,0.55867522,-2113.8231,656.00251)"
       x1="4144.7954"
       y1="-82.776527"
       x2="4429.751"
       y2="-148.6944" />
    <filter
       style="color-interpolation-filters:sRGB"
       inkscape:label="Drop Shadow"
       id="filter4676">
      <feFlood
         flood-opacity="1"
         flood-color="rgb(0,0,0)"
         result="flood"
         id="feFlood4666" />
      <feComposite
         in="flood"
         in2="SourceGraphic"
         operator="in"
         result="composite1"
         id="feComposite4668" />
      <feGaussianBlur
         in="composite1"
         stdDeviation="2.9"
         result="blur"
         id="feGaussianBlur4670" />
      <feOffset
         dx="2.3"
         dy="2.6"
         result="offset"
         id="feOffset4672" />
      <feComposite
         in="SourceGraphic"
         in2="offset"
         operator="over"
         result="composite2"
         id="feComposite4674" />
    </filter>
  </defs>
  <sodipodi:namedview
     id="base"
     pagecolor="#3e3e3e"
     bordercolor="#666666"
     borderopacity="1.0"
     inkscape:pageopacity="1"
     inkscape:pageshadow="2"
     inkscape:zoom="0.49497475"
     inkscape:cx="-314.33532"
     inkscape:cy="541.95033"
     inkscape:document-units="mm"
     inkscape:current-layer="layer1"
     showgrid="false"
     fit-margin-top="0"
     fit-margin-left="0"
     fit-margin-right="0"
     fit-margin-bottom="0"
     inkscape:snap-nodes="false"
     inkscape:window-width="1920"
     inkscape:window-height="1017"
     inkscape:window-x="-8"
     inkscape:window-y="208"
     inkscape:window-maximized="1" />
  <metadata
     id="metadata955">
    <rdf:RDF>
      <cc:Work
         rdf:about="">
        <dc:format>image/svg+xml</dc:format>
        <dc:type
           rdf:resource="http://purl.org/dc/dcmitype/StillImage" />
        <dc:title></dc:title>
      </cc:Work>
    </rdf:RDF>
  </metadata>
  <g
     inkscape:label="Layer 1"
     inkscape:groupmode="layer"
     id="layer1"
     transform="translate(-35.017128,-42.30082)">
    <path
       inkscape:connector-curvature="0"
       style="font-style:normal;font-variant:normal;font-weight:normal;font-stretch:normal;font-size:292.40866089px;line-height:1.25;font-family:'Trebuchet MS';-inkscape-font-specification:'Trebuchet MS';letter-spacing:0px;word-spacing:0px;fill:url(#linearGradient4561);fill-opacity:1;stroke:none;stroke-width:0.52916664;stroke-miterlimit:4;stroke-dasharray:none;stroke-opacity:1;filter:url(#filter4676)"
       d="m 24.309746,284.23721 c -6.6658,5.09677 -11.0839,13.87014 -12.6817,21.86017 -0.6278,3.56061 -0.2691,9.20647 -0.2633,14.86706 3.4471,-22.43267 19.49,-28.06292 45.798,-27.78264 10.3057,0.1098 18.6256,0.75209 23.609,-2.79803 4.0305,-2.87131 14.539,-12.97782 8.587,-13.35591 -6.1148,-0.38843 -9.9055,-0.51736 -17.8765,-0.74479 -7.7953,0.22755 -13.245,0.18037 -22.0091,0.75101 -9.3074,0.60601 -19.1772,2.62596 -25.1634,7.20313 z"
       id="path1409-8-6-2-8-6-1-9-3-50-1-3-3-4-2-8-0-7"
       sodipodi:nodetypes="sccssscss"
       transform="rotate(3.0322789,3963.1313,1596.0139)" />
    <path
       inkscape:connector-curvature="0"
       style="font-style:normal;font-variant:normal;font-weight:normal;font-stretch:normal;font-size:292.40866089px;line-height:1.25;font-family:'Trebuchet MS';-inkscape-font-specification:'Trebuchet MS';letter-spacing:0px;word-spacing:0px;fill:url(#linearGradient4563);fill-opacity:1;stroke:none;stroke-width:0.52916664;stroke-miterlimit:4;stroke-dasharray:none;stroke-opacity:1;filter:url(#filter4664)"
       d="m 58.818646,429.4765 c 6.6659,-5.09678 11.0839,-13.87017 12.6817,-21.86019 0.6278,-3.56059 0.778149,-9.7018 0.772349,-15.36238 -3.4471,18.4639 -21.382349,27.48815 -42.905249,28.27796 -10.2931,0.52129 -19.8885998,-3.26667 -28.2758998,1.04735 -5.6582,2.9103 -17.6206002,14.7285 -11.6686002,15.1066 6.1148002,0.38844 9.90540022,0.51734 17.8765002,0.7448 7.7952998,-0.22755 17.5916998,-0.18038 26.3557998,-0.75102 9.3074,-0.60601 19.1772,-2.62595 25.1634,-7.20312 z"
       id="path1409-8-6-2-8-6-1-9-3-50-1-9-0-9-7-7-8-4-4"
       sodipodi:nodetypes="scccascss"
       transform="rotate(3.0322789,3963.1313,1596.0139)" />
    <path
       sodipodi:nodetypes="cscczasssccsssssc"
       inkscape:connector-curvature="0"
       id="path2723-6-9-3-8-7-5-7-5"
       d="m 56.948846,269.44655 c -49.2000998,-0.14342 -74.3069,16.87622 -75.3202,51.05899 -0.431,14.54137 5.973,25.91116 19.21160022,34.10974 29.78399978,16.46017 69.84729978,4.44616 71.24089978,41.04189 -0.232,21.31582 -23.7198,29.58683 -36.5498,30.79051 -12.83,1.20368 -21.0268,-2.52108 -29.5847998,2.44652 -6.06889998,3.52276 -20.7328002,16.78292 -11.9116,17.35746 9.8418,0.64103 23.4370998,0.94184 26.5027998,0.94184 54.1347,0 81.202404,-17.94143 81.202404,-53.8242 0,-14.58976 -6.776204,-25.74768 -20.326304,-33.47447 -38.2773,-18.99893 -69.7829,-6.07822 -70.0741,-40.62315 0.6305,-21.27149 12.9304,-31.848 44.4563,-31.54846 13.4015,0.12732 14.5573,0.2046 20.0479,-2.57298 5.7088,-2.88795 13.5006,-12.83365 11.449,-15.05686 -0.5551,-0.60147 -6.0415,-0.52594 -18.861,-0.63476 -2.5378,-0.0215 -9.0633,-0.005 -11.4831,-0.0121 z"
       style="font-style:normal;font-variant:normal;font-weight:normal;font-stretch:normal;font-size:292.40866089px;line-height:1.25;font-family:'Trebuchet MS';-inkscape-font-specification:'Trebuchet MS';letter-spacing:0px;word-spacing:0px;fill:url(#radialGradient5893-5-4-3-7-1-2);fill-opacity:1;stroke:none;stroke-width:0.52916664;stroke-miterlimit:4;stroke-dasharray:none;stroke-opacity:1;filter:url(#filter4652)"
       transform="rotate(3.0322789,3963.1313,1596.0139)" />
    <path
       inkscape:connector-curvature="0"
       style="font-style:normal;font-variant:normal;font-weight:normal;font-stretch:normal;font-size:292.40866089px;line-height:1.25;font-family:'Trebuchet MS';-inkscape-font-specification:'Trebuchet MS';letter-spacing:0px;word-spacing:0px;fill:url(#radialGradient5891-6-8-5-56-2-5);fill-opacity:1;stroke:none;stroke-width:0.52916664;stroke-miterlimit:4;stroke-dasharray:none;stroke-opacity:1"
       d="m 101.24375,65.874859 c -28.901008,4.626623 -44.424126,19.893277 -46.567807,45.800971 -1.199613,14.49819 4.593875,26.19083 17.380247,35.07825 6.265397,3.9089 13.084995,6.5034 19.917736,8.54559 6.473719,1.20685 12.876644,2.20771 18.851814,3.86755 21.35717,5.93268 37.79897,16.85393 37.28903,45.57743 -0.85016,16.04899 -8.44978,27.21899 -22.79788,33.5105 28.91923,-5.6059 44.06867,-21.42715 45.4479,-47.46384 0.77178,-14.56937 -5.4049,-26.07011 -18.52729,-34.50285 C 123.78205,140.23521 98.293327,143.02241 88.554226,129.80202 81.320065,123.38284 77.525657,113.91934 78.233944,98.236594 79.502552,82.471859 87.172916,71.684757 101.24375,65.874859 Z"
       id="path1105-2-74-5-0-2-9-8-6-2-5-2-8-4-5-7-9-5-7-5-3-4" />
    <path
       inkscape:connector-curvature="0"
       style="font-style:normal;font-variant:normal;font-weight:normal;font-stretch:normal;font-size:292.40866089px;line-height:1.25;font-family:'Trebuchet MS';-inkscape-font-specification:'Trebuchet MS';letter-spacing:0px;word-spacing:0px;fill:url(#radialGradient1585-4-9-9-1);fill-opacity:1;stroke:none;stroke-width:0.52916664;stroke-miterlimit:4;stroke-dasharray:none;stroke-opacity:1"
       d="m 62.603829,87.208533 c -4.488843,6.687461 -7.131566,14.843137 -7.927886,24.467297 -1.199613,14.49819 4.593875,26.19083 17.380247,35.07825 8.479333,5.29012 17.973485,8.17367 27.141816,10.53681 3.378134,0.53286 6.700494,1.10961 9.938054,1.77633 31.34008,6.45395 55.62292,17.77477 55.58111,46.47784 -0.27048,5.10604 -1.55459,9.6999 -3.85133,13.78188 5.9893,-7.51658 9.28937,-17.02818 9.89895,-28.53563 0.77178,-14.56937 -5.4049,-26.07011 -18.52729,-34.50285 -17.43442,-9.83569 -33.7552,-12.59877 -46.02227,-16.3042 -29.400138,-6.81922 -47.295081,-15.68735 -46.175845,-42.628906 0.341414,-3.660515 1.197101,-7.042255 2.564444,-10.146821 z"
       id="path1100-4-7-7-0-3-9-4-4-2-0-4-6-2-7-7-5-2-5-7-5-9" />
    <g
       transform="rotate(3.0322789,3907.8092,-2313.8502)"
       aria-label="P"
       style="font-style:normal;font-variant:normal;font-weight:normal;font-stretch:normal;font-size:116.64787292px;line-height:1.25;font-family:'Brush Script MT';-inkscape-font-specification:'Brush Script MT';letter-spacing:0px;word-spacing:0px;fill:url(#linearGradient4565);fill-opacity:1;stroke:none;stroke-width:1.24618745;stroke-miterlimit:4;stroke-dasharray:none;stroke-opacity:1;filter:url(#filter4640)"
       id="text3644-7-2-1">
      <path
         d="m 269.16493,365.96142 c 0,0 -5.41646,3.10041 -11.37795,4.92304 -5.9615,1.78465 -12.49257,2.67697 -19.5932,2.67697 -1.25305,0 -3.81612,-0.22783 -7.68919,-0.68348 l -5.12613,9.34094 c 0.5316,0.7974 0.7974,1.44291 0.7974,1.93654 0,1.17711 -0.2658,2.16437 -0.7974,2.96176 -0.75943,1.13914 -1.76567,2.63901 -3.01872,4.4996 -1.25305,1.86059 -2.10741,3.09466 -2.56306,3.70221 -0.41769,0.60754 -0.91131,1.13914 -1.48088,1.59479 -0.5316,0.45565 -1.0632,0.68348 -1.5948,0.68348 -1.10117,0 -1.80364,-0.34174 -2.10741,-1.02522 -0.30377,-0.64551 -0.45565,-1.55683 -0.45565,-2.73394 0,-1.67073 0.81638,-4.30974 2.44915,-7.91701 1.67073,-3.64525 4.17684,-8.4676 7.51832,-14.46707 -1.78465,-0.68349 -3.17061,-1.57581 -4.15786,-2.67698 -0.98725,-1.10117 -1.48088,-2.18335 -1.48088,-3.24655 0,-2.35422 1.34798,-4.53757 4.04394,-6.55005 2.69597,-2.01248 6.68296,-3.60728 11.96097,-4.78439 l 17.37187,-25.91542 c -3.94901,0.15189 -8.10687,0.72146 -12.47357,1.70871 -4.36671,0.98725 -8.10688,2.05045 -11.22053,3.18959 -3.11365,1.10117 -5.90454,2.16436 -8.37267,3.18959 -2.43017,0.98725 -4.17685,1.68972 -5.24004,2.10741 -0.2658,0 -0.5316,-0.0949 -0.7974,-0.28478 -0.2658,-0.18986 -0.3987,-0.41769 -0.3987,-0.68349 0,-0.30377 0.87334,-2.16436 2.62002,-5.58178 1.78465,-3.41742 3.87308,-7.08165 6.26527,-10.9927 13.28996,-4.74641 25.02309,-7.11962 35.1994,-7.11962 11.77111,0 19.93495,2.50611 24.4915,7.51832 1.63277,1.74668 2.88582,3.91105 3.75916,6.4931 0.91131,2.54407 1.36697,5.06916 1.36697,7.57527 0,4.40011 -2.75246,9.95923 -4.66162,13.44478 -2.38493,-1.06897 -4.42261,-1.80595 -6.72774,-2.65713 2.68376,-3.08833 5.23801,-6.78167 5.23801,-8.56632 0,-2.46814 -0.98726,-4.40468 -2.96177,-5.80962 -1.97451,-1.40493 -4.82235,-2.35421 -8.54354,-2.84784 -3.68322,-0.5316 -8.44862,-0.7974 -14.2962,-0.7974 0.0759,0.41769 0.11391,0.9303 0.11391,1.53784 0,1.97451 -1.04421,4.57554 -3.13263,7.8031 l -9.91051,15.54925 7.46136,-0.85435 c 0.60754,0 0.91131,0.28478 0.91131,0.85435 0,0.49363 -0.49363,0.83537 -1.48088,1.02523 l -8.65746,1.65175 -3.24655,5.46787 c 1.44291,0.0759 2.71495,0.15188 3.81612,0.22783 1.13914,0.0759 2.09335,0.0276 2.84785,0.11391 3.71566,0.42522 9.19144,0.56448 14.05177,-1.22016 5.49028,1.79995 8.30952,3.37702 11.28064,5.63807 z"
         style="font-style:normal;font-variant:normal;font-weight:normal;font-stretch:normal;font-family:'Brush Script MT';-inkscape-font-specification:'Brush Script MT';fill:url(#radialGradient874);fill-opacity:1;stroke:none;stroke-width:1.24618745;stroke-miterlimit:4;stroke-dasharray:none;stroke-opacity:1"
         id="path1277-6-7"
         inkscape:connector-curvature="0"
         sodipodi:nodetypes="ccsccscsccscsccsscccsccccsccsccsccssccscccsccccscc" />
    </g>
  </g>
</svg>
